<?xml version="1.0" standalone="no"?>
<!DOCTYPE svg PUBLIC "-//W3C//DTD SVG 20010904//EN"
 "http://www.w3.org/TR/2001/REC-SVG-20010904/DTD/svg10.dtd">
<svg version="1.0" xmlns="http://www.w3.org/2000/svg"
 width="932.000000pt" height="565.000000pt" viewBox="0 0 932.000000 565.000000"
 preserveAspectRatio="xMidYMid meet">
<metadata>
Created by potrace 1.13, written by Peter Selinger 2001-2015
</metadata>
<g transform="translate(0.000000,565.000000) scale(0.100000,-0.100000)"
fill="#000000" stroke="none">
<path d="M5188 5639 c-44 -10 -141 -57 -215 -105 -29 -19 -85 -50 -125 -70
-40 -20 -99 -62 -133 -94 -33 -31 -88 -73 -122 -94 -99 -59 -194 -182 -234
-305 -18 -54 -34 -79 -88 -134 -80 -83 -94 -91 -209 -116 -99 -22 -128 -34
-216 -94 -72 -49 -250 -112 -359 -128 l-79 -12 -78 -76 c-46 -45 -81 -88 -86
-105 -6 -25 6 -187 22 -295 4 -22 17 -43 37 -60 83 -70 122 -111 104 -111 -9
0 -36 17 -60 39 -53 48 -78 61 -116 61 -36 0 -41 -18 -12 -44 18 -16 18 -18
-6 -79 -14 -34 -38 -75 -54 -91 -26 -28 -29 -28 -35 -11 -4 11 0 56 9 101 28
134 19 163 -41 133 -15 -7 -31 -15 -35 -17 -4 -2 7 17 24 43 26 39 34 62 40
124 4 42 10 104 14 138 11 90 3 111 -52 135 -56 25 -112 20 -235 -18 -99 -32
-171 -67 -215 -105 -18 -16 -58 -44 -88 -63 -30 -20 -60 -45 -67 -56 -7 -12
-53 -51 -101 -86 -48 -36 -118 -94 -155 -128 -103 -98 -127 -107 -300 -118
-174 -11 -216 -21 -248 -55 -19 -21 -24 -37 -24 -81 0 -42 -9 -74 -37 -136
-33 -72 -38 -93 -43 -183 -4 -82 -9 -106 -23 -120 -18 -17 -19 -17 -13 22 16
122 17 181 2 263 -8 48 -18 103 -21 123 -6 41 -70 121 -116 144 -43 23 -73 18
-152 -21 -39 -20 -96 -45 -125 -55 -73 -25 -107 -52 -133 -105 -19 -40 -21
-55 -14 -117 4 -40 8 -84 8 -98 0 -39 -38 -86 -93 -114 -63 -32 -87 -64 -101
-135 -14 -72 -47 -131 -82 -148 -15 -7 -78 -22 -139 -32 -179 -30 -238 -57
-238 -109 0 -14 7 -55 16 -91 20 -83 6 -133 -45 -167 -30 -20 -46 -23 -135
-23 -84 0 -107 -4 -134 -20 -19 -11 -32 -26 -29 -33 13 -39 147 -77 282 -78
80 -2 82 -1 185 54 58 30 147 74 198 97 92 41 95 42 283 55 104 8 193 16 198
19 5 3 60 10 122 16 63 5 151 19 197 30 99 24 148 25 216 6 28 -8 76 -20 107
-26 75 -14 149 -80 211 -187 41 -70 70 -101 264 -278 121 -109 248 -230 284
-267 56 -59 74 -71 130 -89 66 -21 201 -43 367 -60 51 -5 102 -13 115 -18 13
-5 63 -41 112 -80 69 -53 141 -95 302 -175 l212 -105 115 -113 c90 -89 128
-135 177 -216 34 -57 77 -114 94 -127 20 -15 68 -33 122 -45 81 -19 97 -26
164 -80 41 -33 104 -75 140 -94 72 -38 95 -61 162 -156 25 -36 56 -74 68 -85
12 -11 48 -58 81 -105 75 -109 128 -159 269 -255 63 -43 133 -94 154 -113 39
-34 39 -35 109 -28 89 8 139 31 202 93 71 69 104 76 320 78 167 1 186 3 261
28 45 15 116 49 157 77 42 27 111 68 154 91 43 24 111 65 151 92 90 61 140 80
276 106 125 24 167 45 287 146 235 197 282 270 249 384 -8 29 -5 44 20 102 17
37 30 79 30 93 0 14 -18 59 -40 101 -45 85 -48 110 -21 163 33 66 79 225 86
302 9 95 33 150 93 214 26 28 80 94 119 146 38 52 83 107 99 122 44 41 253
157 293 163 20 3 68 12 106 21 87 19 268 34 389 33 101 -2 132 8 177 58 24 26
27 37 32 135 4 74 12 121 25 151 17 38 27 46 93 76 179 80 260 123 273 144 18
28 46 135 46 177 0 77 -97 194 -185 223 -95 32 -135 32 -206 2 -106 -45 -151
-52 -198 -30 -22 10 -48 26 -57 36 -15 17 -14 17 32 3 103 -31 146 -11 158 73
11 83 6 115 -30 195 -29 65 -35 87 -30 121 3 23 8 83 12 134 l7 92 -69 69
c-42 41 -91 79 -124 94 -53 25 -216 58 -359 73 -63 6 -173 41 -241 75 -20 10
-69 53 -110 95 -70 71 -80 77 -157 102 -92 28 -102 28 -347 -2 -129 -16 -150
-16 -285 -1 -81 8 -166 22 -190 31 -24 8 -58 15 -75 15 -54 0 -132 -47 -189
-113 -83 -98 -125 -134 -184 -158 l-55 -22 -41 20 -42 20 49 1 c61 2 86 18
197 128 136 134 145 196 31 207 -46 4 -73 13 -118 42 -87 56 -194 105 -229
105 -29 0 -30 2 -30 43 -1 58 -25 90 -116 149 -71 46 -80 56 -95 100 -23 69
-63 112 -121 129 -47 13 -73 34 -192 161 -75 81 -203 109 -290 64 -19 -11 -43
-43 -75 -103 l-47 -88 6 55 c22 203 21 211 -53 209 -26 -1 -64 -5 -84 -10z
m123 -41 c1 -13 1 -26 1 -29 -1 -3 -5 -57 -11 -120 -5 -63 -19 -139 -29 -169
-11 -30 -25 -93 -32 -140 l-13 -85 31 -72 c17 -39 34 -93 37 -120 11 -79 26
-115 67 -165 50 -60 118 -191 118 -226 0 -15 -16 -72 -36 -127 -72 -205 -95
-290 -105 -394 -13 -134 0 -225 29 -207 6 3 8 41 5 93 -5 81 -2 97 30 198 41
129 101 262 151 336 20 30 36 61 36 69 -1 25 -46 129 -75 171 -21 29 -28 54
-32 106 -4 53 -16 91 -54 174 -45 98 -49 112 -49 183 0 51 -7 102 -21 148 -27
89 -22 133 31 238 45 89 72 110 143 110 74 0 137 -28 187 -84 103 -115 136
-142 182 -155 56 -16 92 -51 113 -111 19 -53 47 -85 97 -111 20 -10 55 -36 78
-57 35 -34 40 -44 40 -83 0 -25 -7 -55 -16 -67 -9 -13 -38 -68 -65 -124 -35
-69 -47 -104 -40 -111 24 -24 90 67 118 164 18 62 20 64 55 67 38 3 113 -29
232 -102 47 -28 70 -36 108 -36 93 0 79 -54 -45 -173 -114 -110 -134 -121
-202 -113 -29 3 -55 3 -58 0 -22 -22 69 -84 124 -84 64 0 132 44 228 149 115
125 160 148 242 125 55 -15 112 -24 273 -44 94 -12 169 -6 362 27 77 13 100
14 145 3 118 -28 154 -47 214 -116 31 -35 76 -75 98 -88 70 -40 207 -83 292
-91 116 -10 268 -41 321 -64 65 -29 172 -135 180 -178 4 -19 -1 -74 -10 -123
-18 -100 -16 -120 25 -202 44 -87 39 -227 -8 -242 -10 -3 -43 2 -73 10 -107
31 -134 19 -79 -35 72 -73 144 -82 256 -33 80 36 125 39 201 17 57 -17 109
-58 154 -119 21 -29 28 -50 28 -85 0 -53 -23 -145 -41 -167 -15 -19 -114 -69
-223 -114 -43 -18 -93 -46 -111 -62 -29 -25 -35 -39 -50 -118 -9 -54 -14 -108
-10 -133 6 -38 3 -46 -22 -71 -46 -47 -77 -54 -223 -55 -151 -1 -238 -10 -385
-41 -79 -17 -119 -32 -190 -72 -142 -81 -183 -115 -259 -217 -39 -53 -94 -122
-123 -153 -72 -78 -91 -121 -102 -225 -10 -91 -43 -210 -86 -307 -14 -31 -25
-64 -25 -72 0 -9 21 -58 46 -109 l46 -92 -31 -70 c-28 -65 -30 -77 -25 -145 6
-63 4 -79 -14 -113 -27 -50 -80 -108 -157 -171 -33 -27 -82 -68 -110 -92 -70
-62 -128 -89 -234 -107 -124 -21 -201 -51 -291 -111 -41 -28 -120 -76 -175
-108 -55 -32 -125 -73 -155 -92 -30 -19 -91 -46 -136 -59 -71 -22 -98 -25
-245 -25 -210 0 -246 -10 -334 -89 -69 -63 -114 -81 -203 -81 -43 0 -55 5 -93
38 -24 21 -66 53 -94 72 -27 18 -76 51 -109 73 -74 49 -135 112 -196 202 -26
39 -69 94 -95 124 -26 30 -64 81 -86 112 -40 59 -67 83 -129 111 -32 14 -108
68 -186 133 -18 15 -63 33 -115 46 -126 31 -144 42 -188 118 -78 131 -142 211
-244 302 -95 85 -116 98 -312 195 -164 81 -229 119 -297 174 -95 77 -81 72
-298 105 -58 8 -118 15 -133 15 -15 0 -67 10 -115 22 l-87 21 -100 96 c-154
149 -352 331 -412 381 -38 31 -72 73 -111 140 -63 104 -134 172 -199 189 -215
56 -223 56 -354 28 -63 -14 -152 -28 -198 -31 -47 -4 -103 -11 -125 -16 -23
-4 -115 -13 -206 -20 -91 -6 -181 -16 -200 -22 -19 -5 -116 -50 -216 -99 -196
-97 -205 -99 -334 -79 -73 11 -150 37 -150 50 0 19 29 24 130 25 86 1 113 5
139 20 67 39 84 111 56 228 -7 33 -11 65 -9 72 10 26 134 61 281 80 96 12 144
61 173 174 21 83 35 101 102 138 53 29 98 89 98 131 0 16 -5 54 -11 85 -21
103 26 177 133 212 29 10 87 35 129 57 73 38 77 39 110 25 19 -8 53 -34 76
-59 36 -39 42 -54 48 -104 3 -33 11 -81 17 -108 10 -48 7 -173 -8 -280 -6 -43
-5 -48 11 -45 10 2 32 21 49 42 29 37 31 43 32 130 0 84 3 99 37 174 26 56 39
102 42 145 3 42 11 69 23 80 22 22 88 34 247 43 151 9 197 28 297 122 40 38
100 89 133 113 33 24 85 66 116 94 179 164 354 250 511 251 119 0 121 -5 101
-211 -11 -117 -18 -132 -130 -266 -82 -98 -113 -145 -113 -170 0 -35 31 -17
78 44 91 120 170 194 187 176 2 -2 -3 -33 -11 -68 -8 -36 -14 -89 -12 -120 3
-49 6 -55 26 -58 31 -5 84 52 101 108 7 24 20 54 28 67 12 19 13 26 3 38 -27
33 13 14 63 -30 53 -46 101 -65 120 -46 17 17 -11 57 -79 113 -35 28 -66 58
-69 67 -7 19 -27 222 -26 269 1 43 9 57 83 130 63 61 65 62 148 77 121 21 279
78 357 129 98 63 118 71 221 95 118 26 134 35 208 113 67 69 86 100 104 168
24 92 134 228 228 281 30 18 82 57 116 89 33 32 90 72 126 90 36 18 89 48 117
66 61 39 167 94 203 105 14 4 49 8 78 8 47 1 52 -1 53 -21z m30 -407 c11 -38
19 -93 19 -139 0 -69 4 -84 45 -173 35 -74 47 -112 51 -165 5 -54 13 -80 38
-119 35 -54 66 -126 66 -152 0 -9 -18 -44 -39 -77 -22 -34 -54 -94 -72 -135
-18 -41 -35 -69 -37 -63 -1 5 4 27 13 49 40 91 75 210 75 252 0 58 -40 144
-109 234 -46 59 -54 77 -66 145 -7 42 -25 102 -39 132 -14 30 -26 71 -26 92 0
46 24 174 41 213 l13 30 4 -30 c2 -16 12 -59 23 -94z"/>
</g>
</svg>
