<?xml version="1.0" standalone="no"?>
<!DOCTYPE svg PUBLIC "-//W3C//DTD SVG 20010904//EN"
 "http://www.w3.org/TR/2001/REC-SVG-20010904/DTD/svg10.dtd">
<svg version="1.0" xmlns="http://www.w3.org/2000/svg"
 width="850.000000pt" height="850.000000pt" viewBox="0 0 850.000000 850.000000"
 preserveAspectRatio="xMidYMid meet">
<metadata>
Created by potrace 1.11, written by Peter Selinger 2001-2013
</metadata>
<g transform="translate(0.000000,850.000000) scale(0.100000,-0.100000)"
fill="#000000" stroke="none">
<path d="M3915 7228 c-50 -28 -92 -54 -95 -57 -11 -13 -99 -71 -107 -70 -24 4
-43 -3 -43 -15 0 -12 -63 -26 -127 -28 -13 0 -23 -8 -26 -20 -3 -11 -10 -17
-16 -13 -6 3 -11 0 -11 -8 0 -20 -98 -90 -116 -83 -18 7 -28 -12 -15 -28 9
-10 7 -19 -7 -36 -22 -27 -44 -19 -38 13 1 12 1 16 -1 9 -5 -13 -50 -11 -73 3
-6 4 -17 -8 -25 -28 -14 -33 -57 -77 -77 -77 -5 0 -21 -9 -37 -21 -19 -14 -43
-21 -74 -21 -53 0 -91 -25 -81 -53 6 -15 4 -16 -15 -6 -12 7 -27 10 -34 7 -9
-3 -9 -5 1 -5 6 -1 12 -6 12 -11 0 -6 -11 -8 -26 -4 -24 6 -25 5 -15 -14 13
-25 4 -53 -15 -45 -10 4 -12 0 -8 -11 7 -19 -7 -21 -24 -4 -17 17 -45 -10 -39
-39 3 -18 0 -23 -12 -21 -11 3 -15 12 -13 32 2 22 -1 27 -15 24 -10 -2 -18
-11 -18 -20 0 -10 -8 -25 -18 -35 -16 -16 -17 -16 -17 0 0 11 -8 17 -23 17
-13 0 -28 5 -34 11 -8 8 -16 0 -29 -28 -12 -24 -27 -39 -41 -41 -12 -2 -27
-10 -33 -17 -10 -11 -17 -12 -33 -3 -21 11 -21 11 -3 -16 10 -15 15 -35 11
-44 -6 -16 -7 -16 -16 1 -15 26 -29 21 -29 -10 l-1 -28 -23 27 c-16 18 -23 35
-19 50 3 16 -3 10 -20 -16 -14 -22 -22 -47 -19 -55 4 -10 1 -12 -7 -6 -10 6
-12 0 -6 -24 8 -38 -1 -57 -21 -40 -10 8 -14 8 -14 0 0 -6 -7 -11 -15 -11 -8
0 -16 -4 -16 -10 -1 -5 -3 -14 -4 -20 -1 -5 -3 -14 -4 -20 0 -5 -6 -10 -12
-10 -6 0 -9 9 -6 20 7 27 -18 47 -28 23 -5 -10 -7 -23 -7 -28 3 -16 -70 -18
-79 -3 -6 9 -9 6 -9 -9 0 -13 -3 -23 -7 -23 -4 0 -18 10 -31 23 l-25 22 18
-28 c17 -27 17 -28 -5 -52 -13 -14 -30 -25 -38 -25 -9 0 -12 -6 -9 -17 19 -61
19 -63 4 -63 -9 0 -28 5 -42 10 -33 13 -79 -6 -53 -21 20 -11 12 -47 -11 -52
-9 -2 -28 0 -42 4 -39 10 -50 -2 -47 -51 2 -31 -1 -46 -14 -54 -24 -15 -32 -2
-20 32 6 17 6 35 1 43 -6 10 -9 8 -9 -9 0 -19 -4 -22 -19 -17 -17 5 -19 2 -15
-19 5 -31 -10 -41 -58 -37 -28 2 -38 -1 -38 -12 0 -8 -13 -29 -30 -47 -16 -18
-28 -35 -26 -39 2 -3 -2 -12 -10 -18 -10 -10 -16 -9 -28 9 -9 12 -16 28 -16
35 0 7 -7 10 -15 7 -12 -5 -11 -11 7 -37 18 -25 19 -29 5 -24 -37 15 -52 19
-41 10 6 -4 14 -19 18 -33 l7 -25 -14 24 c-11 18 -16 20 -20 10 -5 -11 -8 -11
-20 4 -25 31 -47 11 -41 -36 3 -23 7 -47 9 -54 9 -27 -15 -22 -31 7 -22 36
-37 40 -24 5 6 -16 6 -26 -1 -31 -14 -8 -19 -2 -25 32 -6 36 -12 44 -29 44 -7
0 -16 9 -20 19 -10 32 -35 14 -35 -24 0 -19 5 -37 10 -40 10 -6 15 8 11 30 -1
6 5 3 14 -6 23 -22 34 -114 14 -107 -8 3 -19 15 -25 27 -17 33 -34 49 -34 31
0 -13 -2 -13 -10 0 -8 13 -11 11 -16 -7 -7 -26 -15 -28 -32 -11 -30 30 -17 -4
24 -66 25 -37 44 -69 42 -71 -2 -1 -13 -6 -25 -9 -18 -6 -25 -1 -37 23 -9 17
-16 37 -16 45 0 9 -8 14 -20 13 -14 -1 -20 -8 -20 -24 0 -13 -4 -23 -9 -23 -6
0 -6 -13 1 -31 10 -28 8 -34 -13 -50 -13 -9 -26 -17 -29 -16 -3 0 -15 -3 -28
-7 -15 -5 -29 -3 -39 6 -14 11 -15 11 -6 -7 13 -24 -9 -66 -22 -44 -4 6 -1 15
6 20 12 7 12 10 0 21 -11 11 -14 10 -19 -2 -8 -23 -102 -119 -123 -125 -11 -4
-19 -14 -19 -24 0 -20 -53 -75 -63 -65 -4 4 -13 2 -20 -4 -8 -7 -17 -9 -21 -5
-3 4 -15 -3 -26 -15 -12 -12 -27 -22 -35 -22 -8 0 -20 -9 -27 -20 -7 -11 -18
-20 -25 -20 -7 0 -16 -7 -20 -15 -7 -12 -16 -13 -41 -6 -24 7 -32 6 -32 -3 0
-7 -44 -32 -97 -56 -125 -56 -163 -80 -195 -122 -39 -50 -91 -155 -84 -166 3
-6 29 -18 56 -27 28 -9 50 -21 50 -26 0 -5 10 -9 23 -9 12 -1 33 -7 47 -15 23
-13 23 -14 4 -15 -11 0 -41 -7 -67 -16 -45 -15 -47 -15 -69 6 -13 13 -61 40
-108 62 l-85 40 27 23 28 24 -29 -1 c-16 -1 -41 -11 -55 -23 l-26 -23 42 -20
c24 -11 67 -30 96 -42 34 -15 51 -28 48 -36 -3 -7 11 -27 30 -44 29 -25 41
-30 67 -25 26 5 57 -6 169 -63 76 -38 135 -72 131 -75 -11 -12 -38 -7 -77 14
-43 23 -61 19 -23 -6 28 -18 53 -25 117 -30 25 -2 48 -4 52 -4 9 -1 132 -94
136 -103 2 -4 2 -10 0 -13 -4 -6 97 -75 111 -75 5 0 11 -4 13 -8 5 -13 209
-112 232 -113 12 0 30 -4 40 -8 18 -7 18 -8 -5 -30 l-24 -22 65 6 c36 4 85 9
110 11 25 3 61 7 81 9 56 5 63 -4 43 -56 -23 -61 -51 -89 -87 -89 -26 0 -28
-2 -16 -16 18 -22 88 -56 100 -48 6 3 9 15 6 25 -4 16 18 48 27 38 1 -2 22
-32 44 -66 45 -67 61 -81 71 -66 12 19 52 34 72 28 20 -7 20 -7 -1 -41 -24
-38 -30 -34 57 -38 51 -3 58 -8 44 -33 -12 -24 5 -63 34 -78 11 -5 38 -21 59
-34 28 -18 41 -21 44 -13 3 10 7 10 19 0 10 -8 48 -13 107 -14 120 0 129 -2
151 -18 18 -13 18 -15 -8 -45 -25 -30 -26 -34 -12 -61 l15 -28 58 18 c79 23
144 33 221 34 51 1 65 -2 68 -15 3 -11 12 -15 24 -12 13 4 19 0 19 -11 0 -9 8
-16 20 -16 11 0 20 -4 20 -10 0 -5 6 -7 14 -4 8 3 23 1 33 -5 17 -10 17 -10
-2 -12 -11 -1 -29 -3 -40 -4 -65 -9 -153 -15 -247 -16 -63 -1 -108 -6 -108
-11 0 -6 16 -25 35 -42 36 -33 38 -54 4 -35 -11 5 -19 6 -19 1 0 -15 138 -105
149 -98 6 4 44 0 85 -9 87 -17 93 -18 80 -6 -5 5 -53 23 -106 41 -99 32 -118
43 -96 56 20 12 119 12 167 -1 61 -16 131 -52 131 -68 0 -6 -17 -23 -38 -36
l-37 -24 40 -14 c37 -12 103 -55 80 -52 -5 1 -17 0 -25 -1 -18 -2 77 -38 104
-39 30 -1 80 -45 116 -100 32 -52 53 -66 49 -33 -7 46 46 174 76 186 31 12 38
7 32 -26 -5 -28 -4 -30 6 -15 35 54 35 54 52 29 9 -12 27 -33 39 -45 32 -31
66 -82 66 -100 0 -14 -39 -37 -87 -52 -26 -7 -31 -25 -8 -25 8 0 17 1 18 3 7
4 37 -25 33 -32 -9 -15 12 -32 45 -38 19 -2 40 -10 48 -16 12 -10 14 -9 8 5
-9 26 -2 23 62 -26 53 -41 60 -44 79 -31 24 17 91 26 140 18 25 -4 37 -14 49
-37 9 -19 44 -51 89 -81 40 -27 74 -53 74 -57 0 -5 4 -8 10 -8 23 0 172 -124
182 -151 9 -27 28 -40 28 -20 0 17 63 34 119 32 65 -2 172 -32 218 -60 22 -14
30 -25 26 -39 -4 -15 9 -25 67 -51 39 -17 75 -29 81 -26 16 11 49 14 49 6 0
-5 -6 -14 -14 -20 -15 -13 -10 -22 32 -66 23 -25 -17 -30 -73 -9 -19 6 -18 5
2 -15 12 -11 27 -21 33 -21 5 0 10 -4 10 -9 0 -5 16 -7 36 -4 26 4 39 0 52
-15 9 -10 34 -22 56 -26 31 -6 41 -4 52 12 12 17 43 27 123 38 37 5 53 13 46
24 -3 5 0 10 7 10 10 0 10 2 -1 9 -18 12 40 25 70 16 12 -4 19 -3 16 2 -3 5
-2 15 3 23 7 11 11 11 24 -3 9 -8 16 -21 16 -28 0 -8 4 -8 15 1 9 7 14 18 12
24 -2 6 12 22 31 35 61 42 82 64 82 88 0 16 7 24 28 29 15 4 32 14 39 23 9 13
14 14 24 4 21 -21 38 -15 33 9 -10 52 20 106 33 58 9 -35 63 -38 63 -3 0 9 6
13 15 9 8 -3 15 -1 15 5 0 5 -11 14 -25 19 -17 6 -25 17 -25 32 0 13 4 19 8
13 4 -5 16 -12 27 -13 11 -2 31 -12 46 -23 26 -18 26 -18 48 2 23 21 29 61 9
56 -7 -1 -13 4 -12 11 3 36 5 42 15 42 6 0 13 -9 16 -20 3 -11 9 -18 13 -15
15 9 19 -25 5 -39 -31 -31 -13 -36 21 -6 26 22 40 28 47 21 6 -6 19 -11 30
-11 17 0 17 2 3 22 -9 12 -16 26 -16 30 0 15 27 8 45 -12 10 -11 25 -20 34
-20 14 0 14 2 1 10 -11 7 -7 10 19 10 25 0 31 3 24 13 -5 6 -10 22 -11 33 0
16 4 21 17 17 15 -4 17 1 14 29 -3 30 -2 31 8 11 15 -28 33 -35 54 -19 14 10
15 17 6 34 -14 27 2 38 24 16 12 -12 13 -19 4 -30 -9 -11 -8 -15 4 -20 24 -9
34 2 32 36 -1 22 3 30 16 30 9 0 20 -7 23 -16 3 -9 13 -14 21 -10 8 3 17 1 20
-4 9 -15 35 -12 35 4 0 37 118 108 128 77 2 -6 8 -11 14 -11 5 0 0 12 -11 26
-34 43 -26 71 11 37 17 -15 18 -15 19 3 1 10 1 22 0 27 -2 12 20 8 35 -7 8 -8
14 -24 14 -37 0 -21 0 -21 20 4 11 14 20 35 20 47 0 13 4 19 12 14 8 -5 9 2 5
25 -6 28 -4 33 21 41 40 14 57 26 58 39 1 6 2 18 3 27 2 24 21 6 21 -21 0 -36
20 -41 32 -7 14 36 48 46 79 24 20 -14 21 -13 15 6 -8 23 11 41 20 18 3 -8 12
-17 20 -20 12 -4 11 -1 -1 18 -14 21 -14 24 0 30 8 3 20 17 27 31 6 14 17 25
25 25 7 0 13 7 13 15 0 9 6 12 15 9 8 -4 27 1 41 11 14 9 35 15 45 12 18 -5
22 1 17 21 -1 4 -8 6 -15 4 -8 -2 -13 8 -13 27 0 27 2 29 33 26 18 -2 45 -1
60 2 28 5 28 6 26 75 -2 83 13 109 35 58 9 -23 11 -42 5 -58 -14 -36 -11 -47
9 -30 9 9 22 14 28 11 7 -2 9 8 6 27 -4 28 3 36 31 31 5 -1 6 2 3 7 -2 4 -1
14 3 21 6 10 14 11 27 3 26 -14 72 11 80 44 5 20 9 23 16 12 7 -9 8 -6 4 12
-2 14 -7 43 -11 65 l-6 40 24 -29 c14 -15 30 -46 37 -67 7 -22 19 -39 27 -39
17 0 17 11 -3 38 -15 22 -15 23 10 16 22 -5 25 -3 20 10 -4 11 -2 16 7 14 8
-2 13 3 11 12 -2 10 4 7 18 -7 40 -44 58 -20 43 57 -10 50 -1 91 11 53 4 -12
15 -31 26 -43 20 -23 20 -23 20 -2 0 11 -5 24 -10 27 -15 9 -2 25 15 19 7 -3
16 -23 20 -45 4 -22 12 -39 20 -39 7 0 19 -10 27 -22 21 -31 35 -16 36 39 l1
48 -15 -29 c-19 -35 -31 -22 -37 40 -8 70 10 84 36 29 16 -35 37 -47 37 -22 0
8 4 7 10 -3 8 -13 10 -12 10 3 0 18 8 21 34 11 25 -10 19 -22 -15 -29 -22 -5
-28 -10 -18 -15 7 -5 20 -5 28 0 9 4 21 9 26 10 6 2 27 14 47 26 21 13 42 24
48 24 5 0 10 4 10 9 0 11 59 33 70 26 10 -6 25 34 17 42 -6 5 -116 -58 -148
-84 -26 -22 -37 -15 -76 45 -55 81 -96 162 -84 162 6 0 11 -7 11 -15 0 -8 14
-18 32 -23 32 -8 48 -28 68 -84 12 -34 51 -40 45 -8 -2 11 1 20 7 20 6 0 8 11
4 30 -21 100 -20 93 -1 83 11 -7 30 -7 48 -2 17 5 47 6 68 3 39 -7 63 11 38
27 -9 6 -15 4 -17 -6 -5 -23 -19 -18 -26 9 -11 44 -17 107 -10 117 4 6 11 5
21 -2 17 -15 34 3 32 36 -2 37 1 45 19 45 25 0 68 -78 48 -86 -8 -3 -16 -13
-19 -23 -4 -16 -1 -16 50 2 60 22 75 41 49 60 -19 14 -25 82 -8 99 9 9 16 7
28 -11 12 -17 19 -20 28 -11 8 8 7 15 -6 24 -23 17 -23 37 2 64 20 22 20 22 1
59 -21 41 -58 80 -67 70 -3 -3 6 -18 20 -32 27 -27 33 -45 16 -45 -5 0 -10 -9
-10 -19 0 -26 -9 -30 -46 -20 -37 10 -54 43 -43 83 10 38 4 44 -21 21 -11 -10
-28 -15 -40 -12 -25 6 -36 -9 -20 -28 16 -19 5 -64 -15 -61 -8 1 -25 12 -38
24 -23 22 -67 30 -67 13 0 -15 -84 -101 -99 -101 -8 0 -20 8 -28 18 -13 15
-14 15 -9 0 5 -18 -25 -50 -31 -33 -2 6 -29 10 -60 9 -46 -1 -60 -6 -75 -24
-10 -12 -15 -26 -13 -31 3 -5 -1 -20 -10 -33 -10 -15 -14 -33 -10 -46 5 -15 2
-20 -12 -21 -23 -2 -24 -2 -54 6 -21 5 -28 1 -43 -27 -10 -19 -26 -35 -35 -36
-9 -1 -25 -3 -36 -4 -11 -2 -19 2 -18 9 1 6 -5 17 -13 24 -14 12 -14 9 0 -25
21 -50 20 -54 -6 -58 -17 -2 -25 -13 -32 -41 -8 -31 -14 -37 -29 -33 -15 4
-18 0 -14 -14 3 -13 0 -17 -9 -13 -8 3 -14 9 -14 14 0 5 -4 9 -10 9 -5 0 -10
-8 -10 -18 0 -20 -29 -38 -75 -46 -67 -12 -125 -31 -125 -42 0 -9 -9 -9 -35
-1 -26 8 -39 7 -47 -1 -7 -7 -17 -8 -30 -1 -23 12 -24 -7 -4 -56 8 -19 11 -35
5 -35 -5 0 -9 -8 -9 -17 -1 -17 -1 -17 -11 0 -15 26 -37 21 -54 -13 -9 -16
-23 -30 -31 -30 -12 0 -15 -6 -10 -26 5 -20 3 -25 -11 -24 -10 1 -30 2 -46 1
-24 -1 -27 -4 -21 -25 5 -23 3 -25 -32 -23 -30 2 -47 10 -75 40 -40 41 -55 48
-39 17 6 -12 7 -20 1 -20 -5 0 -11 4 -13 9 -1 5 -9 11 -16 13 -16 4 -43 -67
-35 -89 5 -12 0 -14 -25 -8 -29 6 -33 4 -49 -29 -12 -26 -23 -36 -40 -36 -14
0 -27 -10 -36 -26 -11 -22 -15 -23 -26 -11 -16 21 -71 0 -71 -26 0 -11 -5 -17
-12 -14 -20 7 -48 -12 -48 -32 0 -16 -6 -18 -38 -14 -25 3 -50 -1 -70 -11 -17
-9 -44 -17 -59 -17 -58 -3 -60 -5 -53 -58 3 -27 11 -55 17 -63 19 -25 23 -48
8 -48 -8 0 -17 11 -21 24 -8 34 -41 36 -144 8 -118 -32 -136 -40 -122 -54 7
-7 12 -19 12 -28 -1 -12 -4 -11 -15 4 -13 18 -20 15 -16 -6 2 -17 -17 -7 -27
15 -11 21 -11 20 -6 -5 7 -30 2 -33 -25 -19 -9 5 -23 6 -30 2 -10 -7 -10 -12
0 -29 15 -23 11 -31 -17 -36 -42 -9 -83 -33 -109 -64 -22 -26 -25 -35 -15 -47
9 -11 9 -15 1 -15 -6 0 -11 4 -11 10 0 14 -56 41 -74 34 -8 -3 -17 -12 -20
-21 -4 -8 -12 -13 -20 -10 -8 3 -22 -1 -33 -8 -10 -8 -28 -15 -41 -15 -13 0
-32 -5 -43 -10 -16 -9 -17 -15 -8 -31 10 -20 10 -20 -17 -3 l-27 18 5 -27 c4
-23 1 -28 -26 -36 -71 -21 -136 -1 -136 43 0 16 -2 18 -9 7 -14 -21 -33 -4
-21 19 17 31 12 43 -14 36 -15 -4 -44 3 -79 19 -44 20 -60 23 -81 16 -21 -9
-27 -7 -36 9 -6 12 -18 17 -31 15 -18 -4 -21 0 -17 25 5 35 0 37 -33 12 -13
-10 -34 -19 -46 -19 -22 -2 -22 -1 -8 27 21 40 19 50 -8 50 -13 0 -28 5 -34
11 -7 7 -12 6 -16 -5 -3 -8 -2 -18 4 -22 13 -8 -8 -34 -28 -34 -12 0 -13 10
-8 54 7 55 1 67 -35 73 -18 2 -42 -16 -35 -28 3 -4 -4 -13 -16 -19 -26 -15
-47 1 -25 19 8 7 12 19 9 27 -4 10 3 14 25 14 17 0 34 5 38 11 4 7 1 10 -7 7
-25 -9 -70 21 -67 44 4 28 -18 35 -27 9 -6 -21 -16 -26 -27 -15 -4 3 -2 20 3
37 5 20 5 35 -1 41 -7 7 -10 3 -10 -9 -1 -15 -4 -12 -14 10 -11 24 -15 27 -21
13 -9 -22 -36 -32 -46 -16 -6 9 -13 8 -28 -6 -12 -11 -21 -14 -21 -8 0 6 5 14
10 17 16 10 11 43 -7 48 -10 2 -28 -5 -40 -16 l-23 -20 0 20 c0 19 30 56 30
37 0 -5 4 -2 10 6 14 22 -10 31 -41 14 -31 -16 -43 -3 -27 30 7 13 6 21 -1 26
-7 4 -11 13 -9 20 2 9 -11 15 -42 17 -30 3 -50 11 -59 24 -7 10 -20 19 -28 19
-11 0 -14 7 -10 21 4 16 3 18 -9 8 -8 -6 -14 -18 -14 -25 0 -8 -9 -14 -20 -14
-18 0 -19 3 -9 21 10 20 9 21 -20 14 -20 -4 -31 -3 -31 4 0 6 4 11 9 11 13 0
22 43 10 51 -18 11 -66 3 -93 -14 -31 -20 -36 -21 -36 -4 0 21 -46 42 -62 29
-9 -7 -19 -7 -28 -2 -12 7 -11 10 5 16 43 16 41 47 -3 38 -22 -5 -30 -1 -41
19 -8 15 -10 34 -6 48 7 22 7 22 -9 6 -16 -16 -36 -23 -36 -13 0 3 4 16 10 30
5 14 7 26 5 26 -3 0 -10 -11 -15 -25 -9 -23 -13 -24 -31 -15 -12 7 -29 10 -40
7 -10 -3 -20 0 -22 6 -2 7 -12 5 -27 -6 -33 -23 -40 -21 -40 8 0 14 -5 25 -11
25 -6 0 -9 7 -5 15 7 19 -4 19 -40 1 -15 -8 -31 -13 -34 -11 -4 3 -15 -4 -25
-15 -10 -11 -23 -20 -28 -20 -6 0 -3 8 6 18 20 22 22 85 5 100 -9 7 -31 -1
-77 -29 -36 -21 -66 -37 -69 -34 -11 11 35 68 58 72 33 5 51 23 22 23 -14 0
-22 6 -22 18 -1 16 -2 16 -15 -2 -12 -15 -20 -17 -52 -9 -28 6 -38 14 -38 28
0 25 -30 43 -66 41 -15 -1 -26 2 -23 6 3 4 1 8 -4 8 -6 0 -24 -16 -42 -36 -38
-44 -50 -37 -25 14 11 20 21 40 23 45 2 4 -3 4 -11 1 -11 -4 -13 1 -10 23 l5
28 -24 -25 c-12 -14 -20 -21 -15 -16 11 15 8 38 -4 30 -8 -4 -9 3 -4 25 4 20
3 31 -5 31 -18 0 -64 -26 -84 -49 -11 -12 -26 -21 -35 -21 -10 0 -12 3 -5 8
11 7 44 65 44 78 0 4 -34 -27 -76 -69 -77 -79 -88 -85 -100 -65 -7 11 2 20
116 119 29 26 54 55 55 65 0 11 5 25 9 33 17 27 -12 34 -48 11 -43 -26 -44
-29 -11 -22 33 6 32 -2 -5 -37 -55 -52 -96 -44 -50 9 22 25 27 45 8 34 -8 -5
-9 -2 -5 10 6 14 3 16 -13 11 -19 -6 -26 8 -21 38 4 23 -21 -9 -44 -57 -22
-46 -30 -53 -55 -54 -17 0 -30 2 -30 4 0 3 12 20 27 39 15 18 28 40 29 49 3
18 -17 21 -33 5 -7 -7 -13 -7 -17 -1 -3 6 -21 -5 -40 -24 -19 -19 -38 -34 -43
-34 -4 0 -14 12 -21 28 -7 15 -20 37 -30 50 l-17 22 -38 -35 c-39 -36 -73 -40
-41 -4 16 18 16 19 -3 19 -11 0 -28 9 -38 20 -13 15 -15 20 -4 20 7 0 -7 17
-31 39 -46 41 -70 43 -70 7 0 -19 -2 -18 -19 7 -10 16 -35 42 -55 59 -20 16
-36 35 -36 42 0 30 -22 34 -57 10 -20 -13 -39 -24 -43 -24 -4 0 -10 -9 -13
-20 -3 -11 -10 -20 -17 -20 -6 0 -8 5 -5 11 17 27 -9 77 -80 154 -66 70 -76
78 -86 63 -14 -24 -33 -23 -26 2 3 11 1 18 -4 14 -10 -6 -46 16 -47 29 0 4 -2
17 -5 29 -6 20 -7 19 -30 -8 -24 -28 -24 -28 -35 -7 -15 27 -79 67 -115 71
-16 2 -36 -3 -45 -10 -9 -7 -13 -8 -9 -2 12 20 16 64 6 70 -5 3 -7 10 -4 15 4
5 -5 9 -19 9 -16 0 -26 6 -26 14 0 8 -9 17 -20 21 -11 3 -27 19 -37 35 -20 35
-40 45 -60 28 -12 -10 -14 -9 -13 3 5 35 1 41 -21 26 -19 -14 -23 -13 -48 12
-15 14 -38 33 -51 42 l-25 16 38 36 c23 23 37 46 37 62 0 18 5 25 19 25 11 0
27 10 35 22 15 20 16 21 34 5 10 -9 21 -17 25 -17 6 0 0 48 -8 60 -2 4 2 16
10 26 14 18 14 18 30 -3 20 -28 41 -29 55 -3 6 11 18 20 27 20 9 0 13 3 9 8
-8 7 -13 8 -41 11 -18 1 -20 28 -2 34 6 2 29 -4 49 -14 42 -21 64 -17 74 14 4
14 1 25 -12 34 -28 20 -5 37 30 22 25 -12 25 -14 11 -35 -25 -38 -17 -44 16
-13 32 29 49 36 49 20 0 -5 8 -8 18 -6 9 2 19 4 21 4 2 1 -4 10 -13 20 -23 25
-11 49 12 28 10 -8 27 -20 39 -26 19 -10 22 -9 16 5 -5 13 -2 15 15 9 21 -6
29 4 15 18 -3 4 -7 18 -8 32 0 20 3 24 17 19 21 -6 22 -1 8 26 -7 13 -7 21 0
25 5 3 10 -3 10 -13 0 -22 22 -34 45 -25 12 4 14 14 10 39 -2 19 -1 34 4 34
15 0 33 -29 28 -45 -8 -19 13 -31 24 -14 5 8 7 24 4 37 -4 25 16 30 35 8 6 -8
18 -12 26 -9 8 3 21 0 28 -6 16 -13 20 -9 30 32 5 20 17 32 46 43 22 9 40 21
40 27 0 7 4 7 12 -1 23 -23 29 -12 9 14 -22 28 -20 47 4 38 8 -4 12 -10 9 -15
-3 -5 0 -9 5 -9 10 0 16 21 12 43 0 4 6 7 14 7 8 0 15 -5 15 -11 0 -6 7 -17
15 -25 12 -13 16 -12 30 10 9 14 14 30 10 36 -4 6 -1 9 7 8 7 -2 11 3 9 12
-10 39 -6 53 17 55 13 1 30 9 38 17 14 14 22 13 82 -8 58 -21 63 -22 49 -6
-10 10 -17 31 -17 46 0 24 3 27 21 23 17 -5 20 -2 16 13 -3 13 0 17 9 13 8 -3
14 -9 14 -13 0 -4 7 -11 16 -14 8 -3 13 -2 9 3 -3 5 9 20 27 32 18 13 56 47
84 75 29 29 80 71 114 93 35 23 56 41 47 41 -21 0 -21 7 0 28 29 29 46 38 155
79 38 13 80 38 95 54 16 16 32 29 38 29 5 0 25 14 43 31 17 16 32 27 32 23 0
-4 6 1 14 12 14 18 15 18 21 2 12 -30 28 -21 22 11 -8 39 17 48 48 17 30 -30
43 -21 41 27 -1 37 1 40 42 54 42 14 56 23 107 69 38 35 139 110 155 116 8 3
24 2 35 -2 14 -5 36 3 75 28 79 51 119 72 133 72 21 0 84 58 97 90 12 29 30
41 30 20 0 -12 52 13 96 47 45 34 59 24 60 -45 1 -86 12 -157 35 -220 12 -31
32 -88 45 -127 14 -38 27 -77 31 -85 3 -8 7 -21 9 -28 3 -14 15 -68 44 -189
28 -118 55 -176 93 -198 36 -20 84 -71 93 -97 8 -27 23 -21 18 7 -5 30 12 33
56 10 28 -15 32 -24 32 -75 0 -41 -2 -44 -18 -22 -8 12 -19 20 -24 17 -13 -8
-4 -55 28 -147 16 -45 29 -85 29 -88 -1 -21 16 -80 23 -80 6 0 10 -5 10 -11 0
-26 114 -136 150 -145 3 0 12 -3 20 -6 66 -26 158 -31 225 -13 84 22 169 91
218 176 22 37 82 192 91 234 2 6 13 42 25 80 44 137 43 127 13 123 -16 -2 -26
2 -25 8 1 6 4 23 7 37 10 57 46 91 46 45 0 -17 3 -19 9 -9 9 13 5 96 -5 112
-6 11 14 49 26 49 5 0 12 -16 16 -36 4 -23 9 -31 14 -23 5 6 1 35 -7 62 -20
70 -11 132 25 171 21 23 33 51 44 104 9 40 12 75 7 78 -5 3 -9 1 -9 -4 0 -6
-7 -13 -16 -16 -13 -5 -15 0 -11 33 2 22 -1 45 -7 52 -8 9 -4 10 19 5 29 -7
29 -7 11 13 -16 17 -16 24 -6 56 7 20 13 42 14 48 2 7 6 19 9 27 3 8 16 66 28
128 21 107 30 129 42 98 3 -8 16 -12 31 -11 28 3 61 -29 49 -48 -4 -6 3 -8 16
-4 22 5 23 0 4 -50 -3 -7 8 -11 31 -10 19 0 43 -6 53 -15 10 -9 29 -19 43 -23
53 -15 110 -46 110 -60 0 -11 7 -14 23 -10 27 6 43 -4 49 -30 2 -11 11 -20 21
-20 10 0 22 -7 27 -15 5 -8 10 -11 10 -6 0 5 7 3 15 -4 8 -7 13 -16 10 -20 -8
-13 22 -32 47 -30 37 3 48 1 48 -11 0 -7 -10 -9 -24 -5 -14 3 -28 2 -31 -4 -3
-5 1 -10 10 -10 20 0 46 -25 49 -47 4 -25 23 -27 31 -3 3 11 11 17 17 14 10
-6 7 -33 -7 -68 -7 -16 -5 -18 8 -13 11 4 17 1 17 -8 0 -8 5 -15 10 -15 6 0
10 4 10 9 0 15 32 22 45 11 9 -8 15 -8 20 0 3 5 10 10 16 10 5 0 4 -9 -3 -20
-10 -16 -10 -22 3 -36 15 -14 18 -14 32 1 9 9 22 13 29 9 8 -5 2 -15 -17 -30
-34 -27 -27 -43 11 -25 28 12 48 6 37 -12 -3 -6 -7 -26 -8 -44 -1 -32 1 -33
38 -33 30 0 46 -7 66 -27 14 -16 24 -34 23 -40 -5 -21 13 -14 23 9 15 32 37
36 30 5 -6 -22 -4 -24 19 -20 37 7 32 -10 -11 -47 -21 -18 -29 -28 -18 -23 11
6 39 9 62 7 30 -2 48 3 64 17 18 15 25 17 27 7 8 -26 45 -47 65 -36 31 16 31
1 1 -27 l-29 -26 31 3 c26 4 35 -1 48 -22 11 -20 12 -30 4 -38 -15 -15 -3 -15
24 -1 18 9 20 9 15 -4 -4 -10 0 -16 11 -16 34 -1 67 -7 78 -14 7 -4 17 0 24 8
21 26 38 17 45 -25 l7 -40 30 16 c16 8 32 13 36 10 3 -3 11 -1 18 5 10 8 12 0
12 -35 0 -64 7 -69 52 -41 22 14 46 22 55 19 19 -8 15 -40 -4 -36 -20 4 -51
-8 -51 -20 0 -5 7 -8 15 -4 9 3 15 0 15 -9 0 -19 8 -19 26 0 12 11 20 12 35 5
10 -6 19 -8 19 -4 0 3 6 1 14 -6 8 -6 12 -18 9 -26 -7 -18 25 -44 44 -37 7 3
19 0 27 -6 10 -8 16 -8 26 4 14 16 36 20 44 7 3 -5 -7 -21 -20 -38 -15 -17
-23 -22 -20 -11 6 20 -7 23 -23 3 -9 -11 -8 -18 5 -31 16 -16 18 -15 40 12 23
28 23 28 17 3 -6 -25 -6 -25 15 -6 23 20 31 9 10 -13 -11 -11 -10 -12 1 -6 11
6 13 3 8 -14 -12 -47 2 -53 48 -21 52 36 72 39 51 8 -27 -38 -19 -57 9 -24 20
23 28 27 37 18 9 -9 8 -15 -7 -26 -44 -31 -62 -52 -59 -68 1 -10 -4 -21 -11
-26 -9 -4 -11 -12 -6 -20 6 -11 15 -9 44 7 19 11 38 17 43 13 4 -4 4 -1 0 6
-5 8 -16 10 -28 6 -17 -5 -18 -3 -9 13 14 27 31 40 64 48 29 8 38 -8 12 -23
-9 -4 -17 -23 -20 -40 -3 -29 -1 -32 16 -27 16 5 19 1 19 -21 0 -26 3 -24 33
24 24 38 36 49 44 41 8 -8 8 -20 -2 -43 l-14 -33 33 2 c18 1 38 5 43 8 6 4 31
-16 57 -43 41 -43 50 -49 76 -44 16 4 34 12 40 19 9 11 25 -1 77 -55 43 -46
75 -71 96 -76 18 -3 39 -12 47 -18 26 -20 117 -66 131 -66 8 1 3 7 -11 15 -21
11 -22 15 -8 20 12 5 16 18 15 53 -1 26 2 58 7 70 7 21 6 23 -14 17 -21 -7
-22 -5 -15 33 6 35 4 41 -14 47 -12 3 -21 14 -21 24 0 25 -11 33 -26 20 -20
-16 -38 -1 -22 19 11 13 10 15 -5 9 -13 -5 -20 0 -27 17 -4 13 -14 26 -22 28
-7 3 -17 7 -22 9 -5 2 -25 18 -44 36 -19 18 -47 35 -61 38 -19 4 -32 18 -48
55 -16 36 -29 51 -49 56 -17 4 -29 2 -34 -7 -9 -14 -38 -4 -86 31 -12 8 -32
22 -44 30 -50 34 -70 52 -70 65 0 8 -6 12 -14 9 -11 -4 -232 161 -285 213 -15
16 -35 12 -37 -5 -1 -7 -2 -20 -3 -29 -2 -17 -3 -17 -16 0 -7 11 -12 24 -9 31
7 18 -33 55 -53 50 -27 -7 -222 134 -256 184 -28 42 -51 53 -61 30 -3 -9 -11
-6 -25 10 -11 12 -23 22 -28 21 -27 -5 -42 5 -53 32 -10 24 -10 33 -1 38 8 5
7 12 -6 23 -34 29 -89 57 -122 63 -18 3 -87 40 -154 82 -241 151 -327 203
-336 203 -5 0 -14 7 -21 15 -6 8 -15 14 -18 13 -4 -1 -27 8 -51 20 -27 13 -49
18 -54 13 -13 -13 -120 50 -132 77 -5 12 -14 22 -20 22 -10 0 -63 48 -94 85
-7 9 -22 15 -31 12 -13 -3 -17 0 -13 9 6 16 -1 18 -26 4 -14 -7 -25 -2 -51 25
-19 19 -39 35 -46 35 -19 0 -64 40 -90 81 -13 22 -32 39 -42 39 -9 0 -32 9
-50 20 -31 19 -54 20 -103 5 -11 -4 -27 -1 -35 6 -8 6 -18 9 -21 5 -7 -7 -5
-68 3 -109 2 -12 -3 -21 -16 -24 -17 -5 -17 -7 -5 -20 8 -8 15 -20 15 -28 0
-23 -41 -4 -52 24 -10 24 -11 25 -18 6 -4 -11 -6 -23 -3 -27 2 -5 0 -8 -5 -8
-9 0 -16 -27 -29 -110 -6 -44 -7 -44 -26 -26 -13 13 -16 13 -31 -3 -15 -17
-14 -19 9 -29 15 -7 24 -16 21 -21 -8 -12 -46 -2 -46 12 0 7 -6 5 -15 -4 -11
-11 -13 -22 -6 -47 11 -36 -4 -50 -55 -54 -40 -4 -40 -26 0 -62 20 -19 36 -36
36 -39 0 -3 -12 -7 -27 -9 -25 -3 -26 -4 -10 -20 15 -14 15 -17 1 -22 -12 -5
-14 -10 -5 -20 6 -7 8 -16 3 -20 -4 -4 1 -12 11 -17 9 -6 17 -19 17 -30 0 -12
-4 -17 -11 -13 -8 4 -9 0 -4 -15 4 -14 2 -21 -7 -21 -7 0 -22 -11 -33 -24 -11
-13 -31 -26 -45 -28 -37 -5 -34 -22 7 -43 29 -14 34 -20 20 -23 -13 -3 -16 -9
-11 -25 4 -12 11 -25 16 -28 6 -4 6 -9 -1 -14 -7 -3 -9 -15 -6 -25 6 -19 -8
-20 -102 -6 -40 6 -41 1 -6 -31 17 -16 22 -27 15 -32 -6 -4 -7 -12 -3 -20 12
-19 2 -48 -19 -54 -13 -3 -17 -12 -14 -36 2 -20 -1 -31 -9 -31 -7 0 -21 -9
-30 -21 -23 -26 -62 -22 -62 6 0 15 -6 19 -25 17 -18 -2 -21 0 -11 6 11 8 11
10 0 15 -8 3 -3 8 14 12 39 10 28 30 -16 29 -33 -1 -36 1 -35 22 2 14 9 24 18
25 8 0 5 4 -9 10 -20 8 -21 11 -10 25 12 14 9 20 -16 40 -16 12 -32 21 -37 18
-15 -10 -30 7 -18 21 12 15 -3 31 -19 20 -20 -12 -20 14 0 28 17 13 19 19 10
36 -7 12 -20 21 -31 21 -24 0 -37 20 -19 30 10 7 10 11 -1 25 -11 13 -24 15
-59 11 l-46 -6 33 14 c17 8 45 13 61 11 20 -2 31 2 35 12 5 12 1 14 -18 9 -18
-4 -24 -2 -22 10 1 9 8 19 15 24 20 12 -8 19 -41 9 -16 -4 -28 -4 -28 2 0 5 8
9 17 9 9 0 14 2 12 5 -3 2 -28 1 -57 -4 -28 -4 -49 -5 -47 -1 4 6 102 24 113
21 1 -1 18 5 37 13 20 9 38 15 40 16 3 0 5 3 5 7 0 4 -14 8 -31 8 -18 1 -35 8
-40 17 -8 15 -14 15 -47 4 -62 -22 -92 -27 -92 -16 0 10 40 24 83 29 7 1 5 7
-7 16 -13 10 -25 11 -43 4 -41 -15 -55 -12 -43 10 5 11 17 27 26 36 9 9 13 19
9 23 -3 4 -11 -1 -16 -11 -7 -12 -18 -16 -36 -12 -31 5 -50 28 -28 33 8 2 15
7 16 10 0 4 2 15 4 26 3 15 -1 17 -26 12 -25 -5 -31 -2 -39 20 -12 30 -12 34
-2 33 19 -3 33 2 27 11 -3 6 -17 10 -30 10 -19 0 -26 7 -31 28 -3 15 -10 38
-15 51 -11 27 -4 40 13 23 21 -21 27 -13 16 20 -10 28 -12 29 -24 14 -11 -16
-14 -16 -30 10 -10 15 -31 74 -46 132 -15 58 -31 109 -35 113 -5 5 -49 -15
-98 -43z m1176 -575 c12 -15 12 -16 -4 -10 -10 4 -23 7 -28 7 -6 0 -7 5 -4 10
9 15 21 12 36 -7z m739 -27 c0 -3 -4 -8 -10 -11 -5 -3 -10 -1 -10 4 0 6 5 11
10 11 6 0 10 -2 10 -4z m-1403 -20 c3 -3 -5 -6 -18 -7 -13 0 -35 -2 -48 -3
-21 -3 -22 -2 -7 10 17 12 61 12 73 0z m653 -25 c0 -5 -11 -4 -24 2 -13 7 -22
15 -20 19 6 10 44 -9 44 -21z m-630 -204 c0 -4 5 -5 10 -2 6 3 10 2 10 -3 0
-5 -24 -9 -52 -10 -48 -1 -51 0 -30 11 25 14 62 17 62 4z m-1434 -79 c-3 -13
-5 -25 -5 -28 -1 -3 -5 1 -10 9 -10 16 -4 41 10 41 5 0 7 -10 5 -22z m1534
-128 c0 -5 -2 -10 -4 -10 -3 0 -8 5 -11 10 -3 6 -1 10 4 10 6 0 11 -4 11 -10z
m167 -213 c-18 -5 -41 -17 -53 -28 -27 -25 -34 -24 -34 7 0 14 4 23 9 19 5 -3
12 -1 15 4 4 5 -4 11 -16 13 -22 3 -22 4 6 19 27 15 31 15 67 -5 l38 -21 -32
-8z m-100 -13 c-3 -3 -12 -4 -19 -1 -8 3 -5 6 6 6 11 1 17 -2 13 -5z m3 -144
c-8 -5 -24 -10 -35 -10 -17 0 -17 2 -5 10 8 5 24 10 35 10 17 0 17 -2 5 -10z
m0 -45 c-7 -9 -15 -13 -19 -10 -3 3 1 10 9 15 21 14 24 12 10 -5z m-3895
-1059 c14 -27 22 -31 45 -28 33 5 61 -27 53 -61 -5 -20 -4 -21 8 -5 19 24 44
9 26 -16 -11 -16 -17 -14 -76 24 -35 23 -80 57 -100 76 -25 24 -42 33 -57 29
-15 -3 -24 2 -32 19 -10 22 -8 26 21 40 31 15 33 14 63 -15 18 -17 40 -45 49
-63z m215 -170 c7 -9 8 -16 3 -16 -14 0 -53 30 -53 41 0 12 32 -4 50 -25z
m159 -46 c18 0 19 -3 11 -25 -8 -21 -7 -25 9 -25 10 0 24 6 30 14 11 13 61 19
61 7 0 -3 -17 -23 -36 -44 l-36 -39 -36 29 c-21 16 -58 44 -85 62 -26 18 -45
37 -42 42 4 5 10 7 15 4 4 -3 19 -1 32 4 18 7 27 5 40 -10 9 -10 25 -19 37
-19z m188 -95 c-6 -48 -22 -85 -37 -85 -6 0 -10 4 -10 8 0 5 -12 7 -28 4 -19
-2 -33 3 -46 17 -19 21 -13 52 7 32 7 -7 19 -5 40 5 16 9 26 11 23 6 -4 -6 -2
-13 4 -17 10 -6 13 5 11 42 -2 13 5 23 16 26 10 3 20 5 22 6 1 0 1 -19 -2 -44z
m113 -47 c0 -4 -3 -8 -7 -9 -5 0 -16 -2 -25 -4 -20 -4 -25 11 -5 18 20 6 37 4
37 -5z m-32 -40 c-2 -6 -13 -12 -23 -14 -10 -2 -23 -10 -28 -19 -6 -12 -12
-13 -22 -5 -18 15 -7 42 14 36 9 -3 23 -1 31 4 20 13 32 12 28 -2z m82 -72 c0
-3 -4 -8 -10 -11 -5 -3 -10 -1 -10 4 0 6 5 11 10 11 6 0 10 -2 10 -4z m6360
-17 c0 -6 12 -20 27 -33 28 -25 27 -51 -3 -63 -12 -4 -25 3 -41 23 -26 32 -28
46 -12 75 10 19 29 18 29 -2z m-120 -51 c27 -29 26 -34 -14 -74 -22 -22 -40
-32 -50 -28 -13 5 -15 2 -9 -12 6 -17 5 -17 -10 -6 -23 19 -7 58 22 54 19 -3
21 2 21 42 0 51 9 57 40 24z m-5680 2 c0 -5 -2 -10 -4 -10 -3 0 -8 5 -11 10
-3 6 -1 10 4 10 6 0 11 -4 11 -10z m5358 -223 c6 -7 7 -18 3 -26 -7 -11 -11
-9 -20 7 -6 11 -11 23 -11 26 0 11 17 6 28 -7z m-117 -71 c9 -31 -7 -74 -21
-60 -4 5 -11 28 -14 52 -5 37 -3 43 11 40 9 -2 20 -16 24 -32z m93 -144 c3
-23 0 -44 -5 -47 -12 -8 -30 40 -25 68 3 12 5 26 5 32 2 25 22 -16 25 -53z
m-314 -50 c0 -7 -4 -10 -10 -7 -5 3 -10 16 -10 28 0 18 2 19 10 7 5 -8 10 -21
10 -28z m-4005 -72 c-3 -5 -11 -10 -16 -10 -6 0 -7 5 -4 10 3 6 11 10 16 10 6
0 7 -4 4 -10z m-18 -42 c-3 -8 -6 -5 -6 6 -1 11 2 17 5 13 3 -3 4 -12 1 -19z
m3673 -47 c0 -11 -3 -11 -14 -1 -8 6 -12 18 -9 27 5 12 7 12 14 1 5 -7 9 -19
9 -27z m13 -56 c4 -8 3 -16 -1 -19 -4 -3 -9 4 -9 15 -2 23 3 25 10 4z m75
-160 c1 -36 -1 -46 -8 -35 -6 8 -9 30 -8 47 2 22 -4 37 -16 46 -11 8 -16 19
-12 26 14 22 42 -31 44 -84z m-93 -125 c3 -5 2 -10 -4 -10 -5 0 -13 5 -16 10
-3 6 -2 10 4 10 5 0 13 -4 16 -10z m-1265 -430 c0 -5 -5 -10 -11 -10 -5 0 -7
5 -4 10 3 6 8 10 11 10 2 0 4 -4 4 -10z m-1413 -32 c9 -10 11 -18 6 -18 -6 0
-21 8 -33 18 -18 15 -20 19 -7 19 9 0 24 -9 34 -19z m1353 -28 c0 -5 -4 -10
-10 -10 -5 0 -10 5 -10 10 0 6 5 10 10 10 6 0 10 -4 10 -10z m-1178 -50 c-2
-17 1 -37 8 -45 10 -12 10 -15 -2 -15 -9 0 -35 18 -59 41 -24 22 -35 36 -24
31 24 -11 53 -8 68 7 6 6 12 11 12 11 1 0 0 -14 -3 -30z m126 -116 c21 -22 13
-24 -23 -7 -19 9 -35 20 -35 24 0 10 43 -2 58 -17z m97 -44 c3 -5 1 -10 -4
-10 -6 0 -11 5 -11 10 0 6 2 10 4 10 3 0 8 -4 11 -10z m152 -86 c23 -9 40 -20
38 -25 -8 -12 -66 10 -107 42 -20 16 -42 29 -47 29 -15 0 -14 17 1 22 6 2 25
-9 42 -24 17 -15 50 -35 73 -44z"/>
<path d="M7796 4155 c4 -8 8 -15 10 -15 2 0 4 7 4 15 0 8 -4 15 -10 15 -5 0
-7 -7 -4 -15z"/>
<path d="M3720 7210 c0 -5 5 -10 11 -10 5 0 7 5 4 10 -3 6 -8 10 -11 10 -2 0
-4 -4 -4 -10z"/>
<path d="M3775 7180 c-3 -5 -1 -10 4 -10 6 0 11 5 11 10 0 6 -2 10 -4 10 -3 0
-8 -4 -11 -10z"/>
<path d="M3532 7131 c4 -13 18 -16 19 -4 0 4 -5 9 -11 12 -7 2 -11 -2 -8 -8z"/>
<path d="M3397 6993 c-13 -13 -7 -21 13 -16 11 3 17 9 14 14 -6 11 -18 12 -27
2z"/>
<path d="M5027 6980 c-9 -11 -13 -20 -8 -20 4 0 16 9 26 20 10 11 14 20 9 20
-5 0 -17 -9 -27 -20z"/>
<path d="M2190 6311 c13 -11 29 -17 34 -14 11 8 -22 33 -43 33 -11 0 -9 -6 9
-19z"/>
<path d="M6571 5956 c-7 -8 -11 -23 -8 -33 3 -14 6 -12 16 11 13 33 9 43 -8
22z"/>
<path d="M1590 5851 c0 -11 5 -23 10 -26 6 -3 10 3 10 14 0 11 -4 23 -10 26
-5 3 -10 -3 -10 -14z"/>
<path d="M1400 5790 c0 -11 7 -20 15 -20 17 0 18 2 9 24 -9 23 -24 20 -24 -4z"/>
<path d="M7305 5499 c-4 -6 -5 -13 -2 -16 7 -7 27 6 27 18 0 12 -17 12 -25 -2z"/>
<path d="M1951 5484 c0 -11 3 -14 6 -6 3 7 2 16 -1 19 -3 4 -6 -2 -5 -13z"/>
<path d="M8300 5341 c0 -17 18 -21 24 -6 3 9 0 15 -9 15 -8 0 -15 -4 -15 -9z"/>
<path d="M8187 5334 c-10 -11 11 -41 33 -47 11 -3 20 -1 20 4 0 9 -15 13 -34
10 -5 -1 -6 7 -3 19 5 19 -3 27 -16 14z"/>
<path d="M8250 5271 c0 -6 4 -12 8 -15 5 -3 9 1 9 9 0 8 -4 15 -9 15 -4 0 -8
-4 -8 -9z"/>
<path d="M8185 5250 c-16 -18 -16 -20 -2 -20 9 0 21 9 27 20 6 11 7 20 2 20
-5 0 -17 -9 -27 -20z"/>
<path d="M8426 5153 c-6 -14 -5 -15 5 -6 7 7 10 15 7 18 -3 3 -9 -2 -12 -12z"/>
<path d="M8267 5123 c-10 -9 -9 -23 1 -23 5 0 9 7 9 15 0 17 -1 18 -10 8z"/>
<path d="M8045 5090 c3 -5 8 -10 11 -10 2 0 4 5 4 10 0 6 -5 10 -11 10 -5 0
-7 -4 -4 -10z"/>
<path d="M8170 5050 c0 -22 8 -25 30 -10 13 9 13 11 0 20 -22 15 -30 12 -30
-10z"/>
<path d="M8440 5049 c0 -13 41 -22 52 -11 6 6 -1 11 -21 14 -17 3 -31 1 -31
-3z"/>
<path d="M8115 4540 c3 -5 8 -10 11 -10 2 0 4 5 4 10 0 6 -5 10 -11 10 -5 0
-7 -4 -4 -10z"/>
<path d="M8285 4500 c-25 -27 -10 -39 16 -13 12 11 17 23 11 27 -5 3 -17 -3
-27 -14z"/>
<path d="M7926 4481 c-4 -5 -2 -12 3 -15 5 -4 12 -2 15 3 4 5 2 12 -3 15 -5 4
-12 2 -15 -3z"/>
<path d="M8240 4470 c0 -5 5 -10 11 -10 5 0 7 5 4 10 -3 6 -8 10 -11 10 -2 0
-4 -4 -4 -10z"/>
<path d="M8420 4431 c-12 -17 -17 -31 -11 -31 13 0 46 48 38 56 -2 3 -15 -9
-27 -25z"/>
<path d="M8291 4441 c-10 -6 -9 -10 3 -14 8 -3 18 -2 21 3 8 13 -9 20 -24 11z"/>
<path d="M8047 4405 c-8 -20 -4 -29 11 -24 5 2 6 13 2 23 -6 19 -7 19 -13 1z"/>
<path d="M7938 4386 c-25 -17 -40 -21 -52 -14 -10 6 -16 5 -16 -2 0 -17 29
-23 45 -10 18 15 19 15 38 -30 15 -34 15 -34 16 -8 1 15 -3 30 -9 33 -18 11
-10 34 13 37 13 2 18 6 11 10 -7 4 -27 -3 -46 -16z"/>
<path d="M8111 4344 c6 -8 18 -14 26 -14 20 0 8 16 -17 23 -17 4 -19 3 -9 -9z"/>
<path d="M8033 4303 c1 -18 7 -29 14 -26 6 2 14 -9 18 -26 8 -36 25 -51 25
-22 0 11 -12 37 -26 58 -34 50 -34 50 -31 16z"/>
<path d="M8080 4316 c-9 -12 -8 -15 8 -13 12 0 18 6 15 14 -6 16 -8 16 -23 -1z"/>
<path d="M7990 4275 c0 -9 6 -12 15 -9 8 4 12 10 9 15 -8 14 -24 10 -24 -6z"/>
<path d="M8236 4265 c7 -17 20 -20 28 -6 3 5 -1 12 -10 15 -22 9 -24 8 -18 -9z"/>
<path d="M7686 4255 c4 -8 8 -15 10 -15 2 0 4 7 4 15 0 8 -4 15 -10 15 -5 0
-7 -7 -4 -15z"/>
<path d="M7840 4240 c0 -5 5 -10 11 -10 5 0 7 5 4 10 -3 6 -8 10 -11 10 -2 0
-4 -4 -4 -10z"/>
<path d="M8150 4240 c0 -5 5 -10 10 -10 6 0 10 5 10 10 0 6 -4 10 -10 10 -5 0
-10 -4 -10 -10z"/>
<path d="M8000 4227 c0 -9 9 -21 20 -27 11 -6 20 -7 20 -2 0 5 -9 17 -20 27
-18 16 -20 16 -20 2z"/>
<path d="M2127 4183 c-13 -12 -7 -23 11 -23 10 0 19 7 19 15 0 15 -18 20 -30
8z"/>
<path d="M8034 4164 c-11 -5 -10 -56 1 -75 9 -14 25 -11 25 6 0 8 7 15 16 15
9 0 13 5 10 13 -3 6 -9 20 -12 30 -6 17 -18 20 -40 11z"/>
<path d="M7950 4150 c0 -5 5 -10 10 -10 6 0 10 5 10 10 0 6 -4 10 -10 10 -5 0
-10 -4 -10 -10z"/>
<path d="M8346 4081 c-4 -7 -5 -15 -2 -18 9 -9 19 4 14 18 -4 11 -6 11 -12 0z"/>
<path d="M1266 4026 l-49 -24 34 -7 c19 -4 42 -14 51 -22 20 -18 22 -15 32 45
7 39 -1 39 -68 8z"/>
<path d="M2622 4028 c-14 -14 -16 -28 -2 -28 5 0 14 9 20 20 12 22 1 27 -18 8z"/>
<path d="M2733 3904 c-4 -10 -2 -19 5 -22 6 -2 8 -11 5 -20 -6 -15 -3 -14 15
2 27 24 27 32 2 46 -16 9 -22 7 -27 -6z"/>
<path d="M552 3743 c3 -18 67 -57 77 -47 6 6 -59 63 -72 64 -5 0 -7 -8 -5 -17z"/>
<path d="M710 3647 c0 -8 6 -14 14 -14 8 0 12 6 9 14 -3 7 -9 13 -14 13 -5 0
-9 -6 -9 -13z"/>
<path d="M810 3620 c0 -5 5 -10 11 -10 5 0 7 5 4 10 -3 6 -8 10 -11 10 -2 0
-4 -4 -4 -10z"/>
<path d="M750 3605 c0 -8 -7 -15 -15 -15 -20 0 -19 -14 2 -48 24 -37 33 -42
63 -35 22 4 32 -2 58 -34 22 -28 28 -43 21 -50 -8 -8 0 -14 25 -23 64 -21 211
-101 217 -118 3 -9 12 -17 20 -17 8 0 14 -8 14 -17 0 -30 21 -42 44 -26 18 13
19 16 6 36 -9 12 -11 23 -6 27 13 8 90 -75 92 -100 1 -11 2 -27 3 -35 1 -8 10
-16 21 -19 25 -4 109 -59 155 -101 41 -37 79 -64 94 -66 6 -1 34 -11 62 -22
38 -16 54 -18 63 -9 8 8 23 0 59 -34 26 -25 71 -63 99 -83 29 -21 57 -45 62
-54 9 -15 11 -15 33 3 13 11 20 16 16 11 -23 -28 81 -124 120 -111 11 3 23 1
27 -5 3 -6 10 -8 15 -5 5 3 30 -20 56 -50 49 -57 76 -71 67 -35 -7 26 16 27
43 2 10 -10 35 -27 54 -38 19 -10 38 -24 42 -31 5 -6 16 -9 25 -7 20 5 58 -21
122 -85 33 -33 45 -40 52 -30 12 18 26 -2 35 -48 4 -24 12 -33 26 -33 10 0 16
-4 13 -10 -3 -5 1 -10 10 -10 9 0 21 -13 26 -30 7 -18 18 -30 29 -30 11 0 20
-10 24 -24 3 -14 15 -28 27 -31 28 -9 34 -1 14 19 -22 22 -10 36 30 36 27 0
41 -9 78 -50 25 -27 51 -50 57 -50 9 0 9 -4 -1 -16 -11 -14 -10 -18 6 -30 21
-15 35 -4 35 28 0 32 28 8 54 -47 19 -41 29 -52 43 -49 10 3 31 -6 47 -21 30
-26 56 -33 56 -14 0 13 54 3 90 -17 23 -13 21 -13 -32 -10 -32 3 -58 1 -58 -2
0 -18 120 -102 144 -102 15 0 25 4 21 9 -3 5 -1 12 4 15 5 3 19 -7 32 -24 22
-26 26 -28 45 -15 25 16 36 10 57 -31 12 -23 22 -31 39 -29 46 3 94 -27 173
-110 64 -65 90 -85 124 -95 24 -6 50 -9 57 -6 9 3 19 -4 26 -19 6 -14 15 -25
20 -25 5 0 7 -4 4 -9 -3 -5 0 -11 8 -14 9 -4 16 3 20 19 6 22 26 35 26 15 0
-4 12 -20 26 -35 18 -18 31 -23 38 -16 8 6 26 0 57 -20 24 -17 50 -28 57 -25
6 2 12 0 12 -5 0 -6 9 -10 20 -10 11 0 40 -18 64 -40 31 -29 50 -39 67 -36 13
2 31 0 39 -4 8 -5 33 -11 55 -14 21 -4 55 -16 74 -27 22 -13 37 -17 39 -10 3
8 9 8 23 1 15 -8 17 -7 13 4 -3 8 3 19 15 25 28 16 34 14 28 -10 -5 -18 -2
-20 19 -15 28 7 31 -5 8 -29 -12 -12 -14 -19 -6 -27 8 -8 24 -6 57 7 33 12 59
15 91 10 36 -5 44 -3 44 10 0 8 6 18 14 21 7 3 11 14 9 28 -7 34 25 43 37 11
9 -24 10 -24 40 -7 16 9 30 23 30 30 0 14 45 7 68 -11 9 -7 18 -4 33 9 25 22
38 25 112 24 37 0 56 3 52 9 -10 18 14 51 35 48 11 -2 23 -6 26 -10 12 -12 24
-8 18 7 -11 28 16 26 34 -3 18 -30 49 -30 37 0 -3 9 13 28 45 52 37 28 51 45
50 60 -4 42 -1 49 20 44 14 -3 24 1 31 15 11 20 11 20 30 -1 26 -28 41 -19 28
17 -5 15 -7 39 -5 52 2 14 5 27 5 30 1 2 12 -12 26 -33 29 -41 50 -47 60 -16
4 12 13 18 20 15 9 -3 12 0 8 10 -3 8 -16 17 -28 20 -25 6 -37 34 -24 55 6 11
19 2 54 -34 39 -40 49 -45 66 -37 24 13 27 70 3 70 -11 0 -14 8 -12 33 3 35
21 40 26 7 2 -11 9 -20 17 -20 21 0 25 -26 8 -50 -11 -16 -12 -25 -4 -33 8 -8
11 -8 11 1 0 6 13 18 30 27 36 19 40 19 40 0 0 -8 7 -15 16 -15 12 0 15 6 10
20 -20 67 -20 67 21 28 38 -37 68 -53 43 -23 -15 17 -7 19 21 5 15 -8 19 -7
19 4 0 8 -4 18 -10 21 -5 3 -10 20 -10 38 0 29 1 30 15 11 15 -18 16 -16 10
26 -4 35 -3 40 5 22 5 -13 17 -30 26 -39 14 -14 17 -14 31 -1 12 13 13 20 3
37 -17 33 -8 45 17 21 13 -11 20 -27 17 -35 -4 -8 -3 -23 0 -32 11 -28 31 3
27 42 -3 43 17 44 38 2 9 -18 17 -24 21 -17 5 8 14 5 28 -10 l21 -22 6 36 c4
20 12 40 19 44 25 16 77 29 82 21 3 -5 10 -9 15 -9 6 0 3 10 -5 22 -16 22 -22
58 -10 58 3 0 14 -10 24 -22 l18 -22 -2 29 c0 16 5 30 13 33 8 3 11 0 7 -6 -3
-6 1 -17 9 -25 8 -9 15 -22 15 -31 0 -8 5 -18 10 -21 6 -4 9 -3 8 2 -1 4 4 18
11 31 7 13 10 30 7 38 -4 10 -2 12 5 8 9 -5 10 6 5 39 -6 39 -5 46 8 41 26
-10 56 14 56 46 0 44 16 37 24 -10 3 -22 10 -40 15 -40 12 0 24 37 16 50 -11
17 64 4 86 -16 22 -19 22 -19 10 3 -25 48 -7 59 24 14 11 -17 21 -28 23 -26 2
2 -4 15 -14 30 -16 25 -16 29 -2 39 8 6 18 21 22 34 4 12 12 22 17 22 5 0 6
18 2 42 l-6 42 27 -17 c14 -10 31 -15 36 -12 6 3 10 1 10 -4 0 -6 4 -11 9 -11
6 0 9 18 7 39 -2 22 0 45 5 52 4 7 3 21 -2 31 -6 10 -12 35 -15 55 -2 21 -13
46 -24 58 -12 12 -16 25 -11 33 11 18 42 -31 46 -72 2 -17 8 -43 14 -58 11
-29 64 -68 92 -68 15 0 16 6 7 43 -13 57 -19 128 -11 140 10 17 52 -75 44 -98
-4 -11 -6 -26 -5 -32 1 -7 2 -19 3 -25 1 -9 4 -9 10 2 6 8 7 18 5 22 -8 13 11
9 25 -5 11 -10 12 -6 8 23 -5 26 -1 41 12 57 21 25 37 29 43 11 6 -16 58 -1
58 16 0 8 7 21 15 29 12 13 11 24 -10 92 -28 92 -14 84 39 -20 39 -77 47 -108
15 -58 -27 43 -33 42 -14 -3 8 -20 15 -38 15 -40 0 -2 11 -4 25 -4 30 0 32 16
5 50 -28 36 -24 56 5 23 l24 -28 -9 34 c-5 19 -7 37 -5 40 3 2 5 0 5 -5 0 -6
7 -19 15 -30 13 -16 14 -16 9 -2 -3 10 -1 18 5 18 6 0 11 -6 11 -13 0 -7 9
-18 20 -25 31 -19 34 4 12 92 -11 42 -17 76 -13 76 3 0 19 -23 34 -50 39 -69
50 -63 21 13 -30 74 -64 199 -57 210 12 21 26 3 38 -50 2 -10 18 -70 36 -133
23 -86 38 -120 55 -133 13 -10 24 -25 24 -33 0 -8 9 -14 19 -14 16 0 19 5 14
27 -5 26 -7 62 -4 91 2 18 19 15 24 -5 3 -11 5 -6 6 11 1 28 1 28 26 12 31
-20 31 -15 1 33 -13 20 -47 84 -76 140 l-51 103 31 -18 c37 -22 71 -72 95
-136 10 -27 23 -48 31 -48 7 0 15 -6 18 -12 3 -7 4 0 0 16 -3 18 0 32 7 37 10
6 10 13 0 35 -6 15 -15 45 -18 67 -4 32 -2 38 8 31 8 -5 30 -10 49 -11 63 -5
81 -9 90 -23 7 -12 10 -11 16 3 8 21 -16 54 -26 36 -10 -16 -30 -2 -30 20 0
10 -3 21 -7 25 -10 9 -17 64 -14 110 1 18 2 18 20 2 29 -26 33 -8 18 78 -1 5
3 10 9 13 13 4 41 -33 66 -89 14 -31 15 -37 2 -42 -8 -3 -14 -13 -14 -22 0
-12 6 -15 23 -10 12 4 37 9 54 13 27 4 32 10 31 29 -1 13 -8 24 -14 24 -16 0
-39 67 -35 100 4 35 18 46 26 21 8 -26 45 -49 45 -28 0 8 -9 22 -20 32 -11 10
-18 21 -15 24 2 4 0 13 -5 20 -4 8 -4 26 0 42 9 32 -13 49 -29 22 -7 -14 -13
-15 -34 -6 -20 9 -26 9 -31 -2 -2 -7 2 -19 10 -25 17 -15 19 -66 3 -76 -7 -4
-28 11 -51 35 -41 45 -56 48 -74 13 -24 -48 -56 -81 -72 -74 -15 5 -15 4 -3
-11 15 -19 8 -22 -19 -7 -13 7 -21 6 -30 -5 -11 -14 -15 -14 -31 1 -10 9 -27
14 -38 11 -11 -2 -29 1 -40 9 -17 13 -22 11 -41 -13 -13 -17 -19 -35 -16 -49
3 -12 1 -24 -4 -26 -13 -4 -16 -35 -6 -65 6 -20 4 -23 -21 -23 -16 0 -34 5
-40 11 -18 18 -40 3 -48 -31 -4 -17 -9 -29 -12 -27 -2 3 -18 1 -34 -3 -17 -5
-29 -5 -29 1 0 5 -5 9 -11 9 -7 0 -5 -10 5 -25 15 -22 15 -26 2 -31 -8 -3 -20
-3 -26 1 -6 3 -10 -4 -11 -17 -1 -13 -2 -27 -4 -33 -1 -5 -3 -18 -3 -28 -2
-14 -7 -17 -23 -12 -18 6 -20 5 -10 -14 8 -13 8 -21 2 -21 -6 0 -15 9 -21 20
-12 23 -30 18 -30 -8 0 -9 -5 -24 -10 -32 -8 -12 -13 -13 -30 -2 -16 10 -27 9
-56 -3 -20 -8 -49 -15 -65 -15 -16 0 -29 -4 -29 -10 0 -15 -26 -12 -40 4 -9
12 -18 13 -38 5 -18 -7 -28 -7 -30 0 -2 6 -8 11 -13 11 -11 0 -2 -44 18 -83 8
-15 11 -37 8 -47 -6 -18 -7 -18 -26 1 -16 16 -23 18 -35 9 -7 -7 -11 -16 -9
-21 3 -4 -4 -18 -17 -31 -13 -13 -21 -32 -20 -45 3 -20 1 -22 -20 -14 -35 13
-61 -4 -47 -30 15 -28 5 -34 -24 -14 -19 12 -26 13 -29 4 -2 -7 -26 15 -54 48
-55 69 -73 80 -49 31 l16 -33 -21 28 c-28 35 -37 34 -38 -4 0 -17 -5 -36 -11
-43 -6 -7 -8 -16 -4 -20 7 -7 14 -36 8 -36 -2 0 -15 4 -29 10 -32 12 -43 -4
-55 -79 -1 -3 -6 0 -13 7 -19 19 -27 15 -41 -20 -13 -33 -14 -33 -26 -10 -10
19 -15 21 -34 10 -12 -6 -24 -9 -27 -7 -3 2 -6 -9 -8 -25 -2 -18 -7 -25 -11
-17 -13 21 -41 1 -41 -29 0 -28 -1 -29 -27 -14 -34 17 -65 18 -81 2 -7 -7 -34
-13 -60 -13 -46 0 -47 -1 -44 -30 7 -79 11 -98 20 -104 15 -9 34 -62 26 -70
-4 -3 -8 -1 -10 4 -12 31 -46 75 -54 70 -5 -3 -17 -2 -27 3 -10 6 -28 6 -47 1
-17 -5 -45 -11 -61 -13 -36 -5 -87 -17 -98 -23 -4 -2 0 -14 8 -26 17 -25 19
-37 6 -37 -5 0 -13 9 -16 20 -3 11 -11 20 -17 20 -7 0 -6 -5 1 -14 8 -10 9
-16 1 -21 -5 -3 -10 -1 -10 4 0 6 -5 11 -11 11 -5 0 -8 -4 -4 -9 3 -5 0 -13
-6 -17 -6 -4 -16 1 -21 10 -11 19 -38 22 -38 3 0 -7 6 -22 14 -33 17 -23 10
-39 -19 -40 -61 -3 -111 -55 -105 -108 1 -11 -3 -15 -9 -12 -6 4 -11 13 -11
21 0 7 -11 16 -24 19 -13 3 -31 9 -39 12 -10 3 -18 -2 -22 -16 -5 -16 -10 -18
-20 -10 -9 7 -16 6 -25 -5 -8 -9 -29 -15 -57 -15 l-45 0 6 -32 c6 -30 5 -30
-12 -15 -26 24 -32 21 -22 -12 7 -27 6 -29 -26 -34 -19 -3 -56 -22 -83 -41
-48 -36 -87 -46 -129 -32 -18 6 -22 4 -22 -13 0 -11 5 -23 10 -26 6 -4 8 -11
4 -16 -4 -6 -11 -6 -20 2 -8 6 -16 10 -17 8 -2 -2 -11 -16 -20 -31 -14 -23
-21 -26 -40 -19 -15 6 -29 5 -41 -4 -15 -11 -21 -11 -37 3 -12 11 -33 15 -63
13 -36 -2 -45 1 -50 17 -4 11 -23 25 -46 32 -22 7 -40 16 -40 19 0 4 -11 8
-25 9 -19 1 -25 -3 -25 -17 0 -26 -10 -51 -21 -51 -5 0 -9 15 -9 34 0 38 -15
56 -22 28 -4 -14 -15 -17 -58 -16 -32 1 -56 7 -61 15 -13 20 -11 29 6 35 24
10 17 22 -12 26 -22 2 -34 14 -54 52 -29 54 -59 79 -59 50 0 -26 -14 -7 -18
24 -3 26 -24 49 -30 33 -3 -9 -63 -2 -78 11 -14 10 -77 14 -91 5 -6 -4 -15 5
-21 21 -5 15 -19 37 -30 50 -17 20 -24 22 -41 12 -14 -7 -21 -21 -21 -40 0
-38 -11 -38 -33 0 -17 29 -17 29 9 43 17 9 23 17 15 21 -6 4 -11 4 -11 1 0 -4
-14 3 -30 15 -21 15 -29 28 -25 39 4 14 -1 18 -22 19 -16 0 -54 10 -85 22 -44
16 -62 19 -77 11 -16 -9 -22 -8 -29 6 -8 14 -13 15 -26 4 -15 -13 -40 -6 -31
9 7 11 -58 20 -69 9 -6 -5 -21 16 -37 53 -30 67 -60 99 -69 74 -4 -11 -19 -5
-68 24 -91 55 -93 57 -81 88 5 15 12 33 15 41 3 11 8 10 24 -4 18 -16 40 -14
40 5 0 13 -55 40 -80 40 -22 0 -73 33 -64 42 6 7 -17 24 -45 33 -22 7 -23 5
-16 -27 9 -38 29 -71 38 -61 4 3 7 2 7 -3 0 -18 -41 -36 -55 -24 -9 7 -15 8
-19 1 -4 -6 -13 -8 -22 -4 -10 3 -11 9 -5 17 10 12 -5 95 -18 106 -4 3 -14 16
-22 30 -11 16 -33 30 -63 38 -63 16 -67 16 -62 -13 4 -22 2 -24 -25 -18 -25 5
-29 2 -29 -15 0 -31 16 -35 49 -11 34 25 50 19 49 -19 -1 -15 5 -38 11 -51 11
-19 10 -26 -5 -42 -17 -19 -18 -19 -28 6 -7 15 -32 37 -61 53 l-50 27 0 60 c0
33 3 63 8 66 4 3 9 14 11 25 3 14 -2 19 -20 20 -13 1 -24 -3 -24 -8 0 -6 -8
-7 -17 -3 -36 15 -67 13 -91 -6 -30 -23 -42 -17 -42 21 0 26 -9 54 -43 128
-14 30 -42 28 -68 -7 l-22 -30 -29 30 c-16 16 -38 29 -48 29 -11 0 -30 16 -45
37 -14 21 -25 32 -25 25 0 -25 -26 -10 -53 31 -24 35 -28 37 -23 16 7 -34 -20
-48 -40 -22 -10 15 -10 21 2 34 16 18 7 34 -11 19 -18 -15 -41 -2 -60 33 -16
31 -16 31 -10 5 4 -23 2 -28 -14 -28 -10 0 -24 7 -31 15 -19 23 -31 18 -20
-10 11 -30 1 -37 -41 -30 -43 8 -47 11 -122 82 -64 61 -70 73 -36 73 21 0 19
22 -4 48 -22 25 -126 77 -135 68 -7 -8 19 -27 29 -21 16 10 49 -43 53 -86 8
-79 -24 -91 -57 -22 -32 70 -62 93 -114 89 -23 -2 -44 -2 -46 1 -2 2 -1 23 4
46 9 54 -5 76 -31 45 -14 -18 -15 -28 -7 -60 7 -27 6 -43 -1 -50 -15 -15 -30
-2 -52 48 -12 25 -25 42 -31 38 -14 -8 -45 21 -91 89 -40 60 -65 76 -48 32 9
-23 -2 -45 -14 -26 -9 14 -68 22 -82 10 -17 -14 -35 -3 -27 16 8 22 -4 45 -21
39 -8 -3 -12 -12 -9 -20 12 -33 -23 -9 -104 71 -47 46 -90 82 -95 79 -15 -9
-9 -28 17 -50 14 -11 26 -31 27 -44 2 -18 -3 -24 -24 -27 -34 -5 -39 5 -44 80
-5 72 -31 110 -58 88 -9 -7 -15 -16 -14 -19 3 -28 -4 -31 -37 -15 -20 9 -34
22 -31 29 4 12 -23 44 -37 44 -4 0 -7 -7 -7 -15z m345 -225 c3 -5 1 -10 -4
-10 -6 0 -11 5 -11 10 0 6 2 10 4 10 3 0 8 -4 11 -10z m525 -281 c8 -5 10 -9
3 -9 -6 0 -9 -9 -6 -22 5 -21 3 -21 -22 6 -26 26 -29 27 -38 10 -10 -17 -11
-17 -17 1 -4 11 -5 24 -3 28 5 9 59 0 83 -14z m480 -169 c0 -5 3 -17 7 -27 6
-16 5 -16 -11 -4 -9 8 -21 22 -26 32 -8 14 -6 16 10 12 11 -3 20 -9 20 -13z
m-120 -116 c0 -2 -7 -4 -15 -4 -8 0 -15 4 -15 10 0 5 7 7 15 4 8 -4 15 -8 15
-10z m246 -109 c-4 -38 -16 -43 -16 -7 0 18 4 32 9 32 5 0 8 -11 7 -25z m5254
-45 c14 -27 18 -49 14 -67 -11 -45 -16 -47 -30 -14 -21 51 -26 121 -8 121 2 0
13 -18 24 -40z m-5230 -8 c0 -13 -12 -22 -22 -16 -10 6 -1 24 13 24 5 0 9 -4
9 -8z m848 -350 c2 -7 -2 -10 -12 -6 -9 3 -16 11 -16 16 0 13 23 5 28 -10z
m-25 -179 c-7 -2 -13 -11 -13 -19 0 -21 -17 -17 -23 6 -4 16 0 20 21 19 15 0
21 -3 15 -6z m262 -42 c10 -17 -12 -21 -25 -6 -10 12 -10 15 3 15 9 0 18 -4
22 -9z m590 -191 c8 -13 -15 -13 -35 0 -12 8 -11 10 7 10 12 0 25 -4 28 -10z
m-361 -59 c3 -5 -1 -12 -10 -15 -22 -9 -24 -8 -24 9 0 16 25 21 34 6z m56 -12
c0 -6 -4 -7 -10 -4 -5 3 -10 11 -10 16 0 6 5 7 10 4 6 -3 10 -11 10 -16z m374
-8 c15 -16 15 -20 1 -31 -12 -10 -16 -8 -25 15 -5 14 -10 28 -10 31 0 10 18 2
34 -15z m266 -121 c8 -15 8 -20 -3 -20 -14 0 -37 19 -37 32 0 16 30 7 40 -12z
m383 -146 c9 -10 -4 -34 -18 -34 -20 0 -30 21 -14 31 17 10 24 11 32 3z m-333
-141 c0 -5 -5 -15 -10 -23 -8 -12 -10 -11 -10 8 0 12 5 22 10 22 6 0 10 -3 10
-7z m420 -38 c0 -8 -2 -15 -4 -15 -2 0 -6 7 -10 15 -3 8 -1 15 4 15 6 0 10 -7
10 -15z"/>
<path d="M3443 3579 c-10 -26 -10 -30 5 -27 10 2 17 14 17 31 2 36 -8 34 -22
-4z"/>
<path d="M7513 3540 c-13 -5 -23 -12 -23 -15 0 -9 40 1 52 13 14 14 2 15 -29
2z"/>
<path d="M1999 3519 c-6 -31 -5 -40 8 -51 8 -6 29 -11 45 -10 17 1 37 -3 44
-9 9 -7 14 -8 14 -1 0 11 -57 62 -70 62 -5 0 -15 3 -24 6 -9 3 -16 5 -17 3z"/>
<path d="M8140 3511 c0 -5 5 -13 10 -16 6 -3 10 -2 10 4 0 5 -4 13 -10 16 -5
3 -10 2 -10 -4z"/>
<path d="M7337 3503 c-8 -7 11 -33 23 -33 5 0 6 9 3 20 -5 20 -15 25 -26 13z"/>
<path d="M3686 3463 c-6 -14 -5 -15 5 -6 7 7 10 15 7 18 -3 3 -9 -2 -12 -12z"/>
<path d="M7136 3450 c8 -31 24 -50 24 -29 0 8 -7 24 -16 35 -14 18 -15 18 -8
-6z"/>
<path d="M7960 3451 c0 -11 4 -21 9 -21 18 0 21 18 6 30 -13 10 -15 9 -15 -9z"/>
<path d="M8205 3450 c3 -5 8 -10 11 -10 2 0 4 5 4 10 0 6 -5 10 -11 10 -5 0
-7 -4 -4 -10z"/>
<path d="M8327 3426 c-20 -30 -21 -36 -4 -36 17 0 37 34 28 49 -6 9 -13 5 -24
-13z"/>
<path d="M8006 3355 c-3 -8 -12 -15 -19 -15 -17 0 -18 -27 -1 -34 7 -3 15 -18
19 -35 7 -33 25 -52 25 -27 0 21 -21 66 -31 66 -5 0 -6 6 -3 14 3 8 12 12 19
10 18 -7 25 9 10 23 -10 10 -14 9 -19 -2z"/>
<path d="M7914 3318 c-4 -6 -3 -8 4 -4 5 3 12 1 14 -6 2 -6 10 -8 16 -4 7 4
10 12 7 17 -8 13 -32 11 -41 -3z"/>
<path d="M1496 3305 c4 -8 8 -15 10 -15 2 0 4 7 4 15 0 8 -4 15 -10 15 -5 0
-7 -7 -4 -15z"/>
<path d="M8170 3261 c6 -12 17 -21 25 -21 21 0 19 5 -11 25 -25 16 -25 16 -14
-4z"/>
<path d="M7940 3264 c0 -14 23 -45 41 -54 19 -11 19 -9 -3 24 -21 32 -38 46
-38 30z"/>
<path d="M8085 3240 c-3 -5 1 -10 9 -10 9 0 16 5 16 10 0 6 -4 10 -9 10 -6 0
-13 -4 -16 -10z"/>
<path d="M7751 3224 c0 -11 3 -14 6 -6 3 7 2 16 -1 19 -3 4 -6 -2 -5 -13z"/>
<path d="M1810 3200 c0 -5 7 -10 16 -10 8 0 12 5 9 10 -3 6 -10 10 -16 10 -5
0 -9 -4 -9 -10z"/>
<path d="M1679 3180 c13 -11 31 -20 40 -20 9 0 3 8 -17 20 -41 25 -54 25 -23
0z"/>
<path d="M7910 3176 c0 -9 5 -16 10 -16 6 0 10 4 10 9 0 6 -4 13 -10 16 -5 3
-10 -1 -10 -9z"/>
<path d="M7991 3171 c-15 -10 -5 -75 14 -91 10 -8 15 -6 20 9 3 12 11 21 16
21 10 0 -15 55 -29 64 -4 2 -14 1 -21 -3z"/>
<path d="M7550 3140 c0 -5 5 -10 10 -10 6 0 10 5 10 10 0 6 -4 10 -10 10 -5 0
-10 -4 -10 -10z"/>
<path d="M1905 3060 c-3 -5 -2 -10 4 -10 5 0 13 5 16 10 3 6 2 10 -4 10 -5 0
-13 -4 -16 -10z"/>
<path d="M3130 3015 c-10 -12 -10 -15 4 -15 9 0 16 7 16 15 0 8 -2 15 -4 15
-2 0 -9 -7 -16 -15z"/>
<path d="M6480 2974 c0 -16 23 -44 36 -44 12 0 12 4 -2 25 -15 23 -34 34 -34
19z"/>
<path d="M7720 2960 c0 -5 5 -10 11 -10 5 0 7 5 4 10 -3 6 -8 10 -11 10 -2 0
-4 -4 -4 -10z"/>
<path d="M7160 2946 c0 -2 7 -9 15 -16 13 -11 14 -10 9 4 -5 14 -24 23 -24 12z"/>
<path d="M7796 2825 c4 -8 8 -15 10 -15 2 0 4 7 4 15 0 8 -4 15 -10 15 -5 0
-7 -7 -4 -15z"/>
<path d="M7394 2518 c5 -24 18 -48 26 -48 12 0 -4 53 -17 57 -6 2 -10 -2 -9
-9z"/>
<path d="M4017 2354 c4 -11 25 -17 46 -14 1 1 32 -10 70 -24 37 -14 67 -22 67
-18 0 14 -16 30 -50 51 -41 25 -75 28 -67 7 5 -13 1 -13 -33 -1 -34 12 -38 12
-33 -1z"/>
<path d="M4232 2358 c3 -7 19 -18 37 -25 23 -10 32 -10 29 -2 -2 6 -18 17 -37
25 -23 10 -31 10 -29 2z"/>
<path d="M4205 2231 c-3 -6 9 -14 27 -19 35 -10 60 -4 37 8 -29 16 -58 20 -64
11z"/>
<path d="M3424 2181 c3 -5 15 -11 26 -14 17 -4 19 -3 9 9 -12 15 -44 20 -35 5z"/>
<path d="M4466 2124 c-8 -22 -9 -21 14 -27 23 -6 25 1 6 26 -12 16 -14 16 -20
1z"/>
<path d="M6630 2043 c0 -13 11 -30 25 -39 37 -24 39 -13 5 26 -27 32 -30 33
-30 13z"/>
<path d="M3855 2000 c3 -5 8 -10 11 -10 2 0 4 5 4 10 0 6 -5 10 -11 10 -5 0
-7 -4 -4 -10z"/>
</g>
</svg>
