<?xml version="1.0" encoding="UTF-8" standalone="no"?>
<!DOCTYPE svg PUBLIC "-//W3C//DTD SVG 1.1//EN" "http://www.w3.org/Graphics/SVG/1.1/DTD/svg11.dtd">
<svg version="1.1" xmlns="http://www.w3.org/2000/svg" xmlns:xlink="http://www.w3.org/1999/xlink" preserveAspectRatio="xMidYMid meet" width="300" height="181.87" viewBox="0 0 300 181.87"><defs><path d="M160.04 3.71C159.1 4.32 157.3 5.32 156.01 5.96C154.72 6.61 152.82 7.96 151.73 8.99C150.67 9.99 148.9 11.34 147.8 12.02C144.61 13.92 141.56 17.88 140.27 21.84C139.69 23.57 139.17 24.38 137.43 26.15C134.86 28.82 134.41 29.08 130.7 29.89C127.52 30.59 126.58 30.98 123.75 32.91C121.43 34.49 115.7 36.52 112.19 37.03C112.02 37.06 111.17 37.19 109.65 37.42C108.14 38.89 107.3 39.7 107.14 39.87C105.65 41.32 104.53 42.7 104.37 43.25C104.17 44.05 104.56 49.27 105.08 52.75C105.2 53.45 105.62 54.13 106.27 54.68C108.94 56.93 110.19 58.25 109.61 58.25C109.33 58.25 108.46 57.7 107.68 57C105.98 55.45 105.17 55.03 103.95 55.03C102.79 55.03 102.63 55.61 103.56 56.45C104.14 56.96 104.14 57.03 103.37 58.99C102.92 60.09 102.15 61.41 101.63 61.92C100.79 62.82 100.7 62.82 100.5 62.28C100.37 61.92 100.5 60.47 100.79 59.02C101.69 54.71 101.4 53.78 99.47 54.74C98.99 54.97 98.47 55.22 98.35 55.29C98.22 55.35 98.57 54.74 99.12 53.9C99.96 52.65 100.21 51.91 100.41 49.91C100.54 48.56 100.73 46.56 100.86 45.47C101.21 42.57 100.95 41.89 99.18 41.12C97.38 40.32 95.58 40.48 91.62 41.7C88.43 42.73 86.11 43.86 84.69 45.08C84.11 45.6 82.83 46.5 81.86 47.11C80.89 47.75 79.93 48.56 79.7 48.91C79.48 49.3 78 50.56 76.45 51.68C74.91 52.84 72.65 54.71 71.46 55.8C68.14 58.96 67.37 59.25 61.8 59.6C56.2 59.96 54.85 60.28 53.82 61.37C53.2 62.05 53.04 62.57 53.04 63.98C53.04 65.33 52.75 66.36 51.85 68.36C50.79 70.68 50.63 71.36 50.47 74.25C50.34 76.89 50.18 77.67 49.73 78.12C49.15 78.66 49.12 78.66 49.31 77.41C49.82 73.48 49.86 71.58 49.37 68.94C49.12 67.39 48.79 65.62 48.7 64.98C48.5 63.66 46.44 61.08 44.96 60.34C43.58 59.6 42.61 59.76 40.07 61.02C38.81 61.66 36.98 62.47 36.04 62.79C33.69 63.6 32.6 64.46 31.76 66.17C31.15 67.46 31.08 67.94 31.31 69.94C31.44 71.23 31.57 72.64 31.57 73.09C31.57 74.35 30.34 75.86 28.57 76.76C26.54 77.79 25.77 78.82 25.32 81.11C24.87 83.43 23.81 85.33 22.68 85.88C22.2 86.1 20.17 86.58 18.21 86.91C12.44 87.87 10.54 88.74 10.54 90.42C10.54 90.87 10.77 92.19 11.06 93.35C11.7 96.02 11.25 97.63 9.61 98.72C8.64 99.37 8.13 99.46 5.26 99.46C2.56 99.46 1.82 99.59 0.95 100.11C0.34 100.46 -0.08 100.94 0.01 101.17C0.43 102.43 4.75 103.65 9.09 103.68C11.67 103.75 11.73 103.71 15.05 101.94C16.92 100.98 19.78 99.56 21.43 98.82C24.39 97.5 24.48 97.47 30.54 97.05C33.89 96.79 36.75 96.53 36.91 96.44C37.07 96.34 38.84 96.11 40.84 95.92C42.87 95.76 45.7 95.31 47.18 94.96C50.37 94.18 51.95 94.15 54.14 94.76C55.04 95.02 56.59 95.41 57.58 95.6C60 96.05 62.38 98.18 64.38 101.62C65.7 103.87 66.63 104.87 72.88 110.57C76.77 114.08 80.86 117.98 82.02 119.17C83.82 121.07 84.4 121.45 86.21 122.03C88.33 122.71 92.68 123.42 98.02 123.96C99.67 124.13 101.31 124.38 101.73 124.54C102.15 124.71 103.75 125.86 105.33 127.12C107.55 128.83 109.87 130.18 115.06 132.75C115.51 132.98 117.79 134.11 121.88 136.14C124.1 138.32 125.34 139.53 125.58 139.77C128.48 142.64 129.71 144.12 131.28 146.73C132.38 148.56 133.76 150.4 134.31 150.82C134.95 151.3 136.5 151.88 138.24 152.27C140.85 152.88 141.36 153.1 143.52 154.84C144.84 155.9 146.87 157.26 148.03 157.87C150.34 159.09 151.09 159.83 153.24 162.89C154.05 164.05 155.05 165.27 155.43 165.63C155.82 165.98 156.98 167.5 158.04 169.01C160.46 172.52 162.16 174.13 166.7 177.22C168.73 178.6 170.98 180.25 171.66 180.86C172.92 181.95 172.92 181.98 175.17 181.76C178.04 181.5 179.64 180.76 181.67 178.76C183.96 176.54 185.02 176.32 191.98 176.25C197.35 176.22 197.97 176.16 200.38 175.35C201.83 174.87 204.12 173.77 205.44 172.87C206.79 172 209.01 170.68 210.39 169.94C211.78 169.17 213.97 167.85 215.26 166.98C218.15 165.02 219.76 164.4 224.14 163.57C228.17 162.79 229.52 162.12 233.38 158.87C240.95 152.52 242.46 150.17 241.4 146.5C241.14 145.57 241.24 145.09 242.04 143.22C242.59 142.03 243.01 140.68 243.01 140.22C243.01 139.77 242.43 138.32 241.72 136.97C240.27 134.24 240.18 133.43 241.05 131.72C242.11 129.6 243.59 124.48 243.81 122C244.1 118.94 244.88 117.17 246.81 115.11C247.65 114.21 249.39 112.08 250.64 110.41C251.86 108.74 253.31 106.96 253.83 106.48C255.25 105.16 261.97 101.43 263.26 101.23C263.91 101.14 265.45 100.85 266.68 100.56C269.48 99.95 275.3 99.46 279.2 99.5C282.45 99.56 283.45 99.24 284.9 97.63C285.67 96.79 285.77 96.44 285.93 93.28C286.06 90.9 286.32 89.39 286.73 88.42C287.28 87.2 287.6 86.94 289.73 85.97C295.49 83.4 298.1 82.01 298.52 81.34C299.1 80.43 300 76.99 300 75.64C300 73.16 296.88 69.39 294.04 68.46C290.98 67.43 289.7 67.43 287.41 68.39C284 69.84 282.55 70.07 281.04 69.36C280.33 69.04 279.49 68.52 279.2 68.2C278.72 67.65 278.75 67.65 280.23 68.1C283.55 69.1 284.93 68.46 285.32 65.75C285.67 63.08 285.51 62.05 284.35 59.47C283.42 57.38 283.22 56.67 283.39 55.58C283.48 54.84 283.64 52.91 283.77 51.26C283.79 51.07 283.86 50.08 284 48.3C282.66 46.97 281.92 46.23 281.78 46.08C280.42 44.76 278.85 43.54 277.78 43.05C276.08 42.25 270.83 41.19 266.22 40.7C264.2 40.51 260.65 39.38 258.46 38.29C257.82 37.97 256.24 36.58 254.92 35.23C252.67 32.94 252.35 32.75 249.87 31.95C246.91 31.04 246.58 31.04 238.7 32.01C234.54 32.53 233.87 32.53 229.52 32.04C226.91 31.78 224.17 31.33 223.4 31.04C222.63 30.79 221.53 30.56 220.99 30.56C219.25 30.56 216.74 32.07 214.9 34.2C212.23 37.36 210.88 38.51 208.98 39.29C208.86 39.33 208.27 39.57 207.21 40L205.89 39.35L204.53 38.71C205.48 38.69 206.01 38.68 206.11 38.68C208.08 38.61 208.88 38.1 212.45 34.55C216.83 30.24 217.12 28.24 213.45 27.89C211.97 27.76 211.1 27.47 209.65 26.54C206.85 24.73 203.41 23.16 202.28 23.16C201.35 23.16 201.31 23.09 201.31 21.77C201.28 19.9 200.51 18.87 197.58 16.97C195.29 15.49 195 15.17 194.52 13.75C193.78 11.53 192.49 10.15 190.62 9.6C189.11 9.18 188.27 8.51 184.44 4.42C182.03 1.81 177.91 0.91 175.11 2.36C174.49 2.71 173.72 3.74 172.69 5.67C172.59 5.86 172.08 6.81 171.18 8.51C171.29 7.44 171.36 6.85 171.37 6.74C172.08 0.2 172.05 -0.06 169.66 0.01C168.83 0.04 167.6 0.17 166.96 0.33C165.54 0.65 162.42 2.16 160.04 3.71ZM170.95 2.58C170.92 2.68 170.79 4.42 170.6 6.45C170.44 8.47 169.99 10.92 169.66 11.89C169.31 12.85 168.86 14.88 168.63 16.39C168.61 16.58 168.47 17.49 168.21 19.13C168.81 20.52 169.15 21.3 169.21 21.45C169.76 22.71 170.31 24.44 170.4 25.31C170.76 27.86 171.24 29.02 172.56 30.63C174.17 32.56 176.36 36.78 176.36 37.9C176.36 38.39 175.85 40.22 175.2 41.99C172.88 48.59 172.14 51.33 171.82 54.68C171.4 58.99 171.82 61.92 172.75 61.34C172.95 61.25 173.01 60.02 172.92 58.35C172.75 55.74 172.85 55.22 173.88 51.97C175.2 47.82 177.13 43.54 178.74 41.15C179.39 40.19 179.9 39.19 179.9 38.93C179.87 38.13 178.42 34.78 177.49 33.43C176.81 32.49 176.59 31.69 176.46 30.01C176.33 28.31 175.94 27.08 174.72 24.41C173.27 21.26 173.14 20.81 173.14 18.52C173.14 16.88 172.92 15.24 172.46 13.75C171.6 10.89 171.76 9.47 173.46 6.09C174.91 3.23 175.78 2.55 178.07 2.55C180.45 2.55 182.48 3.45 184.09 5.25C187.4 8.96 188.47 9.83 189.95 10.25C191.75 10.76 192.91 11.89 193.59 13.82C194.2 15.53 195.1 16.56 196.71 17.39C197.35 17.71 198.48 18.55 199.22 19.23C200.35 20.32 200.51 20.64 200.51 21.9C200.51 22.71 200.28 23.67 199.99 24.06C199.7 24.48 198.77 26.25 197.9 28.05C196.77 30.27 196.39 31.4 196.61 31.62C197.39 32.4 199.51 29.47 200.41 26.34C200.99 24.35 201.06 24.28 202.18 24.19C203.41 24.09 205.82 25.12 209.65 27.47C211.17 28.37 211.91 28.63 213.13 28.63C216.12 28.63 215.67 30.37 211.68 34.2C208.01 37.74 207.37 38.1 205.18 37.84C204.24 37.74 203.41 37.74 203.31 37.84C202.6 38.55 205.53 40.54 207.3 40.54C209.36 40.54 211.55 39.13 214.64 35.75C218.35 31.72 219.8 30.98 222.44 31.72C224.21 32.2 226.04 32.49 231.23 33.14C234.25 33.52 236.67 33.33 242.88 32.27C245.36 31.85 246.1 31.82 247.55 32.17C251.35 33.07 252.51 33.68 254.44 35.91C255.44 37.03 256.89 38.32 257.6 38.74C259.85 40.03 264.26 41.41 267 41.67C270.73 41.99 275.63 42.99 277.33 43.73C279.43 44.66 282.87 48.08 283.13 49.46C283.26 50.07 283.1 51.84 282.81 53.42C282.23 56.64 282.29 57.28 283.61 59.93C285.03 62.73 284.87 67.23 283.35 67.72C283.03 67.81 281.97 67.65 281 67.39C277.56 66.4 276.69 66.78 278.46 68.52C280.78 70.87 283.1 71.16 286.7 69.58C289.28 68.43 290.73 68.33 293.17 69.04C295.01 69.58 296.68 70.9 298.13 72.87C298.81 73.8 299.03 74.48 299.03 75.61C299.03 77.31 298.29 80.27 297.71 80.98C297.23 81.59 294.04 83.2 290.53 84.65C289.15 85.23 287.54 86.13 286.96 86.65C286.03 87.45 285.83 87.9 285.35 90.45C285.06 92.19 284.9 93.93 285.03 94.73C285.22 95.95 285.12 96.21 284.32 97.02C282.84 98.53 281.84 98.75 277.14 98.79C272.28 98.82 269.48 99.11 264.74 100.11C262.2 100.65 260.91 101.14 258.63 102.43C254.05 105.03 252.73 106.13 250.29 109.41C249.03 111.12 247.26 113.34 246.33 114.34C244.01 116.85 243.4 118.23 243.04 121.58C242.72 124.51 241.66 128.34 240.27 131.47C239.82 132.46 239.47 133.53 239.47 133.78C239.47 134.07 240.14 135.65 240.95 137.29C241.05 137.49 241.54 138.48 242.43 140.26C241.83 141.61 241.5 142.36 241.43 142.51C240.53 144.6 240.47 144.99 240.63 147.18C240.82 149.21 240.76 149.72 240.18 150.82C239.31 152.43 237.6 154.29 235.12 156.32C234.06 157.19 232.48 158.51 231.58 159.28C229.33 161.28 227.46 162.15 224.05 162.73C220.05 163.41 217.57 164.37 214.68 166.3C213.36 167.21 210.81 168.75 209.04 169.78C207.27 170.81 205.02 172.13 204.05 172.74C203.08 173.36 201.12 174.22 199.67 174.64C197.39 175.35 196.52 175.45 191.78 175.45C185.02 175.45 183.86 175.77 181.03 178.31C178.81 180.34 177.36 180.92 174.49 180.92C173.11 180.92 172.72 180.76 171.5 179.7C170.73 179.02 169.37 177.99 168.47 177.38C167.6 176.8 166.03 175.74 164.96 175.03C162.58 173.45 160.62 171.42 158.65 168.53C157.81 167.27 156.43 165.5 155.59 164.53C154.76 163.57 153.53 161.93 152.82 160.93C151.54 159.03 150.67 158.25 148.67 157.35C147.64 156.9 145.19 155.16 142.68 153.07C142.1 152.59 140.65 152.01 138.98 151.59C134.92 150.59 134.34 150.24 132.93 147.79C130.41 143.57 128.35 141 125.07 138.07C122.01 135.33 121.33 134.91 115.02 131.79C109.74 129.18 107.65 127.96 105.46 126.19C102.4 123.71 102.85 123.87 95.87 122.81C94 122.55 92.07 122.32 91.58 122.32C91.1 122.32 89.43 122 87.88 121.61C87.69 121.57 86.76 121.34 85.08 120.94C83.15 119.08 82.08 118.05 81.86 117.85C76.9 113.05 70.53 107.19 68.59 105.58C67.37 104.58 66.28 103.23 65.02 101.07C62.99 97.72 60.71 95.53 58.61 94.99C51.69 93.18 51.43 93.18 47.22 94.09C45.19 94.54 42.32 94.99 40.84 95.08C39.33 95.21 37.52 95.44 36.82 95.6C36.08 95.73 33.11 96.02 30.18 96.24C27.25 96.44 24.36 96.76 23.74 96.95C23.13 97.11 20.01 98.56 16.79 100.14C10.48 103.26 10.19 103.33 6.03 102.68C3.68 102.33 1.21 101.49 1.21 101.07C1.21 100.46 2.14 100.3 5.39 100.27C8.16 100.24 9.03 100.11 9.87 99.62C12.02 98.37 12.57 96.05 11.67 92.28C11.44 91.22 11.32 90.19 11.38 89.96C11.7 89.13 15.69 88 20.43 87.39C23.52 87 25.06 85.43 26 81.79C26.67 79.11 27.12 78.53 29.28 77.34C30.99 76.41 32.44 74.48 32.44 73.13C32.44 72.61 32.28 71.39 32.08 70.39C31.41 67.07 32.92 64.69 36.37 63.56C37.3 63.24 39.17 62.44 40.52 61.73C42.87 60.5 43 60.47 44.06 60.92C44.67 61.18 45.77 62.02 46.51 62.82C47.67 64.08 47.86 64.56 48.05 66.17C48.15 67.23 48.41 68.78 48.6 69.65C48.92 71.19 48.83 75.22 48.34 78.66C48.15 80.05 48.18 80.21 48.7 80.11C49.02 80.05 49.73 79.44 50.27 78.76C51.21 77.57 51.27 77.38 51.3 74.57C51.3 71.87 51.4 71.39 52.5 68.97C53.33 67.17 53.75 65.69 53.85 64.3C53.95 62.95 54.2 62.08 54.59 61.73C55.3 61.02 57.42 60.63 62.54 60.34C67.4 60.05 68.88 59.44 72.1 56.42C73.39 55.19 75.32 53.55 76.39 52.78C77.45 52 79.12 50.65 80.12 49.75C85.89 44.47 91.52 41.7 96.57 41.67C100.41 41.67 100.47 41.83 99.83 48.46C99.47 52.23 99.25 52.71 95.64 57.03C93 60.18 92 61.7 92 62.5C92 63.63 93 63.05 94.51 61.08C97.44 57.22 99.99 54.84 100.54 55.42C100.6 55.48 100.44 56.48 100.18 57.61C99.92 58.77 99.73 60.47 99.79 61.47C99.89 63.05 99.99 63.24 100.63 63.34C101.63 63.5 103.34 61.66 103.88 59.86C104.11 59.09 104.53 58.12 104.79 57.7C105.17 57.09 105.2 56.87 104.88 56.48C104.01 55.42 105.3 56.03 106.91 57.45C108.62 58.93 110.16 59.54 110.77 58.93C111.32 58.38 110.42 57.09 108.23 55.29C107.1 54.39 106.11 53.42 106.01 53.13C105.78 52.52 105.14 45.98 105.17 44.47C105.2 43.09 105.46 42.64 107.84 40.28C109.87 38.32 109.94 38.29 112.61 37.81C116.51 37.13 121.59 35.29 124.1 33.65C127.26 31.62 127.9 31.37 131.22 30.59C135.02 29.76 135.53 29.47 137.92 26.96C140.07 24.73 140.69 23.74 141.27 21.55C142.04 18.58 145.58 14.21 148.61 12.5C149.57 11.92 151.25 10.66 152.34 9.63C153.4 8.6 155.24 7.32 156.4 6.74C157.56 6.16 159.26 5.19 160.17 4.61C162.13 3.36 165.54 1.58 166.7 1.23C167.15 1.1 168.28 0.97 169.21 0.97C170.73 0.94 170.89 1 170.92 1.65C170.95 2.07 170.95 2.49 170.95 2.58ZM172.5 19.23C172.5 21.45 172.63 21.93 173.95 24.8C175.07 27.18 175.46 28.4 175.59 30.11C175.75 31.85 176.01 32.69 176.81 33.94C177.94 35.68 178.94 38 178.94 38.84C178.94 39.13 178.36 40.25 177.68 41.32C176.97 42.41 175.94 44.34 175.36 45.66C174.78 46.98 174.24 47.88 174.17 47.69C174.14 47.53 174.3 46.82 174.59 46.11C175.88 43.18 177 39.35 177 38C177 36.13 175.72 33.36 173.5 30.46C172.01 28.57 171.76 27.99 171.37 25.8C171.14 24.44 170.57 22.51 170.11 21.55C169.66 20.58 169.28 19.26 169.28 18.58C169.28 17.1 170.05 12.98 170.6 11.73C170.63 11.66 170.76 11.34 171.02 10.76C171.09 11.34 171.14 11.66 171.14 11.73C171.21 12.24 171.53 13.63 171.89 14.75C172.24 15.98 172.5 17.75 172.5 19.23Z" id="da9xbLrzHA"></path></defs><g visibility="visible"><g visibility="visible"><g><use xlink:href="#da9xbLrzHA" opacity="1" fill="#000000" fill-opacity="1"></use><g><use xlink:href="#da9xbLrzHA" opacity="1" fill-opacity="0" stroke="#000000" stroke-width="1" stroke-opacity="0"></use></g></g></g></g></svg>