<svg id="Layer_1" data-name="Layer 1" xmlns="http://www.w3.org/2000/svg" viewBox="0 0 532.9 104.14"><defs><style>.cls-1{fill:#70706f;}.cls-2{fill:#39a8e0;}</style></defs><title>IWKPA_Logo1b</title><path class="cls-1" d="M211.76,200h-10V123.57h10Z" transform="translate(-26.38 -113.45)"/><path class="cls-1" d="M229.5,123.57h8.31a3.36,3.36,0,0,1,3.4,2.45l15.27,53.15q.4,1.44.75,3.09c.22,1.11.43,2.26.64,3.47.24-1.21.48-2.37.72-3.49a28.12,28.12,0,0,1,.83-3.07L276.8,126a4,4,0,0,1,1.21-1.68,3.27,3.27,0,0,1,2.19-.77h2.89a3.34,3.34,0,0,1,2.19.69A3.9,3.9,0,0,1,286.5,126l17.27,53.15a53.27,53.27,0,0,1,1.65,6.35c.21-1.17.4-2.3.57-3.36a24,24,0,0,1,.67-3L322,126a3.47,3.47,0,0,1,3.35-2.45h7.79L310.06,200h-9l-18.72-58.32a32.65,32.65,0,0,1-1-3.84c-.17.71-.34,1.4-.49,2s-.32,1.26-.49,1.79L261.53,200h-9Z" transform="translate(-26.38 -113.45)"/><path class="cls-2" d="M363.71,154.68h2.78q3.87,0,5.57-2.46L389,127.32a7.21,7.21,0,0,1,3.17-2.77,11.45,11.45,0,0,1,4.36-.74h15.16l-22.28,30.82a15.44,15.44,0,0,1-2.47,2.77,16.08,16.08,0,0,1-2.64,1.83,13.31,13.31,0,0,1,3.59,2,13.54,13.54,0,0,1,3,3.43L413.53,200H398a13.3,13.3,0,0,1-2.55-.21,6.34,6.34,0,0,1-1.83-.62,5.28,5.28,0,0,1-1.34-1,11.38,11.38,0,0,1-1.09-1.39l-17-26.52a5.1,5.1,0,0,0-2.34-2.07,10.11,10.11,0,0,0-3.85-.6h-4.22V200H346.27V123.81h17.44Z" transform="translate(-26.38 -113.45)"/><path class="cls-2" d="M443.55,174.56V200H426.11V123.81h26.51a43.15,43.15,0,0,1,13.64,1.91,26.24,26.24,0,0,1,9.39,5.26,20.51,20.51,0,0,1,5.44,7.9,27.07,27.07,0,0,1,1.76,9.83A29.18,29.18,0,0,1,481,159.18a21,21,0,0,1-5.52,8.16,26,26,0,0,1-9.41,5.31,42.69,42.69,0,0,1-13.49,1.91Zm0-13.34h9.07q6.81,0,9.8-3.3c2-2.2,3-5.26,3-9.21a13.86,13.86,0,0,0-.77-4.76,9.65,9.65,0,0,0-2.35-3.68,10.4,10.4,0,0,0-4-2.38,17.29,17.29,0,0,0-5.7-.84h-9.07Z" transform="translate(-26.38 -113.45)"/><path class="cls-2" d="M559.28,200H545.77A6.16,6.16,0,0,1,542,199a5.52,5.52,0,0,1-2-2.75l-4.43-13.28H507l-4.44,13.28a5.93,5.93,0,0,1-2,2.65,5.77,5.77,0,0,1-3.66,1.17H483.26l29.09-76.22h17.84ZM511,170.89h20.53L524.62,150c-.44-1.32-1-2.88-1.57-4.68s-1.19-3.74-1.78-5.83c-.55,2.12-1.12,4.1-1.7,5.91s-1.14,3.38-1.65,4.71Z" transform="translate(-26.38 -113.45)"/><path class="cls-1" d="M155.42,193.72a5,5,0,0,0,.26,2l-.71.08c0-.39,0-.71-.44-.86-.29-.09-.41-.44-.49-.76-.4-1.49-.82-3-1.23-4.46,0-.13-.08-.25-.15-.45l-.14.32-.23-.09a.18.18,0,0,0,0,.08c.12.54.22,1.09.39,1.62.3.94.64,1.87,1,2.8,0,.12.08.24.13.39-.35-.23-.35-.23-.72-.94-.19-.35-.37-.71-.55-1.06l-.13,0c.05.26.08.52.14.78.11.51.24,1,.36,1.52.05.21.07.43.12.69l-.43.17-.66-1-.07,0,.11.81-.75-1.33a8.73,8.73,0,0,0,.42,1.46l-.92-.81-.07.06c.22.35.44.71.68,1,.13.18.22.35,0,.56l-.73,0-.51-1.25.07-.05.71,1.07a8.19,8.19,0,0,0-1.71-3.38l.91,3-.06,0-.27-.28a1.31,1.31,0,0,1-.95,1.34.64.64,0,0,0-.87-.38l.06.55-.21-.23c-.41.39-.41.39-.08,1.56l-.6-.51-.11.79-.36-.42c.08-.31.15-.6.23-.88,0,0,.09-.06.16-.09l-1-1.79c-.27,1.28.21,2.42.3,3.59a2.47,2.47,0,0,1-1.5-.72,2,2,0,0,1-.45-.93c0-.15-.38-.4.05-.54a.45.45,0,0,0,0-.21c-.14-.26-.28-.52-.43-.77s-.28-.41-.43-.63c-.22.61-.19.69.5,1.19a4.36,4.36,0,0,0,.52,2.16h-.3l.08,1.66-.11,0-.28-.49c-.53.37-.76-.3-1.19-.37a1.66,1.66,0,0,0,.15,1,1.29,1.29,0,0,1,0,.68l-.32-.36c-.07.3-.12.53-.16.75s-.32.32-.54.38c-.06.57.58.81.62,1.4-.41-.43-.6-1-1.16-1.3l.29,1.14-.09,0-.33-.55-.68-.25c-.19.34-.37,0-.62,0,.23.41,0,.78,0,1.17a.7.7,0,0,1-.52-.81.91.91,0,0,0-.23-.75.81.81,0,0,0-.18.78c.09.44.06.46-.42.53-.08,0-.14.17-.21.26l-.56-.35c-.16.64.31,1.09.24,1.73l-.33-.41s-.06.06-.06.08a1.43,1.43,0,0,1,.13.48.85.85,0,0,1-.19.54.71.71,0,0,0-.19.94.24.24,0,0,1,0,.24,3,3,0,0,1-.19-.35.53.53,0,0,1,0-.22c0-.71,0-.71-.53-1.17,0-.11.11-.23.08-.33s-.21-.15-.26-.11a.37.37,0,0,0-.19.28,9.59,9.59,0,0,0,.05,1l-.68-1.07c-.43.78.36,1.15.45,1.78l-.31-.3-.28-.3c-.17.15-.3.34-.48.4a1.8,1.8,0,0,1-.6-.06c-.49.39-.46,1-.62,1.65l-.72-.83-.24.49-.51-1.15-.16.28-.15-.23c-.05,0-.1.07-.1.09,0,.36-.12.74.1,1.09,0,.05-.05.2-.12.27a.27.27,0,0,1-.25,0,.47.47,0,0,1-.23-.63c.18-.27,0-.45-.11-.62a6.14,6.14,0,0,0-.47-.42c-.16.29-.16.29.24,1.18l-.53.49c-.15-.06-.06-.48-.42-.38,0,0-.08-.23-.14-.34s0-.45-.31-.59c-.15.48.36.83.2,1.27-.34.08-.3-.31-.5-.37-.16.27.3.6-.09.83.06.32.58.44.39.92l-.79-.49c-.05.36.23.44.38.65-.23.1-.37,0-.49-.16s-.43-.51-.66-.75a1.41,1.41,0,0,0-.5-.33c-.1.57.45.89.48,1.39l-.54-.06-.18-.46c-.06.38-.32-.27-.43.11,0,.13-.32.17-.45.3a2.4,2.4,0,0,0-.33.54.52.52,0,0,1,0-.72c.34-.45.34-.45,0-1a1,1,0,0,1-.18.09.66.66,0,0,1-.15,0c-.18-.3.12-.83-.5-.93a3.64,3.64,0,0,0,0,1.32l.31-.18c.37.3.13.69.18,1l-.44.43c-.85-.26-1.25-1.1-1.91-1.63-.29.44-.26.67.13,1.25.47-.1.7.16.84.67l-.49-.27a1,1,0,0,0-.07.15,1.7,1.7,0,0,1-.1.32c-.08.12-.21.33-.3.32a.68.68,0,0,1-.43-.28,8.09,8.09,0,0,0-.74-1.13c0,.12,0,.25,0,.34.12.26-.32.36-.13.65a2,2,0,0,1,.21.75,2.6,2.6,0,0,1,0,.59l-.85-.89c-.27.74-.27.74-1,.61-.15.11-.3.25-.14.45a.52.52,0,0,1-.05.71,5.19,5.19,0,0,1-.77.71c-.29.22-.61.4-.86.57,0,.22.14.37.11.49a.33.33,0,0,1-.51.23,1.17,1.17,0,0,0-.58-1c-.31.31,0,.59.05.91-.28-.19-.49-.44-.74-.49a2.43,2.43,0,0,0-.83.16l.17.43-.33-.06.23.56c-.3,0-.56,0-.8-.07a2.29,2.29,0,0,0-1.27.07c-.12,0-.3,0-.49-.05l-.45.73a2.25,2.25,0,0,0-1.59-.54c.1.45-.18.59-.53.7a4,4,0,0,0-.61.28l-.08-.37c-.07-.45-.2-.51-.57-.25l-.15.13.28.71-.4-.05c-.06.16-.11.32-.17.47-.15.32-.38.41-.66.21a1,1,0,0,0-1-.11c-.37.13-.73.29-1.09.42s-.46.09-.72-.34a2.72,2.72,0,0,0,.51-.32.37.37,0,0,0,.06-.32.38.38,0,0,0-.32-.12,2,2,0,0,0-.42.24c-.2-.32.23-.66-.12-1a1.7,1.7,0,0,1-.27.35,1.48,1.48,0,0,1-.42.13l.11.7c-.26-.19-.38-.51-.77-.44l.14.44c-.07,0-.13,0-.16,0a3.19,3.19,0,0,0-1.8-.83,3.93,3.93,0,0,1-.75-.19,2.9,2.9,0,0,0-.57-.22c-.15,0-.3.18-.48,0a1.84,1.84,0,0,0-.2.16c-.32-.3-.62-.6-.94-.88s-.54-.4-.81-.59-.25-.11-.3.12l-.29-.42-.26.38c-.34-.7-1.11-.75-1.62-1.23l-.3.29c-.06-.06-.14-.19-.17-.18-.35.1-.41-.19-.53-.38s-.28-.52-.56-.63l-.33,1-.92-1.43-.68.18-.11-.18a1.55,1.55,0,0,1-.59,0A6.73,6.73,0,0,1,91,211a9.42,9.42,0,0,1-.91-1c-.26-.29-.51-.6-.78-.87a2.85,2.85,0,0,0-2.53-.91L86,206.93l-.86.48-.5-.53c-.14-.16-.29-.31-.5-.51L84,207a1.26,1.26,0,0,1-.88-.22c-.25-.16-.47-.36-.71-.54l-1.34-1.07a6,6,0,0,1,2.15.15c-.52-.68-1.31-.53-1.89-.94v.39a.73.73,0,0,1-.87-.16l-.24-.23c-.28-.3-.56-.62-1-.16-.6-.65-.5-1.66-1.39-2.09l-.23,1.06-.7-.38.31-.64-.51-.09a1.63,1.63,0,0,0-.68-.94,2.66,2.66,0,0,1-.49-.52.4.4,0,0,0-.45-.2,3.22,3.22,0,0,0-1.11.17c0,.43.33.57.6.75-.33.23-.4.21-1.14-.38.16-.23.12-.43-.15-.61-.12.15-.29.2-.42,0a1.69,1.69,0,0,1-.21-.45c-.07-.17-.12-.34-.19-.53l-.49.09,0-.43-.62,0a.76.76,0,0,0-.26-.93c-.13-.11-.07-.45-.1-.7-.34,0-.22.31-.35.48-.33-.06-.5-.33-.69-.57s-.31-.56-.53-.64c-.64-.23-1-.89-1.68-1.13l-.21.3a.65.65,0,0,1-.12-.11c-.15-.18-.16-.53-.55-.39-.07,0-.19-.15-.29-.23-.4-.31-.79-.62-1.2-.91a1.9,1.9,0,0,0-.37-.2c-.27.25-.15.52-.06.79a.77.77,0,0,1-.7-.34c-.23-.25-.41-.53-.65-.77s-.5-.81-1.09-.71c-.06,0-.14-.2-.24-.34l-.33.35A2.94,2.94,0,0,1,60,190.85l-.56.54a6.46,6.46,0,0,0-1.94-1.69c-.32-.22-.58-.5-.87-.74a3.54,3.54,0,0,1-.82-1l-.62.4-.77-.32a5.27,5.27,0,0,0-1-.36c-.73-.13-1.14-.69-1.65-1.12a9.26,9.26,0,0,0-3.18-2c.28-.65-.05-1.12-.49-1.57s-.65-.66-1-1c-.21.13-.22.3-.08.5l.33.5-.76.42-.38-.34c-.07-.29.36-.58-.13-.78l-.38.35-.07-.79c-1.46-.46-2.64-1.57-4.27-1.86l.26-.48c-.5-.41-.65-1.24-1.51-1.36l-.14.32a1.24,1.24,0,0,1-.41-.14,2,2,0,0,1-.47-.54c-.18-.32-.31-.67-.48-1,.31,0,.65.19.72-.3,0-.06.18-.1.21-.11l.85.78-.55-.1c.21.66.81.55,1.24.82a1.69,1.69,0,0,0,.11-.41.51.51,0,0,1,.41-.52.69.69,0,0,1,.65.44,2.12,2.12,0,0,1,.06.44l.15,1c0,.09.07.2,0,.26-.21.35.06.59.2.84a.52.52,0,0,0,.38.13c.18-.27.4-.13.66-.05a2.21,2.21,0,0,0-1.12-1.74l.33-.61a19,19,0,0,0,3.39,3.17l-.18-.7.49-.18a1.22,1.22,0,0,1,0,1.06l.56.24v-.43a3,3,0,0,1,1.64.5c.43-.38-.39-.69,0-1.12.17.19.34.35.47.53.28.42.54.85.82,1.27a2.49,2.49,0,0,0,1.1,1l.07-.32s.07,0,.08,0c.14.28.27.57.41.85a4.14,4.14,0,0,0,.31.59c.21.29.35.31.82.13l-.44-1.58.46-.16L53,182a.51.51,0,0,1,.42.59c0,.24-.08.48-.11.72s0,.5-.08.79l.34-.09a1.64,1.64,0,0,1,1.94.53,2.56,2.56,0,0,1,.56,1.2c0,.2.08.39.32.47.42.16.67,0,.66-.42a5,5,0,0,0-.11-1.22c-.13-.49-.38-.93-1-.93a1.2,1.2,0,0,1-.43-.16c.12-.31.38-.38.53-.22.45.45,1.13.47,1.57.9l.67.66c-.09.56-.45.53-.92.49.77.76,1.45,1.47,2.18,2.11a2.17,2.17,0,0,0,2,.53l-.33-1.05a1.69,1.69,0,0,1,.64.44c.4.33.5.32.86-.1l0,0,.53.63.71-.29c.11.31.11.31-.37.7l.47.69.57-.31-.33-.78,0,0c.08.08.17.15.24.23.29.39.56.79.86,1.17.06.08.2.11.31.16l.09-.34s0-.05.09-.15c.16.26.32.49.45.72.31.57.36.6,1,.5.19.06.12.46.47.37,0,0,.16.26.25.39s.39.26.47,0a1.4,1.4,0,0,1,1-.88,2.42,2.42,0,0,1,.54,1,2.61,2.61,0,0,0,.27.67,1.87,1.87,0,0,1,.15,1.67c.38-.1.72-.12.93-.43s.3-.32.56-.2c.06,0,.15.06.2,0a.45.45,0,0,1,.6.18c0,.07.19.07.32.11l.1-.45.54.34.1-.44s.1.09.1.13c0,.24,0,.48-.06.73l-.34.1a.23.23,0,0,0,0,.11,1.06,1.06,0,0,1,0,1c-.25.66-.2,1.1.74,1.52l.26.11a1.3,1.3,0,0,1,1,1.35l.72-.81a1.8,1.8,0,0,1-.49-1.43.38.38,0,0,0-.26-.44.65.65,0,0,0-.43.14,5.08,5.08,0,0,0-.39.41c-.12.12-.3.22-.43,0a.79.79,0,0,1-.17-.54.36.36,0,0,1,.49-.23,1.64,1.64,0,0,1,.37.27c.25-.36.07-.72,0-1.05l1.71.47c.24.07.45.15.5.45a.83.83,0,0,0,.25.49c.3.21.31.51.41.8.14.45.26.9-.11,1.28.25.27.45.13.64,0s.42-.08.52.2l.82-.47c-.87-.31-.77-1-1-1.74l1.11.18v.78l.38-.22c0,.45.34.54.7.59a5.82,5.82,0,0,1,.82.13c.52.14.62.32.61.89-.56,0-.56,0-.73-.58-.61.26-.36,1-.78,1.34a2.34,2.34,0,0,0,1,.83,4.69,4.69,0,0,1,1.72,1.19v-.71a.55.55,0,0,1,.6.3,7.53,7.53,0,0,1,.5.93c.2.46.38.92.61,1.49l.3-.59.28.3c.25,0,.52-.18.75.12l-.09.35c.55.34.49-.4.87-.41l.28.56a.58.58,0,0,0,.23-.06c.48-.42.9-.09,1.34.09a6.4,6.4,0,0,0,1,.36c.42.08.85.09,1.27.13l-.54.38c.5.35.77.91,1.44.82l0,0-.84.63.8,1.19c.06-.31.1-.49.12-.68s0-.26,0-.39a.51.51,0,0,1,.83-.36,2.12,2.12,0,0,1,.75,1c.06.16.1.32.16.52a1.59,1.59,0,0,1,1.84,0,.84.84,0,0,0,.89,0l.21.28c.05,0,.09,0,.11,0s0-.31.21-.26a.43.43,0,0,1,.3.2,1.91,1.91,0,0,1,.09.54c0,.21,0,.41,0,.62h.15l.11-.58a1.05,1.05,0,0,1,.75.68c.16.29.28.61.44.9a.83.83,0,0,0,.73.52c.11,0,.21-.12.36-.21l.19.35-.3.13c-.16.06-.32.12-.3.34s.07.46.33.52a2.57,2.57,0,0,0,.55.06c.46,0,.91,0,1.39,0a1.71,1.71,0,0,1-.07-.18c-.05-.14-.14-.32.09-.34.07,0,.21.19.23.3a3.75,3.75,0,0,1,0,.67c0,.25.11.38.41.35l.26-1.21c.34,0,.72-.06.84.43l.17-.07,1.12.48a1.54,1.54,0,0,1,.07.24c.06.25.24.3.46.3a8.81,8.81,0,0,0,.89,0c.08,0,.15-.11.26-.19.26.33.47.83,1.08.59l.08-.41,1,.37L110,211l.77.44-.41-1.25c.09,0,.13,0,.16,0a2,2,0,0,0,2.46-.37c.16-.15.35-.28.53-.42A1.89,1.89,0,0,1,115,209l-.16-1.3.42.41a1.59,1.59,0,0,0,.51.35l-.46-.87a4.87,4.87,0,0,1,.63-.19,2.61,2.61,0,0,1,.56,0,.76.76,0,0,0,.93-.6l.29.55.39-.85a6.43,6.43,0,0,0,.77.29,1.12,1.12,0,0,1,.61.54l.41.69c0-.5-.24-.76-.4-1.11a.79.79,0,0,0,.53-.91c.66-.13,1.11-.86,1.83-.49.48-.62-.15-.9-.37-1.33l.53-.23.6.7c.28-.51-.05-.93,0-1.48.28.47.1,1,.6,1.26,0-.33-.18-.62-.06-.93.17.3.33.58.51.85,0,0,.16,0,.34-.05l-.66-1a5.9,5.9,0,0,1,.68-.22c.42-.08.85-.12,1.27-.2s1-.23,1.53-.36a.87.87,0,0,0,.75.28c.28,0,.56.31.57.65s.26.59.63.7c-.33-.49-.17-1.23-.87-1.56a2.24,2.24,0,0,0-.17-1.46,1.11,1.11,0,0,1-.07-.26c-.05-.4.08-.53.46-.47a1.64,1.64,0,0,1,.38.1,1,1,0,0,0,1.09-.25.6.6,0,0,1,.56-.17,5.19,5.19,0,0,1,.87.19c.13,0,.23.2.39.36,0-.24,0-.41,0-.59s-.06-.45.19-.54a.56.56,0,0,1,.72.25c0-.24,0-.4,0-.56a2.72,2.72,0,0,1,.1-.46c.4.09.4.09.85-.19l.56.73.44-1.19.66.47a6.74,6.74,0,0,1,.16-.78c.08-.25.21-.48.34-.8l1,.39c.15-.4-.2-.62-.27-.91.58-.33.2-.95.44-1.42.57.15.52.8,1,1.07l-.54-1.23.1-.06c.21.27.4.54.61.8s.46.54.69.81a5.1,5.1,0,0,0,.78.76l-.24-.44c.52-.07.75.43,1.27.52l-.5-1a2.6,2.6,0,0,1,.71-.2,3.09,3.09,0,0,1,.75.24c.11-.34-.08-.57-.19-.83,0-.05.09-.12.15-.13.41-.11.63-.31.59-.78,0-.29.21-.38.72-.36l.32.73c.16-.25-.09-.64.36-.57a7.46,7.46,0,0,1-.8-2.37l.56.57.84-.35.25.42.67.17-.13-.43a2.47,2.47,0,0,0,1.77-.33,1,1,0,0,1,1.25.31l.09-.55.24.11.1-1.09.72,1,.09-.06-.21-1,.4.48.32-.15.09-1.66c.28.43.58.1.94.26l-.59-1.12.08-.05.4.52c.22-.48.65-.26,1.08-.35a6.93,6.93,0,0,1,.21-.81.65.65,0,0,1,.28-.36c.08,0,.26.09.36.18a1.92,1.92,0,0,0,1.12.31s.11-.13.13-.21a.31.31,0,0,0-.07-.2c-.39-.5-.2-.93.15-1.34a.59.59,0,0,0,.05-.13l-.25-.58.41-.46c.35-.41.49-.42.93-.08l.08.07.91-.05.41.52.48-.47c.22,0,.45.35.77.13h0c.11-.15.23-.29.33-.44s.11-.28.21-.32c.42-.17.51-.53.59-.91a1.34,1.34,0,0,1,.22-.38l.78.19a6.13,6.13,0,0,1,.5.79c.14.31.51.17.67.43.25-.55.37-1.06-.15-1.53-.19-.16-.16-.19,0-.58l.78.38.57-.6.32.23a2.07,2.07,0,0,0-.12,1.52,1,1,0,0,0,.33.49.66.66,0,0,1,.26.75c-.3-.13-.62-.17-.58-.6,0-.09-.1-.2-.17-.28s-.37-.15-.41.09a3.28,3.28,0,0,0,0,.94,4.2,4.2,0,0,0,.26.83.46.46,0,0,0,.33.38c.35.12.22.48.29.83-.75-.23-1.29.47-2,.3l.16-.61h.45a9.05,9.05,0,0,0-1.12-2.09,2.13,2.13,0,0,0-.48-.3,5.67,5.67,0,0,0,0,.59c0,.29.11.58.14.88s0,.45-.25.57l-.41-.59c-.26.17-.21.41-.21.61a7,7,0,0,0,.57,2.38c.06.16.13.32.25.61-.67-.61-1.37-.24-2-.44l-.27-.32a5.59,5.59,0,0,0,.7,2.49l-.63,0c.38.31.26.67.31,1.11l-.39-.42-.17.14c-.22-.55-.45-1.08-.64-1.63a4,4,0,0,0-1.91-2,48.47,48.47,0,0,0,2.8,5.28l-1-.84v1l-.12,0-.22-.65-.24.4h-.06s0,0,0,0a7.93,7.93,0,0,0-.92-1.75,3.34,3.34,0,0,0,.59,2.87,6.62,6.62,0,0,0,.07-.7A.5.5,0,0,1,155.42,193.72ZM54.78,185.57v-.07l-1.94-.66c-.19.34,0,.65.14,1l.4-.56c.42.22.39.82,1,.89l-.26-.64h.41Zm50.75,26.53-.07.5c.61.07.85-.07.85-.46a.32.32,0,0,0-.11-.23s-.15,0-.23.05Zm-10.24-4.4-.6-.67-.25.27.33.76A.4.4,0,0,0,95.29,207.7ZM62.64,189c0-.78-.18-1-.74-1.11C61.94,188.37,62.27,188.63,62.64,189Zm37.17,20.8c-.13-.19-.26-.39-.4-.57s-.33-.18-.48,0C99.3,209.9,99.3,209.9,99.81,209.79ZM79,202.11h.44c-.32-.3-.66,0-1-.32a1.55,1.55,0,0,0,.42,1l0-.35A2.88,2.88,0,0,0,79,202.11ZM64.67,191.45c-.49.67-.46,1.06,0,1.2Zm22.44,15.42c0,.27-.1.55.25.6a.39.39,0,0,0,.29-.25C87.7,206.86,87.41,206.89,87.11,206.87Zm-3.26-3.49c-.11-.72-.18-.8-.78-.82Zm10.19,3c-.15-.52-.31-.57-.92-.32Zm6.3,8.68c.15-.7.14-.74-.18-.87C100.19,214.86,100.19,214.86,100.34,215ZM78.93,198.61l.75.72C79.79,198.9,79.63,198.73,78.93,198.61Zm-14.55-5.49.05.1.69.06-.17-.52Zm24.28,14.46c0-.59-.06-.61-.56-.56ZM59.71,189.89c.32.46.32.46.78.33Zm47.92,25.42c.26-.21.22-.4,0-.62C107.43,214.93,107.36,215.12,107.63,215.31Zm-7.36-1.48c-.23-.35-.23-.35-.55-.16ZM44.93,180.28v.54l.36-.29Zm43.68,26.39h.16v-.46h-.13Zm27.31,7.73.06-.12-.28-.15,0,.08ZM80.06,197.84l-.35.25C79.93,198.17,80.08,198.25,80.06,197.84ZM61.52,189.4h.13l0-.3h-.08Z" transform="translate(-26.38 -113.45)"/><path class="cls-1" d="M163.94,183.76a3.74,3.74,0,0,1,.82,1.44h-.38l-.25.75a5.77,5.77,0,0,1-.62-1.95l.41.2,0-.45Z" transform="translate(-26.38 -113.45)"/><path class="cls-1" d="M163.44,181.65l.07-.55.45.07.2-.44.52.49-.85.07c.18.65.77,1.06.66,1.78a1.15,1.15,0,0,1-.48-.74c-.09-.25-.15-.52-.23-.8l-.35.11Z" transform="translate(-26.38 -113.45)"/><path class="cls-1" d="M35.82,173.88a4.57,4.57,0,0,1,1.56,1.18C36.33,175,35.78,174.59,35.82,173.88Z" transform="translate(-26.38 -113.45)"/><path class="cls-1" d="M140.37,203.07l1.14,1.3a1.32,1.32,0,0,1-1.09-.68C140.34,203.56,140.39,203.36,140.37,203.07Z" transform="translate(-26.38 -113.45)"/><path class="cls-1" d="M159.57,188.88a.56.56,0,0,1,.35.7c0,.26,0,.53-.09.87-.05-.14-.13-.23-.12-.31a.52.52,0,0,0-.22-.61C159.32,189.41,159.36,189.29,159.57,188.88Z" transform="translate(-26.38 -113.45)"/><path class="cls-1" d="M164,183.75a4,4,0,0,0-.53-.48.81.81,0,0,1-.41-1,5.14,5.14,0,0,1,.93,1.5Z" transform="translate(-26.38 -113.45)"/><path class="cls-1" d="M170.14,179.89c-.44,0-.36.37-.6.54l-.28-.17.6-1Z" transform="translate(-26.38 -113.45)"/><path class="cls-1" d="M154,196.14a1.21,1.21,0,0,1-.44-1.13c.23.17.52.18.4.56,0,.14.1.33.15.5Z" transform="translate(-26.38 -113.45)"/><path class="cls-1" d="M55,183.55c.42.09.62.53,1.06.47,0,0,.11.2.19.34C55.14,184,55.14,184,55,183.55Z" transform="translate(-26.38 -113.45)"/><path class="cls-1" d="M166.73,182.24l.87.56-.44.16-.49-.66Z" transform="translate(-26.38 -113.45)"/><path class="cls-1" d="M163.83,179.6l-.53-.06-.07-.68A1.7,1.7,0,0,1,163.83,179.6Z" transform="translate(-26.38 -113.45)"/><path class="cls-1" d="M86.32,201.29c-.45.22-.76-.07-1.12-.24.15-.25.32-.22.46-.06A.74.74,0,0,0,86.32,201.29Z" transform="translate(-26.38 -113.45)"/><path class="cls-1" d="M163.43,181.64l-.69.21-.2-.7.9.5Z" transform="translate(-26.38 -113.45)"/><path class="cls-1" d="M162.58,184.37c-.23-.19-.36-.4-.17-.71C162.78,184.08,162.78,184.08,162.58,184.37Z" transform="translate(-26.38 -113.45)"/><path class="cls-1" d="M165.61,182.52c.15.25.33.43.08.67C165.31,183.05,165.41,182.82,165.61,182.52Z" transform="translate(-26.38 -113.45)"/><path class="cls-1" d="M38.8,175.56l.28.57-.63-.13Z" transform="translate(-26.38 -113.45)"/><path class="cls-1" d="M59.23,186.34l-.17-.41.47-.26.07,0Z" transform="translate(-26.38 -113.45)"/><path class="cls-1" d="M150,188.32c-.47,0-.45-.43-.66-.61C149.67,187.85,149.67,187.85,150,188.32Z" transform="translate(-26.38 -113.45)"/><path class="cls-1" d="M166.63,178.68l-.39-.65C166.69,178.15,166.82,178.33,166.63,178.68Z" transform="translate(-26.38 -113.45)"/><path class="cls-1" d="M92.69,204.61c.18-.36.18-.36-.14-.7.09,0,.23,0,.28.05.2.21.16.41-.11.68Z" transform="translate(-26.38 -113.45)"/><path class="cls-1" d="M62.76,187.22c-.41-.16-.41-.16-.25-.59l.29.55Z" transform="translate(-26.38 -113.45)"/><path class="cls-1" d="M57.94,183.7c-.25,0-.45,0-.54-.44l.6.31Z" transform="translate(-26.38 -113.45)"/><path class="cls-1" d="M160.52,190.29l-.07-.61a.46.46,0,0,1,.21.6Z" transform="translate(-26.38 -113.45)"/><path class="cls-1" d="M52,181.35c.49.15.39.41.28.68Z" transform="translate(-26.38 -113.45)"/><path class="cls-1" d="M159.89,183.36c-.37-.1-.25-.39-.38-.58l.14-.05Z" transform="translate(-26.38 -113.45)"/><path class="cls-1" d="M167.77,179.63l-.46-.56C167.71,179.09,167.71,179.09,167.77,179.63Z" transform="translate(-26.38 -113.45)"/><path class="cls-1" d="M159.26,187.39l.09.62C159,187.73,159,187.73,159.26,187.39Z" transform="translate(-26.38 -113.45)"/><path class="cls-1" d="M156.6,184.55l-.3.4-.08-.53Z" transform="translate(-26.38 -113.45)"/><path class="cls-1" d="M157.23,185.13l-.47-.42c.32,0,.54.07.46.43Z" transform="translate(-26.38 -113.45)"/><path class="cls-1" d="M40.17,176.17l.43.19,0,.1-.45-.16Z" transform="translate(-26.38 -113.45)"/><path class="cls-1" d="M166.84,181.14l.27.51-.11,0-.27-.51Z" transform="translate(-26.38 -113.45)"/><path class="cls-1" d="M136.87,207.31l-.22-.39C136.92,207,136.92,207,136.87,207.31Z" transform="translate(-26.38 -113.45)"/><path class="cls-1" d="M61.53,186.07l0-.5h.11l0,.5Z" transform="translate(-26.38 -113.45)"/><path class="cls-1" d="M40.18,175l.28.37C40.13,175.49,40.13,175.49,40.18,175Z" transform="translate(-26.38 -113.45)"/><path class="cls-1" d="M166.17,181.06c-.4,0-.28-.19-.28-.43Z" transform="translate(-26.38 -113.45)"/><path class="cls-1" d="M169.91,181.43l-.32-.34C169.88,181.09,170,181.15,169.91,181.43Z" transform="translate(-26.38 -113.45)"/><path class="cls-1" d="M148.08,197.51v.36C147.72,197.72,148,197.62,148.08,197.51Z" transform="translate(-26.38 -113.45)"/><path class="cls-1" d="M162.44,181.68l-.11-.33,0,0,.13.32Z" transform="translate(-26.38 -113.45)"/><path class="cls-1" d="M76.82,202.44l0,.18-.09,0a1.21,1.21,0,0,1,0-.18Z" transform="translate(-26.38 -113.45)"/><path class="cls-1" d="M37.41,175.91c-.22-.08-.37-.13-.13-.36Z" transform="translate(-26.38 -113.45)"/><path class="cls-1" d="M101.73,209.39l.27.26-.08.08-.3-.24Z" transform="translate(-26.38 -113.45)"/><path class="cls-1" d="M65.52,188.4l-.27-.22.06-.08.28.21Z" transform="translate(-26.38 -113.45)"/><path class="cls-1" d="M162,185.89l.26.05s0,.09,0,.09H162Z" transform="translate(-26.38 -113.45)"/><path class="cls-2" d="M73.8,171.59a3.81,3.81,0,0,0-.5.48,4.09,4.09,0,0,0-.81,1.75l1.72-1.61.06,0c0,.07-.08.13-.12.21l-.11.25a1.54,1.54,0,0,1,1.6.28.62.62,0,0,0,.27.84l.38-.23-.06.26c.64.16.64.16,1.23-.42V174l.7-.14-.13.41-1,.13-.69,1.14a2.24,2.24,0,0,0,1.32-.51c.41-.26.8-.54,1.22-.83a2.57,2.57,0,0,1,.36,1.27c.07.54-.49.7-.65,1.17a2,2,0,0,0,1-.92l.16.26,1.25-.58.06.08-.17.38c.53.17.25.66.4,1a.82.82,0,0,0,.63-.35,2.83,2.83,0,0,1,.5-.36v.41a3,3,0,0,1,.71-.1,2.22,2.22,0,0,1,.62.28c.37-.12.23-.64.59-.89,0,.45-.37.78-.24,1.27l.71-.57.07.07-.27.5.6,1,1-.31-.15.64c-.3.05-.59.11-.71.43a.56.56,0,0,0,.67,0c.34-.24.4-.21.72.11.07.07.21.08.32.12l.06.5c.55,0,.68-.61,1.19-.71l-.09.39s.08,0,.09,0a.69.69,0,0,1,.89-.22c.37.17.64,0,.88-.33,0,.32,0,.35-.23.41-.4.12-.65.33-.6.78L89,180c.2.37.2.37,1.15,0l-.4.81c.43.11.52.07.69-.26s.2-.45.31-.68l.11,0-.12.72c.54-.08.77.27.93.74h1.62l-.11.72.44,0-.5.68.24.1-.09.35,1.06-.55c.37.14.45.31.18.56-.06,0-.18,0-.27,0s-.35.08-.34.33a3.34,3.34,0,0,1,0,.51c.45,0,.56-.43.83-.7.15.22.31.4.59.25l-.08.55.08,0-.53.58c.35.11.42-.14.55-.27s.24-.35.52-.15l-.13.42a.57.57,0,0,0,.15,0c.18-.09.3-.36.56-.17.19-.15,0-.55.44-.6l.15.78H97l.21-.48c.21.19.13.41.08.62a7,7,0,0,0-.16.77c0,.08.08.18.13.27s.21-.07.26-.15c.16-.24.3-.51.45-.76l.28.55-.2.24c.07.31.39.35.59.49a2.52,2.52,0,0,0,.83.22c-.15.29-.38.24-.62.17-.42-.11-.42-.11-.7.31l.31.23-.34.22c-.12.09-.3.19-.16.35a.45.45,0,0,0,.39.08,4.31,4.31,0,0,0,.68-.34l-.3-.23c.35-.56.81-.36,1.24-.23.36.7-.08,1.36-.07,2,.48.12.6.06.88-.44-.33-.47-.33-.47,0-.91l.06.43c.07,0,.12.06.17.05a1.68,1.68,0,0,1,.44,0,.68.68,0,0,1,.35.22.32.32,0,0,1,0,.4,6.25,6.25,0,0,0-.44.79c.24.28.45-.36.65.05.39-.19.61-.69,1.15-.67L103,190a.69.69,0,0,0,.29,0c.31-.14.48,0,.63.27.23.39.23.38.67.13a.65.65,0,0,1,.43-.07,6.8,6.8,0,0,1,1,.34c.27.12.52.29.79.42s.27.19.44-.09.42,0,.65.2a.85.85,0,0,0-.46.88l.37.06.25-.38a1.11,1.11,0,0,0,.75,1.26l.24-.21.12.33.25-.37a.53.53,0,0,0,.66.13,3.12,3.12,0,0,1,.76-.14v-1l.76.56.07-.05-.31-.63a1.58,1.58,0,0,1,1.08-.35,1.13,1.13,0,0,0,1.06-.55l.33.24.44-.66a3.22,3.22,0,0,1,1,.23c.26.14.41.45.64.72.13-.33-.16-.51-.25-.81a.93.93,0,0,0,.61-.69.22.22,0,0,1,.08-.14c.46-.23.93-.46,1.41-.65a1.33,1.33,0,0,1,.49,0l.18-.47-.47-.56.53-.25.54.46c.33-.37.1-.72.14-1.12.27.27,0,.78.5.87v-.78a6.53,6.53,0,0,0,.42.67s.19-.05.33-.1l-.5-.74c1.12-.57,2.41-.54,3.49-1.06.24,0,.48.06.72.06a.5.5,0,0,1,.56.48c.07.39.07.39.57.5-.26-.43-.1-1-.58-1.16-.05-.45-.07-.83-.13-1.2-.08-.54,0-.7.58-.65a1.9,1.9,0,0,0,1.5-.41,1.27,1.27,0,0,1,.74-.13c.63,0,.63,0,.9.26,0-.14.06-.25.08-.37.08-.65.36-.8,1-.52a2.07,2.07,0,0,1,0-.5c0-.12.22-.32.25-.31.34.16.48-.21.76-.25l.46.49c.11-.17.2-.3.27-.43.32-.63.34-.65.89-.29l.66-1.36,1.12.18-.23-.62a6.09,6.09,0,0,0,.32-.62,5.35,5.35,0,0,0,.17-.69c.27.06.32.1.84.82,0-.42-.27-.67-.34-1,.1,0,.23,0,.25,0,.31.66,1,1,1.45,1.59,0-.37.19-.4.41-.3l.68.29c.12-.38-.22-.56-.26-.84a2.22,2.22,0,0,1,1.6-.1l-.22-.76a1.75,1.75,0,0,0,.44-.2c.15-.1.36-.25.36-.38,0-.53.39-.56.76-.63l.27.53h.1a.74.74,0,0,1,.05-.34c0-.07.16-.11.28-.17-.17-.56-.6-1.08-.5-1.78l.56.43a1.38,1.38,0,0,1,.31-.28,3,3,0,0,1,.52-.14c.1.43.51.22.84.37l-.08-.33a8,8,0,0,0,.95-.2,9,9,0,0,0,.92-.39,1,1,0,0,1,1.07.07c.25,0,0-.54.44-.37l.25-.88.58.66.1,0-.07-.73.08-.07.19.39.4-.22.27-1.21.87-.12-.6-1.41.05-.05.46.35c-.3.29,0,.42.06.54a3.12,3.12,0,0,1,.82-.29c.34,0,.44-.2.54-.45a3.32,3.32,0,0,1,.23-.51.34.34,0,0,1,.53-.08,1.2,1.2,0,0,0,1.3,0c-.46-.56-.13-1,.32-1.37l-.2-.49.46-.43c.45-.43.52-.44,1-.14l.85-.17.1,0c.13.1.19.37.43.24s.36-.23.23-.53.07-.29.32-.23l-.17.39.6.11a.23.23,0,0,0,.14-.08c.42-.5,1-.81,1.33-1.43.21-.46.22-.46.76-.39a1.42,1.42,0,0,0,.26,0l.69.89.19-.21.17.23c.08-.15.16-.28.22-.41a.62.62,0,0,0-.13-.85.33.33,0,0,1-.11-.32.25.25,0,0,1,.36-.13,3.78,3.78,0,0,0,.53.16l.59-.6.28.16a4.19,4.19,0,0,0-.24.67c-.14.73.08,1.05.8,1.26l.47.11a.63.63,0,0,0,.24-.92l.38.12c.16-.4.16-.4-.67-.91v-.62a5.42,5.42,0,0,1,1.4,2.23c-.57.12-.55.64-.74,1,.16.34.74.35.51.89-.23-.05-.53.06-.54-.37,0-.1-.21-.3-.28-.28a.56.56,0,0,0-.34.3,1,1,0,0,0,0,.86.92.92,0,0,1,.06.38c0,.29.11.46.46.36l.06.56-2.08.78.16-.63.4,0c0-.07.06-.11,0-.13-.17-.37-.32-.76-.52-1.11s-.33-.42-.82-.19c-.15.48.33,1.14-.43,1.48l-.31-.37c-.46.05-.25,1.87.33,2.9-.62-.55-1.26-.08-1.88-.09a1.31,1.31,0,0,0-.23.06l-.35-.33-.09,0c.06.34.09.69.18,1s.22.63.34,1l-.57.08c.35.27.08.57.1.87l-.31-.29-.12.21c-.46-.67-.4-1.6-1.14-2.13l-.16.38c-.11-.26-.36-.25-.5-.38s-.1-.51-.54-.57a22.13,22.13,0,0,0,2.35,3.92l3.16-1.9.09.06-.23.79a1.56,1.56,0,0,0-1.12.27c-.59.34-1.17.72-1.76,1.06a1.93,1.93,0,0,1-1.38.38l-.08-.8-.39.5-.67-1.39a.44.44,0,0,0-.36.44,3.4,3.4,0,0,0,.45,2l.34-1c.21.28.1.54.11.77s0,.51.07.81l-.6.14L154,178c-.06,0-.1-.08-.15-.08a.59.59,0,0,1-.6-.6c0-.31-.1-.62-.17-1l-.53.07.34,1.15c-.57-.34-.76-.93-1.11-1.54a1.51,1.51,0,0,0-.1.4,5,5,0,0,0,.1.66c0,.38.24.75.08,1.15,0,.06.09.18.15.29l-.52.28-.65-.78,0,.63-.37-.4c-.2.28.12.45.08.71l-.71-.33-.09.11.57.79-.51.34a5.12,5.12,0,0,0-1.09-2.34s-.13,0-.28,0l.52,2.25-.35-.46s-.08.07-.09.1a1.49,1.49,0,0,1-.69,1c-.22.15-.42.26-.69,0-.11-.1-.37,0-.56-.06-.13.4.14.79,0,1.15-.07-.26.14-.57-.19-.77-.53.48-.53.48-.22,1.34l-.6-.31-.23.68-.3-.32.45-1-.69-1.19c-.48,1-.09,2-.16,2.91-.47,0-.88.12-1.3.13a4.67,4.67,0,0,1-.79-.09v.92l.74.06-.46.6c-.08-.25-.15-.41-.39-.26s-.3.1-.36.2c-.28.45-.65.31-1.06.18-.07.18,0,.43-.18.51-.06,0-.16-.06-.27-.1a2.68,2.68,0,0,1-.26.65,3.67,3.67,0,0,1-.62.53c-.12.33.48.46.51.93-.39-.26-.53-.71-1-.85l.11.92-.07,0-.3-.43c-.23,0-.53-.15-.65,0s-.4.1-.66,0c0,.21-.06.41.24.43a.3.3,0,0,1,.17.1l.83.93c-.69,0-1-.21-.91-.82-.36-.09-.36-.09-.55.46a.41.41,0,0,1-.15-.07c-.11-.1-.2-.21-.31-.32.1-.29.23-.57-.05-.85a.78.78,0,0,0-.28.73c0,.31-.19.54-.39.5s-.24.2-.31.23c-.25,0-.48-.15-.61-.08s-.06.37,0,.56a1.94,1.94,0,0,1,0,.73l-.32-.29a1.28,1.28,0,0,0,0,.18c.1.26.14.54-.1.72a.87.87,0,0,0-.4,1.14c-.41-.31,0-.7-.21-1.09l-.39-.27.15-.29c-.42-.07-.49,0-.54.26s0,.45,0,.79l-.59-.78c-.33.31-.35.43-.12.75s.27.39.41.58c0,0,0,0,0,.13l-.62-.48a.85.85,0,0,1-.89.51c-.44,0-.63.42-.8.77s-.16.45-.26.74l-.39-.29-.33-.23-.21.35h-.05l-.36-.73c-.07,0-.13.14-.18.14s-.14-.08-.3-.17a6.43,6.43,0,0,0,0,1,.31.31,0,0,1-.25.37.34.34,0,0,1-.32-.1c-.07-.11-.23-.25,0-.41s.13-.32,0-.45l-.49-.31c-.2.4.05.71.17,1l-.62.46c-.17-.24-.17-.24-.44-.25l-.18-.66h-.12c0,.09-.09.18-.07.26a4.5,4.5,0,0,0,.16.48c0,.16,0,.29-.27.36l-.27-.41c-.13.31.2.65-.17.83,0,.26.54.31.28.7l-.75-.25-.06.09.31.42a.78.78,0,0,1-.7-.3,5.27,5.27,0,0,0-.51-.43c-.08-.06-.23,0-.35,0a.88.88,0,0,0,0,.33,7.52,7.52,0,0,0,.39.72h-.62l-.12-.32a2.13,2.13,0,0,0-1.36,1c-.14-.37-.13-.39.15-.67s.32-.31.1-.77l-.37.18c0-.24,0-.44-.07-.64,0,0,0,0-.05-.08s-.21,0-.28,0-.21.32-.17,1l.28-.15c.34.21.16.52.06.73s-.32.34-.54.56a5,5,0,0,1-.89-.47.79.79,0,0,0-.89-.17V195c-.32.46-.32.49,0,1a1.81,1.81,0,0,1,.58,0c.13.05.19.25.22.45l-.46-.21-.24.52a.46.46,0,0,1-.44.29c-.24,0-.28-.16-.37-.34a5.62,5.62,0,0,0-.56-.78l-.07.68H118c0,.22.1.43.12.65s0,.43,0,.79l-.82-.65c0,.05-.11.08-.12.13-.07.43-.32.57-.74.55s-.43.1-.38.51a.56.56,0,0,1-.11.4,7.66,7.66,0,0,1-.9.81c-.34.26-.72.46-1.06.69.16.44.07.57-.46.69a.72.72,0,0,0-.48-.77l-.28.3.26.54a2.42,2.42,0,0,1-.29-.17.71.71,0,0,0-.87-.11,1.35,1.35,0,0,1-1,.19c.12.3.55-.1.64.33l-.32,0,.16.42c-.41,0-.78.06-1.14.12s-.61.14-.92.21c-.07,0-.15.11-.19.09-.39-.17-.54.15-.72.35s-.29.35-.67.22a1,1,0,0,0-.26-.11c-.18,0-.37,0-.62-.06l-.64-.75c-.33.1-.63.3-.88.25a2.86,2.86,0,0,1-.85-.53,2.59,2.59,0,0,1-.59-.52,3.28,3.28,0,0,0,1.83.36,7.54,7.54,0,0,0-.74-1.05c-.19-.19-.15-.29,0-.44s.23-.25.34-.37l-.06-.1-.9.16v.33c-.14-.3-.39-.35-.66-.43a6.48,6.48,0,0,1-1.94-1l.23-.41a2,2,0,0,0-.42-.37,8.49,8.49,0,0,0-5-1.08,2.11,2.11,0,0,0-.68.23,2.07,2.07,0,0,0-.38.43h-.23a.77.77,0,0,1,0-.15,1.81,1.81,0,0,0-.76-1.18q-2.55-1.9-5.16-3.73c-.37-.26-.33-.58-.33-1a5.1,5.1,0,0,0-2.92-.1,2.86,2.86,0,0,0-.64.43l-2.07-1.57-.1.08.28.52c-.26-.14-.41-.26-.57-.32a1.72,1.72,0,0,0-.69-.13.73.73,0,0,1-.71-.33c-.06-.07,0-.24,0-.36s-.06-.36-.29-.37-.52,0-.79,0c-.1-.29.1-.41.3-.5s.49-.17.73-.26a4.18,4.18,0,0,0,.61-.27.45.45,0,0,0,.18-.63,4.48,4.48,0,0,0-1.41-1.73s0-.12-.08-.17l-.57-.81-.73,1.29.1-1.14a1.13,1.13,0,0,0-1,.48,5.27,5.27,0,0,0-.91,3,.45.45,0,0,1,0,.18c-.3,0-.38-.27-.51-.46-.29-.41-.57-.83-.86-1.23a2.4,2.4,0,0,0-1.51-1c-.44-.11-.87-.2-1.3-.33a1.55,1.55,0,0,1-.63-.43l.85.09a5.67,5.67,0,0,0-2.31-1.12l.54-.32a4.15,4.15,0,0,0,.57-.35c.35-.28.34-.5,0-.73a6.59,6.59,0,0,0-4-1,1.38,1.38,0,0,0-1.13.51l3.83,1.35,0,.15a2.62,2.62,0,0,1-.56,0c-.52-.11-1-.25-1.57-.39a1,1,0,0,0-1,.16l-2.54-1.82,0-.06.95.2c.12-.28,0-.35-.17-.41a2.07,2.07,0,0,1-1-1.24,35.84,35.84,0,0,0,7.18-.37.84.84,0,0,0-1.2-.08l.08-.33c-.32-.2-.32-.2-.73,0l.06-.58-.68.12.12-.5c-.52-.07-1,0-1.5-.06a4.56,4.56,0,0,0-1.55.12c-.5.08-1,.2-1.47.32s-1,.29-1.49.43c-.79-.59-.71-1.08.36-2.06a3.52,3.52,0,0,0-2.38-.57l-.89.07a3.75,3.75,0,0,1-2.08-.49,1.23,1.23,0,0,0,.11.23l.18.24a.66.66,0,0,1-.23,0c-.7-.42-1.4-.84-2.09-1.28a.58.58,0,0,1-.17-.33,1.56,1.56,0,0,1,.21-1.21l-2.3-.12.77-1.19a1.37,1.37,0,0,0-1.87.6l-1.8-2.62c-.39.2-.41.26-.36,1.39a4.85,4.85,0,0,1-2.14-1.28l.32,0A1.19,1.19,0,0,0,51,170c.28-.56.51-1.15.77-1.73a1.48,1.48,0,0,0-.89-.14c-1.49.18-3,.33-4.62.5l1-.88a6.19,6.19,0,0,1-2.58-.73,33.9,33.9,0,0,1-4.32-2.43c-.14-.09-.35-.14-.24-.41,0-.08-.13-.26-.24-.35s-.53-.42-.79-.62l-.72-.59a1.59,1.59,0,0,0-.91-.39c-.53-.05-1.07-.11-1.6-.21A2.59,2.59,0,0,1,34,161c.16.09.31.2.48.28.46.21.91.42,1.37.6a.55.55,0,0,0,.69-.2c-1.44-.72-2.84-1.44-4.25-2.12a1.64,1.64,0,0,0-1.54-.05c-.36-.3-.74-.59-1.1-.91s-.22-.23,0-.54l-3.32-1.5.84-.79h1l-.92.75c1.22.77,2.72,1,3.69,2.15a4.46,4.46,0,0,1,2.27-.47l0-.12c-.23-.11-.46-.24-.7-.33s-.45-.3-.76-.16c-.53-.62-1.43-.6-2.15-1.06A15.47,15.47,0,0,1,31.86,153a1.33,1.33,0,0,1,.47-.29c1.21-.57,2.43-1.13,3.64-1.68.25-.12.56-.17.43-.64l1.05.41.38-.67.38.17c0-.06.12-.12.11-.14-.12-.34.09-.49.35-.54a1,1,0,0,0,.9-.83c.47.31.55.3.78-.06.15,0,.38.12.43.06a6.32,6.32,0,0,1,.74-.63c.1-.09.11-.29.14-.45a2.92,2.92,0,0,0,0-.42c.75,0,1-.59,1.46-1s1-.76,1-1.5l.34.25c.27.44-.5.56-.13,1l.56-.64-.36-.67c.19.12.31.21.43.27a1.11,1.11,0,0,0,.26.07c.26.06.32-.36.65-.24s.47-.14.66-.33a1.94,1.94,0,0,1,.35-.2l-.43-1.15.43-.07-.1-.91.38.33.14-.21L48,143.9l.92-.31L47.21,141l1,.57.12-.81.08,0,.17.49.32-.41.63,1.27a.41.41,0,0,0,.4-.49,3.58,3.58,0,0,0-.53-1.78l-.26,1H49l-.13-1.52.6-.14c0,.32,0,.64.45.65.17,0,.32.22.35.46a8.8,8.8,0,0,0,.19,1l.29-.19.12.25.1,0L50.63,140l.1-.06.82,1.16c.18,0,.26-.13.22-.31a3.38,3.38,0,0,1-.19-1.48s-.1-.13-.17-.23l.51-.25.68.82-.07-.81.56.85.1,0-.4-1,.88.52.06-.06-.69-1,.38-.32.51,1.3.36-.27h0c.13,0,.25-.09.2-.27s-.06-.28-.12-.53l.26.29.64-.94a1.34,1.34,0,0,0,.13-.23.56.56,0,0,1,.82-.36c.18.08.43-.08.54.17.51-.41.52-.43.17-1.29l.59.32.19-.67c.11.12.28.22.26.29-.07.33-.2.65-.33,1a.26.26,0,0,0,.36.16.61.61,0,0,0,.48-.61c0-.33-.07-.66-.1-1,0-.11,0-.22,0-.33a7.63,7.63,0,0,1,1,0,1.4,1.4,0,0,1,.42.24l.17-.31.44.11v-.75l-.53-.11c.18-.31.71-.06.62-.66l.36.41c.43-.35.74.14,1.13.17.18-.43-.13-.77-.2-1.15l-.39-.11c.28-.09.5-.16.71-.25a1.05,1.05,0,0,0,.3-.22l.61-.57a4.06,4.06,0,0,0-.23-.4c-.1-.15-.3-.23-.27-.5.37.24.5.72,1,.83l-.15-.85.07,0,.3.4c.25,0,.55.13.62,0s.38-.06.53-.07l.23-1.07.5.42c-.1.29-.21.58.07.85a1,1,0,0,0,.24-.75c0-.26.19-.48.32-.43.31.1.25-.22.37-.26l.52.2c.22-.49-.16-.87-.11-1.36l.35.25a.47.47,0,0,0,0-.16.66.66,0,0,1,.1-.72c.42-.46.41-.47.34-1,.2.08.21.22.19.39-.06.62-.06.62.43.94l-.14.21c.3.17.41.16.47-.09a7.59,7.59,0,0,0,.08-.82l.56.73a.43.43,0,0,0,.14-.64c-.08-.14-.21-.26-.3-.39a.59.59,0,0,1-.13-.41l.58.48c.13-.43.43-.52.82-.5s.63-.39.74-.76c.07-.22.14-.44.22-.72l.7.52.22-.39.38.77c.2-.06.06-.47.4-.36,0-.16.15-.37.09-.49s0-.33.13-.39a.42.42,0,0,1,.35,0,.28.28,0,0,1,0,.44c-.08.08,0,.28,0,.39l.7.21-.29-.84.53-.41.62.37.08-.65.46.4,0-.74c.06-.25-.44-.3-.2-.68l.71.25.06-.1-.29-.38c.44-.11.61.37,1,.48l-.23-.47A.94.94,0,0,1,77,123c.08-.1.27-.11.36-.2.26-.28.52-.41.88-.17,0,0,.08.06.09,0,.37-.23.8-.15,1.19-.26.18,0,.3-.31.48-.53a2.06,2.06,0,0,0,1.73-1.9c.24.06.46.12.69.16s.41.08.71.14a2.19,2.19,0,0,0,.23.28,3,3,0,0,0,.37.28l.62-.77-.44-.47.16-.33.77.14c.26-.18.36-.5.67-.63a6.48,6.48,0,0,0,.84-.51l0-.56.42.18a1.62,1.62,0,0,1,.15-.5.25.25,0,0,1,.45,0,.15.15,0,0,0,.14,0c.24-.24.58-.21.86-.35.09,0,.25.09.37.08s.52-.1.8-.16l-.18-.37a3.44,3.44,0,0,1,.59-.08,1.36,1.36,0,0,0,1-.35,24.5,24.5,0,0,1,4.16-2.59l.29-.12a3.31,3.31,0,0,1,.14.36c.27,1,.54,2.08.8,3.13a3.21,3.21,0,0,0,.76,1.3l.39-.47.43,1-.1.07-.67-.55c-.22.41.2.67.19,1a3.94,3.94,0,0,0,.33,1.09.91.91,0,0,1,1,.2l-.84.2.42,1,.94-.32-.07,1h-.59l.4.65H100l-.72,1a13.06,13.06,0,0,0,1.34-.25c.33-.11.51.23.82.14-.52.43-1.18.32-1.71.59,0,.32.18.31.41.24l1.81-.55.3-.09-.3.34.5.06-.44.12a2.5,2.5,0,0,0,1.5.1c0,.16,0,.26-.21.3a3.62,3.62,0,0,0-.55.2,8,8,0,0,1-.8.23c-.53.09-1.07.14-1.6.23a2.05,2.05,0,0,0-.41.16l0,.14,2-.37,0,.07-1.41.45v.06l2.07-.24c0,.38-.37.3-.54.44,0,.09.11.2.09.29s-.14.16-.21.24a.34.34,0,0,0,0,.1l-1.46.48v.09c.34,0,.69-.09,1-.16.51-.12.73,0,1.1.46l-.2.14-.22.16c.15.46.5.44.82.39l.26.31a.07.07,0,0,1,0,0c-.09,0-.19.08-.26,0-.63-.25-1.18,0-1.87.24a14.22,14.22,0,0,0,2.52-.06l-.53.46c-.12.11-.35.15-.31.39l-.93,0v.11l.92-.15a2,2,0,0,0,.32.1c.18,0,.37,0,.67,0l-.64.7a1.42,1.42,0,0,0,.29,0c.18,0,.36-.06.54-.09,0,.27.23.19.36.25a.55.55,0,0,1,.33.5l.5-.08a1,1,0,0,0-.65.72l.59.08c-.25.42-.7.11-1.11.38l.77.07-.14.54c.51.05,1.12-.33,1.56.29l-1,.33c.07.25.33.06.48.2l-.48.22,0,.1.53-.1c.16,0,.31-.1.57-.19l-.29.22-.06.59c.47.32,1,.17,1.22-.43l.37-.1.4-.09-.32-.36.21-.25-.19-.27.3-.32.5.12-.26-.51.37-.07-.51-.7.54-.11-1.1-1a4.13,4.13,0,0,1,.88,0,3.22,3.22,0,0,0,1.9.1l-.5-.27c0-.38.32-.24.58-.35l-.48-.32a1,1,0,0,0,0-.38c0-.11-.16-.19-.25-.28.22-.19.22-.19.53-.11,0-.17,0-.25-.19-.32l-1.16-.54.47-.27a.5.5,0,0,1,.19-.1c.16,0,.32,0,.48,0-.05-.16,0-.2.16-.28a1.07,1.07,0,0,0,.34-.36c.15-.29.4-.28.73-.25l-.34-.64.49.08-.2-.27.26-.07-.71-.66.25-.27-.51-.3h0l.58-.3-.44-.64,1-.1v-.11a2.29,2.29,0,0,1-.31-.18c-.17-.13-.33-.28-.49-.42s-.14-.24-.24-.27c-.32-.1-.37-.32-.34-.63.21,0,.43-.11.65-.15s.42-.06.53-.07l.57-.38-.4-1.14.56-.26h0c0,.36.28.28.45.34a1.83,1.83,0,0,0,.47,0c-.21-.53-.72-.48-1.13-.75l.56-.14,0-.42.74.58a11.19,11.19,0,0,1,.93-3.57l.22.94a3.6,3.6,0,0,1,.58,0c.06,0,.11.13.16.21.32-.51-.3-.72-.34-1.15l.45.11a17.92,17.92,0,0,0-.15-2.43c.38-.13.42.27.73.39l.82-.24a.73.73,0,0,1,.37-.08.77.77,0,0,0,.68-.23l-.09.32a3,3,0,0,0,1.65.6,3.1,3.1,0,0,0,1.68,1.94,2.58,2.58,0,0,1,1.45,1.26l.9-.48-.12.68.08.06.37-.35a1.06,1.06,0,0,1,.58.54c.23.35.38.78.9.82,0,0,.08,0,.08.06,0,.53.44.3.73.42-.11.42.17.67.5.86.54.32,1.09.62,1.65.94l.15-.35c.44.2.89.38,1.31.6,2.72,1.35,5.2,3.1,7.78,4.68.59.36,1.18.7,1.87,1.1l-.21-.45a8.46,8.46,0,0,1,2.79,1.81l-.63-.24a1.45,1.45,0,0,0,.72,1.39,1.83,1.83,0,0,0,.63-.06,1.57,1.57,0,0,0,.2.46,1.7,1.7,0,0,0,.48.29l.17-.48a.7.7,0,0,1,.62.37c.19.26.24.59.48.8a6.78,6.78,0,0,0,.75.67c1.07.76,2.16,1.51,3.24,2.25a1.37,1.37,0,0,1,.44-.24c.17,0,.21.19.31.32a8.84,8.84,0,0,0,.81.89l.14-.68c1.8,1.42,3.54,2.81,5.31,4.22l.42-.51-.11.69a2.83,2.83,0,0,0,.31.26c.8.56,1.61,1.13,2.42,1.67a2.11,2.11,0,0,0,.6.18l.37-.4a3.34,3.34,0,0,1,.89.37c.15.11.16.41.16.64a6.75,6.75,0,0,1,.47.59c0,.06,0,.17,0,.29a.48.48,0,0,0,.18.07,3.63,3.63,0,0,1,1.83,1.07c.21.18.38.39.71.38.1,0,.26.13.32.24a6.76,6.76,0,0,1,.23.72l.49-.29-.31.58.33.35c.22-.19.21-.58.59-.31l.14.67.74.22c0,.08,0,.26,0,.28-.37.17-.26.48-.22.75a1.83,1.83,0,0,0,.28.72l0-.45.44-.24c0,.07,0,.12,0,.15a.85.85,0,0,1-.11.26,1.56,1.56,0,0,0-.23,1.36.68.68,0,0,1-.48.93l.82.45a1.89,1.89,0,0,1-.45,0,8.41,8.41,0,0,1-.81-.37c-.42-.24-.82-.51-1.24-.74a2,2,0,0,0-.82-.32,1.16,1.16,0,0,1-.93-.51l-1.82-2-.57.49-1,.17c0-.13,0-.3-.12-.38-.45-.46-.93-.9-1.49-1.44l-.27.55-.26-.44-.67.42a1,1,0,0,1,.44-1.12l-.57-.49-1.15,1.9.12-1.1-.76.23,0-.07.4-.34-.42-.09c.12-.18.22-.36.35-.53s.33-.47.52-.72c-.59-.17-1.48.42-1.93,1.24l.57-.13a.45.45,0,0,1,.5.14,2.36,2.36,0,0,0-1.41.73l-.37-.5.46-.3c-.19-.5.05-.8.44-1.06s.58-.45.92-.72l-.5-.33-.85,1c-.06-.54.31-.83.49-1.22-.09-.21-.23-.21-.39-.07a3,3,0,0,1-1.14.76s-.07.12-.12.22l-.42-.31.47-.94-.52.3,0-.06.46-.72-.09-.07-.76.84.13-1-.07,0c-.14.24-.27.49-.42.72s-.21.25-.32.25-.21-.21-.21-.38h0c.57-.15.73-.69,1.1-1.11l-.44-.28-.81.69-.06-.05.25-.41a1.39,1.39,0,0,1-1.52-.32.56.56,0,0,0-.18-.8c-.06-.06-.15.19-.32,0s-.58-.21-.87.08l-.28.33v-.61l-.64.11.17-.4,1-.11.22-.35-.6-.37-1.39.88a2.11,2.11,0,0,1-.09-1.77c-.29-.22-.28.18-.5.2l-.11-.17-1.29.55,0-.08.27-.39c-.51-.19-.23-.64-.32-1a.76.76,0,0,0-.56.29,2.5,2.5,0,0,1-.22.24c-.17.14-.24.09-.34-.24-.38,0-.84.28-1.14-.24l-.39.31h0l.1-.65-.77.53-.06-.06.27-.44c-.06-.2-.07-.51-.19-.55a.39.39,0,0,1-.24-.42l-.94.24c0-.48,0-.47.43-.66a2.4,2.4,0,0,0,.41-.32l-.06-.12a2.92,2.92,0,0,0-.6.14c-.36.15-.35.17-.64-.19a.15.15,0,0,0-.09,0l-.22,0,0-.6c-.5.11-.69.54-1.1.73l-.09-.27c-.35.32-.73.1-1.11.06h0s0-.08,0-.11c.13-.22.26-.45.43-.72l.21-.06c0-.35-.15-.35-1.06,0l.23-.4c.07-.12.14-.25.23-.43-.8-.12-.71.66-1.16,1L135,133a2.14,2.14,0,0,1-.53-.24,1.68,1.68,0,0,1-.24-.46c-.5-.3-1-.1-1.56,0l.19-.82h-.46l.51-.62-.13-.41s0,0-.06,0a2.81,2.81,0,0,0-.7.33c-.13.1-.23.12-.33,0s-.16-.2-.13-.27a.76.76,0,0,1,.27-.32c.09-.05.24,0,.35,0a.14.14,0,0,0,.11-.11c0-.18,0-.35,0-.58-.43,0-.52.4-.73.56l-.51-.29a1.4,1.4,0,0,1,0-.5c.06-.15.23-.25.35-.37l-.1-.11-.7.54,0-.52-.57.2c-.19.09-.09.45-.47.47l-.07-.71-.09,0-.24.45a.62.62,0,0,1,0-.59c.06-.22.16-.42.2-.64s0-.33-.06-.38-.24.06-.32.19-.25.36-.4.57l-.27-.41c.24-.35.24-.36-.13-.62-.14-.09-.16-.34-.43-.26s-.31-.06-.49-.1a.39.39,0,0,1,.58-.18c.19.08.38.18.55-.1-.21-.19-.4-.35-.72-.19s-.58,0-.88-.14a.77.77,0,0,0-.42-.82l-.24.13-.06-.4h-.33c-.55,0-.63-.09-.48-.7l-.56-.3-.68.26.08-.6-.93-.33s-.1,0-.1,0c-.25-.46-.77-.26-1.12-.45s-.73-.44-1.11-.63c-.14-.07-.29-.29-.5,0s-.41.07-.51-.13l.48-.8c-.35-.24-.52,0-.7.19a.94.94,0,0,0-.58-1.22l-.22.15-.13-.24-.27.33L118,120c-.1.33-.18.57-.23.82a29.33,29.33,0,0,1-1,4.46c-.1.29-.21.58-.33.92l.63.43c-.13.2-.25.16-.41,0s-.31-.25-.5,0l.31.38a3.51,3.51,0,0,0-.15.6,6,6,0,0,0,0,.75l.89-.7c-.14.59-.25,1.09-.37,1.59-.07.29-.15.58-.19.87a.86.86,0,0,1-.54.82,1.14,1.14,0,0,0-.45.67,3.37,3.37,0,0,0,.09,2.4,1.74,1.74,0,0,1,0,1.23c-.26-.45-.07-1-.42-1.35a1,1,0,0,0-.42,1.18,8.65,8.65,0,0,1,.21,1.43.88.88,0,0,1-.21.55l0-.84a.44.44,0,0,0-.59.34c-.13.42-.25.86-.36,1.29a4.32,4.32,0,0,0-.1.44l1-.31a4,4,0,0,1-.09.47c-.6,1.89-1.17,3.8-1.84,5.67a9.56,9.56,0,0,1-1.28,2.4,6.07,6.07,0,0,1-9.37.3,10.43,10.43,0,0,1-1.19-2,.32.32,0,0,1,0-.16c.15-.57-.18-1-.33-1.55-.2-.66-.45-1.3-.65-2a2.41,2.41,0,0,1-.08-.6.37.37,0,0,1,.3-.4c.2.46.2.46.52.63a3.17,3.17,0,0,0-.18-1.94c-.5.26-.79-.3-1.25-.31-.21.34,0,.68,0,1.13-.38-.55-.7-1-1-1.46a1.07,1.07,0,0,0-.59-.47,2,2,0,0,1-1.14-1.09,9.37,9.37,0,0,1-.8-2.43c-.26-1.14-.5-2.29-.8-3.42-.13-.54-.41-1-.55-1.57-.33-1.3-1.07-2.47-1.29-3.8-.06-.4-.1-.81-.15-1.22a4.18,4.18,0,0,0,0-.61,1.63,1.63,0,0,1,.18-1.56l-.7-.29a9.56,9.56,0,0,1-1,.86,9.18,9.18,0,0,1-1.15.52l-.23-.38a1.08,1.08,0,0,0-.14.23,2.91,2.91,0,0,1-2,1.95,19.62,19.62,0,0,0-2.65,1.52c-.18.1-.35.22-.51.32-.55-.33-.71-.35-1.23,0s-.75.55-1.12.84a21.69,21.69,0,0,0-1.87,1.58c-.38.38-.91.38-1.3.71-.11.1-.37,0-.64,0l.12,1.52-.52.14-.14-.49-.72-.25-.47.39c.45.16.14.59.45.86-.49,0-.51-.36-.69-.62-.31.26-.62.52-.94.76s-.52.66-1,.54A2.72,2.72,0,0,1,73,134.13c-.7.29-1.43.53-2.14.78-.19.07-.39.12-.2.43l-.6-.1-.15.42c-.15.08-.33.11-.35.19-.07.3.22.28.44.39a2.26,2.26,0,0,0-.41.19c-.54.36-1.11.69-1.61,1.1s-.9.88-1.35,1.33A3.37,3.37,0,0,1,65.08,140l.26.44-.06.05-1-.79.2.94-.08,0L64,140.2l-.41.14a1.25,1.25,0,0,1,.13.4c0,.11-.1.22-.17.37l.66.55,0,.1a2.79,2.79,0,0,1-.74-.24.66.66,0,0,0-.83-.12l-.55-.48c-.28.17-.33.58-.72.47,0,0-.1.18-.15.27l-.53-.18c-.22.5.22.88.16,1.39l-.34-.27s-.06.06,0,.08a.72.72,0,0,1-.24,1c-.32.23-.16.55-.13.85H60a2,2,0,0,1-.05-.49c0-.36,0-.63-.47-.72l.11-.29c-.34-.12-.43-.1-.46.18a7.32,7.32,0,0,0,0,.84l-.61-.74c-.31.33-.31.43-.05.75s.32.38.48.57l-.08.09-.59-.42c-.12.14-.21.32-.35.4a1.25,1.25,0,0,1-.48.1,1.11,1.11,0,0,0-.74.84c0,.16-.07.32-.12.49s-.06.08-.12.16l-.66-.43-.21.37-.38-.68-.5,0a4,4,0,0,0,0,.84c0,.15,0,.26-.07.31a.56.56,0,0,1-.4,0c-.08,0-.17-.28-.13-.32.38-.41,0-.53-.25-.69a1.32,1.32,0,0,1-.23-.21c-.21.45.11.73.21,1l-.54.47a1.13,1.13,0,0,1-.68-1c-.29.34-.11.51-.05.68a.46.46,0,0,1,0,.56l-.4-.33c-.14.23.25.55-.11.74,0,.25.52.28.33.69l-.77-.24,0,.09.37.42a.7.7,0,0,1-.66-.23,6.26,6.26,0,0,0-.57-.45c-.08,0-.23,0-.35,0a.88.88,0,0,0,.06.29c.13.24.29.46.45.71l-.59,0-.16-.32a2,2,0,0,0-1.27,1.06.57.57,0,0,1,.13-.7c.31-.33.3-.33,0-.76l-.3.18-.14-.32c-.36.09-.54.27-.43.67a.59.59,0,0,0,.13,0l.13-.1c.35.41.34.44-.35,1.27a7,7,0,0,1-.92-.44c-.5-.32-.49-.34-1,0,0,0,0,.08,0,.11s.1.19.14.27a2.65,2.65,0,0,1,.66.08c.11,0,.16.22.3.43l-.54-.2a1.09,1.09,0,0,0-.08.15,1.68,1.68,0,0,1-.17.41.69.69,0,0,1-.4.23c-.09,0-.24-.15-.3-.26a1.09,1.09,0,0,0-.53-.55c-.22.36-.41.67-.2,1.1a2.59,2.59,0,0,1,0,.75l-.83-.62s-.1.09-.11.14c0,.4-.24.57-.66.57s-.41.08-.32.52A.5.5,0,0,1,43,153a7.36,7.36,0,0,1-.71.77,5.9,5.9,0,0,1-.65.46,10.16,10.16,0,0,1,1,.61,10.11,10.11,0,0,1,.85.87l.87-.47-.17.94.08,0,.43-.57a1.48,1.48,0,0,1,.74.72c.25.38.48.77,1,.76l-.08.4.84.09a.77.77,0,0,0,0,.26,1.23,1.23,0,0,1-.32,1.59c.44-.16.44-.16.67-.51l1.19.21c.36.38,1.15.51,1.35,1.29l.52,0,.29-.69.45.36-.14.77.57-.12h0l-.12.49c.31-.06.47-.39.8-.3-.53.42-.55.5-.2.84l.43-.75c1,.74,1.57,1.88,2.5,2.47a4,4,0,0,0,.26.73.58.58,0,0,1,0,.62,1.56,1.56,0,0,0,0,.49c.33-.21.5-.4.4-.75A2.25,2.25,0,0,0,57,164q.52-.5.78.15a2,2,0,0,0,1.1,1.23c.16.06.26.3.36.47s.17.36.29.62c.11-.17.25-.31.22-.35-.27-.45.18-.41.32-.59.28.26.53.5.79.73s.58.33.71.69l-.43.1c.23.12.52.09.56.45,0,.07.31.12.48.15a.83.83,0,0,0,.27-.06c0,.38-.55.43-.42.86.41,0,.64-.31.9-.54a8.19,8.19,0,0,0,.66-.71c.26.39.49.77.75,1.13s.36.45.25.8A3.81,3.81,0,0,0,66,167.74l.29.35.7-.46.05.66L66,169.6c.37.13.74-.33,1,.16l1.27-2.41v1.11l.75-.26,0,.05-.35.4.52,0L68.33,170a2.11,2.11,0,0,0,2-1.32l-1,.19c.14-.33.43-.35.64-.48s.38-.29.61-.46l.42.51c-.3.13-.53.23-.38.62.09.23-.09.46-.31.65-1,.82-1.9,1.66-2.86,2.5l.49.36a21.37,21.37,0,0,0,2.8-2.76,1.56,1.56,0,0,1-.32.92c-.16.26-.33.52-.57.88a2.68,2.68,0,0,0,1.13-.76c.3-.23.62-.44,1-.69l.39.26-.35,1,.64-.38-.55.95.09.07.77-.92-.08,1.17a3.45,3.45,0,0,0,.51-.93c.12-.26.29-.3.46-.13s0,.26,0,.38Zm79.23,0,.18.5.14-.07-.33-.42.29-.63-.8-.45A2.06,2.06,0,0,0,153,171.55Zm-10.53,9.72.33.22c0-.43,0-.43-.74-1.29l-.23.52c.19.13.36.23.52.35a1.1,1.1,0,0,1,.14.21c-.25.5,0,.94.15,1.4.26-.09.24-.25.18-.42ZM40.61,159.52h-.14c.29-.59,0-.92-.43-1.2,0,0-.19-.06-.22,0-.23.24-.18-.16-.32-.13l-.29.33c-.23-.41-.4-.78-.63-1.11s-.53-.64-.83-1c-.43-.09-.75-.1-.84.11s-.26.18-.42.19l-.26.05c.14.15.32.26.39.43.17.45.15.45.59.31l.24-.07a10.05,10.05,0,0,0,3.6,2.54l.22-.68-.4-.09Zm2.58,1.57c-.17.33,0,.42.21.53a19.09,19.09,0,0,1,1.66,1.17c.32.26.64.54.94.8.22-.33.36-.76.63-.88s.4-.54.61-.82c-.29-.12-.49.36-.72,0-.39.2-.63.67-1.16.59l.24-1c-.5.16-.82.09-1-.39-.09-.3-.28-.29-.55-.1a.73.73,0,0,1-.38.14A2.15,2.15,0,0,1,43.19,161.09Zm3.58,2.64-.37-.29c-.08.09-.2.18-.21.29-.06.42.76,1,1.12.74s.38-.16.41.18c0,0,.1.08.13.11l.48-.56c.06-.33.13-.67.2-1a3.88,3.88,0,0,0,.11-.49.39.39,0,0,0-.13-.25,2.2,2.2,0,0,0-.59.23c-.14.09-.16.25-.06.44.19.36.17.37-.18.73l-.08-.56Zm110.48,4.19a1.61,1.61,0,0,0-.18,1.31l.45-.09-.28-.33.07-.07.51.26a2.75,2.75,0,0,1,.57-.65,1.23,1.23,0,0,0,.59-.73,7.28,7.28,0,0,0-.63-.83c-.2-.2-.43-.08-.44.21s0,.52,0,.78,0,.48-.32.57Zm-48.46-31.44c-.65-.42-1.38-.68-2-1.11,0,0-.07-.05-.1,0a1.44,1.44,0,0,0-.29.09c.06.22-.11.17-.22.21l-.43.16,0,.13.82.06c-.17.23-.36.34-.55.26s-.51.06-.85.29l.85-.14c.27.34-.19.32-.21.5a.46.46,0,0,0,.6-.07c.16-.16.36-.27.5-.44a.64.64,0,0,1,.41-.2,1.4,1.4,0,0,1,1.16.22A1,1,0,0,0,108.79,136.48Zm52,30.07-.32-.64c-.41.07-.4.36-.46.6a1,1,0,0,0,.13.67,4,4,0,0,0,.41.63c.16.25.49-.09.58.22C161.7,167.17,161.65,167,160.8,166.55ZM98.29,192.84l-.11-.07a2.13,2.13,0,0,1-.33.34.79.79,0,0,1-.48.19,5.61,5.61,0,0,1-.86-.27,5.32,5.32,0,0,0,2.14,1.65C98.1,194.14,97.79,193.57,98.29,192.84Zm7.15,5.15a6.39,6.39,0,0,1-2.61-1.64l-.6.18c.16.12.26.2.36.26a2.42,2.42,0,0,1,.66.4,3.31,3.31,0,0,0,1.32.76A.88.88,0,0,0,105.44,198Zm45.2-24.71c.43-.15.57-.36.51-.67s-.18-.79-.26-1.15l-.55.21Zm1.88,2.41a2.32,2.32,0,0,0-.18-2.14A2,2,0,0,0,152.52,175.69ZM49,165.36c0-.18,0-.32.07-.34a.92.92,0,0,1,.37-.05.44.44,0,0,0,.5-.3c-.14-.21-.25-.12-.38,0a.7.7,0,0,1-.64.11c-.37-.17-.47-.1-.46.32a1.37,1.37,0,0,1-.05.35Zm51.68,30.49c-.56-.83-1.06-1.08-1.59-.8ZM155.41,176l-.07,1,1-.44Zm-52.8-51a2.17,2.17,0,0,0-1.76.21A3.33,3.33,0,0,0,102.61,125ZM42.79,161c-.6-.56-1-.76-1.38-.7a3.8,3.8,0,0,0,1.19.79S42.72,161,42.79,161Zm35.39-30.08c0-.38.22-.7.09-1.09C77.73,130.23,77.72,130.37,78.18,130.89ZM49.47,164.15l.05.16,1-.14c0-.28-.14-.39-.38-.31A5.79,5.79,0,0,0,49.47,164.15Zm56.6-25.44a2,2,0,0,0-1.31.33C105.29,139.24,105.66,138.91,106.07,138.71Zm-11.84,53a3.49,3.49,0,0,0,1.19.67l-.6-.73Zm47-13.28.12-.09-.27-.78h-.11l-.2.51Zm-28.3-53.36v.12c.33.13.59.43,1.09.42a2.33,2.33,0,0,0-.91-.59S113,125.05,112.89,125.07Zm34.24,50.79c.28-.51.25-.62-.29-1.22ZM114,124.45l.12-.06c0-.1,0-.26-.11-.3a.62.62,0,0,0-.77,0ZM149.53,135l-.06.07.3.57c.06.12.15.23.28.11a.31.31,0,0,0,0-.28C149.9,135.32,149.71,135.18,149.53,135Zm-8.19,44.6h.13c.18-.34-.05-.63-.2-.93ZM105.22,139.8c.49.13.53.12.86-.38Zm-23.32-19-.52.56C81.85,121.41,81.86,121.1,81.9,120.81Zm-31,45.36.35.11c.07-.18.14-.36-.1-.41S50.87,166,50.88,166.17ZM102,195.84c-.24.07-.33.22-.29.42s.13.07.25.14Zm17.42-4.67c-.25.2-.35.35-.2.61C119.47,191.68,119.43,191.48,119.37,191.17Zm-41-14.87-.43.56C78.35,176.9,78.42,176.71,78.34,176.3Zm40.11,16.34-.34-.5C118,192.65,118,192.65,118.45,192.64Zm-57.82-26,.12.67C61.07,167.07,61.07,167.07,60.63,166.66Zm80.09,17.13,0,.41.53,0v-.08Zm-62.55-6.24,0-.5-.1,0-.26.4Zm28,22.18c-.24-.39-.24-.39-.56-.23Zm20.32-75.2c-.16.09-.26.2-.18.38s.14.06.17,0A.24.24,0,0,0,126.47,124.53ZM35.52,152.47l-.07-.13-.54.35.06.09Zm65.07-22.15,0,.15.51-.22,0-.1Zm-1.16,64.16-.39.08C99.2,194.81,99.32,194.88,99.43,194.48Zm26-4.83-.12,0c0,.11.06.23.1.35s.09,0,.19,0ZM81.06,121.84l.08,0,.18-.29-.07,0Zm32.1-.56c0-.31-.12-.32-.37-.25Zm30.35,56.65.11-.07-.18-.25-.09,0Z" transform="translate(-26.38 -113.45)"/><path class="cls-2" d="M95.42,198.29v-.42l1.3.46-.27-.61a2.84,2.84,0,0,1,2.28,1.45C97.6,199,96.62,198.26,95.42,198.29Z" transform="translate(-26.38 -113.45)"/><path class="cls-2" d="M47.3,169.78l2.09-.94-.21,1.68a5.18,5.18,0,0,0-.83-.51A6.81,6.81,0,0,0,47.3,169.78Z" transform="translate(-26.38 -113.45)"/><path class="cls-2" d="M62.69,179.42c-.06,0-.14,0-.18-.08a.79.79,0,0,0-.95-.2.76.76,0,0,1-.92-.7c0-.27.14-.38.4-.31.43.12.91.16,1.18.62a4.15,4.15,0,0,0,.53.59Z" transform="translate(-26.38 -113.45)"/><path class="cls-2" d="M164.7,166.68c.1.07.23.11.28.2.18.29.33.61.54,1-.64-.11-.48.51-.88.69a6.89,6.89,0,0,1-.21-.7c0-.26,0-.52-.06-.77l.38,0,0-.41Z" transform="translate(-26.38 -113.45)"/><path class="cls-2" d="M98.46,200.07c.53.13,1.18-.07,1.6.64C99.42,200.59,98.84,200.61,98.46,200.07Z" transform="translate(-26.38 -113.45)"/><path class="cls-2" d="M162.46,163.7a2.15,2.15,0,0,1,.24-.48c.05-.07.21,0,.32-.06h0c0,.31.15.53.29.76a.65.65,0,0,1,.1.69c-.29-.23-.29-.23-.53-1.14l-.41.23Z" transform="translate(-26.38 -113.45)"/><path class="cls-2" d="M99,197.8l1.41.66A1,1,0,0,1,99,197.8Z" transform="translate(-26.38 -113.45)"/><path class="cls-2" d="M64.65,130.68l-1.07-1a1.27,1.27,0,0,1,.85.26C64.76,130.18,64.46,130.51,64.65,130.68Z" transform="translate(-26.38 -113.45)"/><path class="cls-2" d="M85.83,176.34a1.24,1.24,0,0,1,.18.87c0,.37-.47.29-.59.55Z" transform="translate(-26.38 -113.45)"/><path class="cls-2" d="M168.5,161.69l.76-.95.15.42s0,.07,0,.08c-.2.18-.4.36-.61.52C168.74,161.79,168.63,161.73,168.5,161.69Z" transform="translate(-26.38 -113.45)"/><path class="cls-2" d="M166.74,152.15l.21-.76.75.5Z" transform="translate(-26.38 -113.45)"/><path class="cls-2" d="M165,164.84c.25.37.69.67.49,1.31a1.52,1.52,0,0,1-.48-1.33Z" transform="translate(-26.38 -113.45)"/><path class="cls-2" d="M139.66,136.09l-.36,1.08a.94.94,0,0,1-.06-.94c.06-.12.22-.17.34-.25Z" transform="translate(-26.38 -113.45)"/><path class="cls-2" d="M84.65,118.82l0-.35-.25.19.69-.5c.32.3.31.37,0,.46S84.64,118.64,84.65,118.82Z" transform="translate(-26.38 -113.45)"/><path class="cls-2" d="M171.68,162.25c-.19.24-.33.39-.45.56s-.29.21-.43,0l.73-.93Z" transform="translate(-26.38 -113.45)"/><path class="cls-2" d="M103,202.42l.37-.64.47.82Z" transform="translate(-26.38 -113.45)"/><path class="cls-2" d="M149.6,179.65l-.23.41-.49-1.25.09,0Z" transform="translate(-26.38 -113.45)"/><path class="cls-2" d="M164.72,166.67l-.75-.42v-.65c.34.39.71.61.74,1.08Z" transform="translate(-26.38 -113.45)"/><path class="cls-2" d="M165,164.82l-.48.33c.08-.29.22-.5-.05-.66,0,0,0-.27.08-.5.24.27.23.6.51.7l-.07.15Z" transform="translate(-26.38 -113.45)"/><path class="cls-2" d="M102.1,127a.34.34,0,0,1,0-.1l1-.26c-.12.21-.17.4-.27.44a2.19,2.19,0,0,1-.63.1S102.13,127.06,102.1,127Z" transform="translate(-26.38 -113.45)"/><path class="cls-2" d="M159.79,172.74l-.21-.22-.2-.14c0-.1,0-.22.09-.3s.22-.17.28-.14a.38.38,0,0,1,.18.29A3,3,0,0,1,159.79,172.74Z" transform="translate(-26.38 -113.45)"/><path class="cls-2" d="M152.6,178.14l.34.15.06.75C152.55,178.77,152.49,178.63,152.6,178.14Z" transform="translate(-26.38 -113.45)"/><path class="cls-2" d="M172.53,151.83l-.28.34-.78-.32s0-.1,0-.19Z" transform="translate(-26.38 -113.45)"/><path class="cls-2" d="M50.54,138.61a.85.85,0,0,1,.35.86l-.38-.11-.08-.69Z" transform="translate(-26.38 -113.45)"/><path class="cls-2" d="M167.73,147.75a1,1,0,0,1-.81,1c.11-.5.54-.69.83-1Z" transform="translate(-26.38 -113.45)"/><path class="cls-2" d="M73.79,171.61l.52,0-.81,1-.07,0,.38-1Z" transform="translate(-26.38 -113.45)"/><path class="cls-2" d="M54.29,138.84l-.68-.8.25-.34a3.8,3.8,0,0,1,.43,1.14Z" transform="translate(-26.38 -113.45)"/><path class="cls-2" d="M155.09,177.93l1.14-.38c-.28.59-.72.48-1.12.51Z" transform="translate(-26.38 -113.45)"/><path class="cls-2" d="M63.49,166.46l-.05.58-.5.06c-.11-.28,0-.43.2-.51l.36-.12Z" transform="translate(-26.38 -113.45)"/><path class="cls-2" d="M113.41,118.18c-.25.32-.4.55-.59.75,0,0-.22-.05-.34-.18l.42,0C113,118.48,112.91,118.19,113.41,118.18Z" transform="translate(-26.38 -113.45)"/><path class="cls-2" d="M152.4,143.81c.23.54-.42.43-.49.74C151.85,144.11,152,144,152.4,143.81Z" transform="translate(-26.38 -113.45)"/><path class="cls-2" d="M71.92,169.17c-.12.28-.18.61-.62.66l0-.37.58-.38Z" transform="translate(-26.38 -113.45)"/><path class="cls-2" d="M150.09,142.09l-.3-.11.69-.8a1.53,1.53,0,0,1-.41.92Z" transform="translate(-26.38 -113.45)"/><path class="cls-2" d="M164.85,162.73l.4.53-.58.06,0-.53Z" transform="translate(-26.38 -113.45)"/><path class="cls-2" d="M165.76,163.64l.77.39,0,.08c-.17,0-.37.09-.49,0s-.23-.29-.33-.44Z" transform="translate(-26.38 -113.45)"/><path class="cls-2" d="M87.69,116.25l-.52,0v-.64Z" transform="translate(-26.38 -113.45)"/><path class="cls-2" d="M167.9,165l.83.32-.47.22-.44-.49Z" transform="translate(-26.38 -113.45)"/><path class="cls-2" d="M80.7,186.34c-.22.73-.27.79-.66.65A2.15,2.15,0,0,1,80.7,186.34Z" transform="translate(-26.38 -113.45)"/><path class="cls-2" d="M163.21,161.83h-.54v-.5C163,161.4,163,161.62,163.21,161.83Z" transform="translate(-26.38 -113.45)"/><path class="cls-2" d="M170,168.2c.2.42.2.42-.13.64C169.69,168.53,169.69,168.53,170,168.2Z" transform="translate(-26.38 -113.45)"/><path class="cls-2" d="M163.76,165.38l0-.64.67.4Z" transform="translate(-26.38 -113.45)"/><path class="cls-2" d="M162.46,163.7l-.66.12-.11-.61.77.49Z" transform="translate(-26.38 -113.45)"/><path class="cls-2" d="M167.39,147.46,167,147l.39-.31.1.06-.12.71Z" transform="translate(-26.38 -113.45)"/><path class="cls-2" d="M168.11,147.77l.44,0-.12.62-.3-.69Z" transform="translate(-26.38 -113.45)"/><path class="cls-2" d="M163,163.16l.39-.38.49.34-.89,0Z" transform="translate(-26.38 -113.45)"/><path class="cls-2" d="M169,146.78l.58-.26-.28.69Z" transform="translate(-26.38 -113.45)"/><path class="cls-2" d="M169.32,162.59l-.55-.16c.09-.21.2-.34.41-.27S169.39,162.39,169.32,162.59Z" transform="translate(-26.38 -113.45)"/><path class="cls-2" d="M168.77,151l-.38-.16.22-.58h.08a2.62,2.62,0,0,0,0,.28C168.71,150.68,168.73,150.8,168.77,151Z" transform="translate(-26.38 -113.45)"/><path class="cls-2" d="M163.26,167s.11.05.12.09.05.26.08.39-.18,0-.23,0a.27.27,0,0,1-.07-.42Z" transform="translate(-26.38 -113.45)"/><path class="cls-2" d="M100.05,123l-.3-.37.53-.12.06.1-.3.39Z" transform="translate(-26.38 -113.45)"/><path class="cls-2" d="M90.26,114.39c.27.07.49.12.33.46C90.38,114.8,90.26,114.68,90.26,114.39Z" transform="translate(-26.38 -113.45)"/><path class="cls-2" d="M166.4,165.88l.28-.43c.19.15.26.32.08.47S166.56,165.9,166.4,165.88Z" transform="translate(-26.38 -113.45)"/><path class="cls-2" d="M168.13,147.75h-.38l-.36-.3,0,0c.3,0,.63-.16.74.29Z" transform="translate(-26.38 -113.45)"/><path class="cls-2" d="M165.19,164.64l.23-.48.42.34Z" transform="translate(-26.38 -113.45)"/><path class="cls-2" d="M168.33,162.11l-.39-.56C168.43,161.61,168.43,161.61,168.33,162.11Z" transform="translate(-26.38 -113.45)"/><path class="cls-2" d="M161.35,166a.33.33,0,0,1-.11-.53C161.58,165.72,161.58,165.72,161.35,166Z" transform="translate(-26.38 -113.45)"/><path class="cls-2" d="M167.53,149.82c0-.36,0-.36.48-.29Z" transform="translate(-26.38 -113.45)"/><path class="cls-2" d="M171.28,149.23l.32-.53C171.72,149.08,171.72,149.08,171.28,149.23Z" transform="translate(-26.38 -113.45)"/><path class="cls-2" d="M105.34,131.85l.8-.34C105.79,131.89,105.79,131.89,105.34,131.85Z" transform="translate(-26.38 -113.45)"/><path class="cls-2" d="M158.63,165l.19.59c-.37-.17-.28-.4-.32-.57Z" transform="translate(-26.38 -113.45)"/><path class="cls-2" d="M166.15,160.81l-.36-.56C166.24,160.34,166.24,160.34,166.15,160.81Z" transform="translate(-26.38 -113.45)"/><path class="cls-2" d="M165.12,151.45l-.53-.51C165.07,150.86,165.07,151.18,165.12,151.45Z" transform="translate(-26.38 -113.45)"/><path class="cls-2" d="M167.14,161.32l-.33-.37C167.07,160.9,167.07,160.9,167.14,161.32Z" transform="translate(-26.38 -113.45)"/><path class="cls-2" d="M91.57,115.43l-.39-.35C91.54,115,91.54,115,91.57,115.43Z" transform="translate(-26.38 -113.45)"/><path class="cls-2" d="M102.73,125.52l.61-.08,0,.09-.6.16Z" transform="translate(-26.38 -113.45)"/><path class="cls-2" d="M160.42,172.87l0-.49h.13v.5Z" transform="translate(-26.38 -113.45)"/><path class="cls-2" d="M171.43,149.73c.2.37,0,.47-.23.56Z" transform="translate(-26.38 -113.45)"/><path class="cls-2" d="M83.41,120.3l-.12-.51C83.48,119.93,83.62,120.07,83.41,120.3Z" transform="translate(-26.38 -113.45)"/><path class="cls-2" d="M43.56,144.58v.47C43.38,144.87,43.38,144.87,43.56,144.58Z" transform="translate(-26.38 -113.45)"/><path class="cls-2" d="M168.18,164.06l.25.45C168.15,164.4,168.15,164.4,168.18,164.06Z" transform="translate(-26.38 -113.45)"/><path class="cls-2" d="M160,147.7l-.39.25-.08-.09a.81.81,0,0,1,.19-.18.85.85,0,0,1,.22-.09Z" transform="translate(-26.38 -113.45)"/><path class="cls-2" d="M159.5,170.68l-.05.58C159.25,171,159.25,171,159.5,170.68Z" transform="translate(-26.38 -113.45)"/><path class="cls-2" d="M63.41,165.86l-.43.26-.09-.13.44-.26Z" transform="translate(-26.38 -113.45)"/><path class="cls-2" d="M136,134.45l-.63.27c.11-.35.34-.39.63-.27Z" transform="translate(-26.38 -113.45)"/><path class="cls-2" d="M167.22,163.77c.2.27.2.27,0,.37Z" transform="translate(-26.38 -113.45)"/><path class="cls-2" d="M110.51,124.86l-.6-.22,0-.09.54.32Z" transform="translate(-26.38 -113.45)"/><path class="cls-2" d="M112.07,117.68c-.3.2-.38,0-.58-.15Z" transform="translate(-26.38 -113.45)"/><path class="cls-2" d="M162.48,173.57l-.28.33-.08-.07.29-.32Z" transform="translate(-26.38 -113.45)"/><path class="cls-2" d="M51.83,160.73a.43.43,0,0,1,.53-.24l-.54.23Z" transform="translate(-26.38 -113.45)"/><path class="cls-2" d="M141,137.06a1.05,1.05,0,0,1-.2.56l-.14-.07c.11-.17.21-.34.32-.5Z" transform="translate(-26.38 -113.45)"/><path class="cls-2" d="M166.08,163.21l-.19-.43.11-.05.22.4Z" transform="translate(-26.38 -113.45)"/><path class="cls-2" d="M147.79,140.27l-.24.1-.05-.13.25-.06Z" transform="translate(-26.38 -113.45)"/><path class="cls-2" d="M162.83,169a1.76,1.76,0,0,1-.25,0s0-.08-.05-.13.1-.05.15,0S162.75,169,162.83,169Z" transform="translate(-26.38 -113.45)"/><path class="cls-2" d="M169.56,150.09l-.25.34-.09-.06.23-.37Z" transform="translate(-26.38 -113.45)"/><path class="cls-2" d="M155.63,167l.3.16-.05.1-.31-.14Z" transform="translate(-26.38 -113.45)"/><path class="cls-2" d="M169.18,149.25h.23l0,.14-.21-.07Z" transform="translate(-26.38 -113.45)"/><path class="cls-2" d="M63.5,166.47l.42-.13c-.14.2-.14.2-.43.13Z" transform="translate(-26.38 -113.45)"/><path class="cls-2" d="M74.61,133.3l.25-.37L75,133l-.22.39Z" transform="translate(-26.38 -113.45)"/><path class="cls-2" d="M170.37,148.52l-.09.22-.08,0,.05-.24Z" transform="translate(-26.38 -113.45)"/><path class="cls-2" d="M133.56,191.2l.23.12-.08.11-.2-.16Z" transform="translate(-26.38 -113.45)"/><path class="cls-2" d="M56.71,136.33l-.18.12s-.07-.09-.06-.12.06-.11.1-.11S56.65,136.28,56.71,136.33Z" transform="translate(-26.38 -113.45)"/><path class="cls-2" d="M59.38,144.76l.22.16-.05.08-.24-.13Z" transform="translate(-26.38 -113.45)"/><path class="cls-2" d="M167.06,162.68l.21.16-.06.08-.21-.17Z" transform="translate(-26.38 -113.45)"/><path class="cls-2" d="M160.44,166.58l.35.8C160.44,167.41,160.36,167.25,160.44,166.58Z" transform="translate(-26.38 -113.45)"/></svg>