<svg id="Layer_1" data-name="Layer 1" xmlns="http://www.w3.org/2000/svg" viewBox="0 0 424.98 302.81"><defs><style>.cls-1{fill:#70706f;}.cls-2{fill:#39a8e0;}</style></defs><title>IWKPA_Logo_symbol</title><path class="cls-1" d="M440.39,290.12a14.41,14.41,0,0,0,.76,5.79l-2,.24c0-1.14.07-2.07-1.3-2.51-.83-.26-1.17-1.28-1.42-2.22-1.15-4.33-2.37-8.65-3.57-13-.1-.37-.25-.71-.45-1.29l-.4.92-.65-.27c-.06.08-.17.18-.16.24.36,1.58.64,3.18,1.13,4.72.87,2.73,1.87,5.42,2.81,8.12.12.35.23.71.37,1.14-1-.66-1-.66-2.11-2.71-.54-1-1.06-2.07-1.58-3.1l-.38.12c.13.76.22,1.52.39,2.27.34,1.47.72,2.93,1.06,4.4.14.62.21,1.26.33,2l-1.22.51L430,292.75l-.23.08c.09.65.18,1.31.32,2.35L428,291.3c.06,1.75,1,2.83,1.2,4.26l-2.67-2.35-.2.16c.66,1,1.29,2.06,2,3.06.37.53.63,1,.09,1.62l-2.12-.13c-.42-1-1-2.33-1.5-3.65l.23-.15c.67,1,1.34,2,2.07,3.12.06-1.59-2.25-6.3-5-9.83.88,2.94,1.77,5.87,2.65,8.8l-.18.11-.78-.83c-.13,1.86-.79,3.28-2.76,3.9a1.85,1.85,0,0,0-2.53-1.11c.05.49.11,1.05.16,1.61-.18-.21-.4-.44-.61-.67-1.19,1.15-1.19,1.15-.23,4.54L416,302.28c-.1.73-.19,1.38-.32,2.28l-1-1.21c.22-.9.42-1.74.65-2.57,0-.1.26-.15.46-.25-.89-1.66-1.78-3.31-2.79-5.21-.79,3.73.61,7,.87,10.44-1.82,0-3.11-1.11-4.34-2.08A5.66,5.66,0,0,1,408.2,301c-.14-.44-1.09-1.16.14-1.57a1,1,0,0,0-.07-.59c-.4-.76-.81-1.52-1.26-2.25s-.81-1.21-1.24-1.84c-.65,1.79-.56,2,1.44,3.48a12.6,12.6,0,0,0,1.53,6.28h-.87c.07,1.62.15,3.22.23,4.82l-.33.12L407,308c-1.57,1.07-2.23-.87-3.48-1.09a5.13,5.13,0,0,0,.44,2.8,3.87,3.87,0,0,1,.11,2l-.93-1.06c-.18.88-.34,1.54-.45,2.2-.14.91-.92.92-1.58,1.09-.18,1.66,1.69,2.35,1.8,4.06-1.17-1.24-1.73-2.73-3.36-3.77.34,1.32.59,2.32.84,3.32l-.27.11-1-1.6-2-.72c-.54,1-1.09,0-1.82,0,.67,1.18-.06,2.25,0,3.37a2,2,0,0,1-1.49-2.33,2.71,2.71,0,0,0-.68-2.2,2.44,2.44,0,0,0-.51,2.28c.26,1.29.16,1.33-1.22,1.53-.24,0-.42.5-.63.77l-1.62-1c-.45,1.85.91,3.17.7,5l-.95-1.19c-.07.09-.18.17-.17.22a5,5,0,0,1,.37,1.4,2.48,2.48,0,0,1-.56,1.57,2.12,2.12,0,0,0-.56,2.75.68.68,0,0,1-.06.69,9.64,9.64,0,0,1-.54-1,2.31,2.31,0,0,1,0-.65c-.06-2.07-.06-2.07-1.55-3.41.1-.32.33-.68.25-.95a.86.86,0,0,0-.78-.34,1.18,1.18,0,0,0-.54.83c0,.85.07,1.7.14,2.88-.77-1.21-1.37-2.17-2-3.12-1.23,2.29,1.07,3.35,1.31,5.18-.3-.29-.61-.57-.9-.87s-.58-.62-.81-.87c-.5.44-.88,1-1.38,1.15a5,5,0,0,1-1.76-.17c-1.43,1.15-1.34,3-1.81,4.81l-2.09-2.41-.69,1.42-1.49-3.36-.47.83-.43-.67c-.15.14-.28.21-.28.27.07,1-.35,2.13.29,3.15.09.14-.15.6-.35.79a.87.87,0,0,1-.73.1,1.4,1.4,0,0,1-.68-1.85c.53-.77.13-1.29-.3-1.8a13.24,13.24,0,0,0-1.39-1.21c-.45.83-.45.83.71,3.42l-1.53,1.43c-.45-.17-.19-1.39-1.24-1.12,0,0-.23-.66-.4-1-.29-.52-.08-1.3-.91-1.7-.44,1.39,1.05,2.41.58,3.69-1,.24-.85-.89-1.45-1.06-.47.76.87,1.72-.26,2.41.18.92,1.69,1.28,1.13,2.66l-2.28-1.43c-.16,1,.68,1.29,1.09,1.91a1.16,1.16,0,0,1-1.4-.47c-.67-.71-1.27-1.48-2-2.18a4,4,0,0,0-1.43-.95c-.3,1.65,1.28,2.58,1.38,4l-1.57-.17-.52-1.34c-.18,1.11-.93-.79-1.24.32-.11.38-.95.49-1.32.87a8.75,8.75,0,0,0-1,1.57,1.53,1.53,0,0,1,0-2.09c1-1.31,1-1.31.09-2.85a5.21,5.21,0,0,1-.52.28,2.22,2.22,0,0,1-.44.06c-.53-.85.34-2.4-1.46-2.69-.53,1.28-.1,2.48-.14,3.84l.91-.51c1.07.84.36,2,.52,2.81-.48.48-.9.88-1.28,1.25-2.49-.77-3.64-3.21-5.55-4.73-.86,1.25-.78,1.93.38,3.62,1.34-.3,2,.47,2.41,1.95l-1.4-.8a2.58,2.58,0,0,0-.22.44,4.39,4.39,0,0,1-.28.93c-.24.37-.62,1-.88.94a2,2,0,0,1-1.24-.81,25.24,25.24,0,0,0-2.15-3.28c0,.33-.16.72,0,1,.35.74-.93,1-.4,1.89a6,6,0,0,1,.63,2.16,8.74,8.74,0,0,1-.09,1.73l-2.46-2.59c-.8,2.16-.8,2.16-2.8,1.76-.45.33-.86.74-.42,1.31a1.53,1.53,0,0,1-.14,2.08,13.24,13.24,0,0,1-2.24,2.05c-.85.64-1.78,1.18-2.51,1.66.16.64.41,1.08.32,1.43-.16.62-.59,1-1.46.67.12-1.32-.71-2.17-1.7-2.95-.89.89-.13,1.69.14,2.64-.81-.57-1.43-1.28-2.16-1.43a6.79,6.79,0,0,0-2.4.47l.5,1.23-1-.15.66,1.61c-.88-.07-1.61-.1-2.33-.19a6.56,6.56,0,0,0-3.67.18c-.36.16-.88-.07-1.45-.14l-1.28,2.13a14.26,14.26,0,0,0-2.21-1.24,12.09,12.09,0,0,0-2.42-.33c.27,1.31-.54,1.73-1.56,2a15.68,15.68,0,0,0-1.76.81c-.06-.27-.16-.68-.23-1.08-.2-1.29-.6-1.47-1.66-.71l-.45.37.83,2.05-1.18-.12c-.16.45-.3.91-.49,1.34-.42.93-1.1,1.19-1.91.61a3,3,0,0,0-2.92-.32c-1.07.39-2.1.86-3.17,1.23s-1.32.27-2.07-1a8.87,8.87,0,0,0,1.46-.94,1,1,0,0,0,.17-.94,1.06,1.06,0,0,0-.93-.34,4.94,4.94,0,0,0-1.21.7c-.58-.93.68-1.92-.35-2.88a2.18,2.18,0,0,1-2,1.4l.33,2c-.77-.58-1.1-1.51-2.23-1.28l.39,1.28c-.2-.06-.38-.05-.47-.14a9.19,9.19,0,0,0-5.22-2.39,13.11,13.11,0,0,1-2.2-.55c-.56-.18-1.08-.64-1.63-.65s-.89.53-1.42.08c0,0-.35.29-.57.47-.93-.86-1.8-1.75-2.74-2.55-.74-.63-1.56-1.17-2.35-1.73-.36-.26-.72-.32-.87.34l-.84-1.21-.77,1.11c-1-2-3.22-2.18-4.69-3.58l-.88.84c-.17-.18-.4-.54-.51-.51-1,.27-1.18-.57-1.53-1.13-.45-.72-.81-1.51-1.63-1.82l-1,2.94-2.68-4.17-2,.55-.33-.53a4.38,4.38,0,0,1-1.69-.12,18.93,18.93,0,0,1-3.36-2.21,29.81,29.81,0,0,1-2.63-2.86c-.76-.85-1.48-1.73-2.29-2.53a8.28,8.28,0,0,0-7.36-2.64c-.68-1.25-1.34-2.48-2.08-3.87l-2.51,1.4-1.44-1.55c-.43-.45-.86-.88-1.45-1.48-.16.7-.28,1.25-.42,1.87a3.71,3.71,0,0,1-2.55-.65c-.73-.47-1.39-1-2.07-1.57-1.3-1-2.6-2.06-3.91-3.1,2-.46,3.95.11,6.27.44-1.51-2-3.83-1.54-5.5-2.76v1.16a2.13,2.13,0,0,1-2.52-.47c-.24-.21-.47-.44-.7-.68-.83-.85-1.64-1.79-2.78-.46-1.74-1.88-1.46-4.82-4-6.07-.22,1.05-.42,2-.65,3.07l-2.05-1.11.91-1.86-1.49-.24a4.75,4.75,0,0,0-2-2.75,7.71,7.71,0,0,1-1.45-1.52,1.17,1.17,0,0,0-1.29-.57c-1.07.16-2.22,0-3.24.5,0,1.24,1,1.65,1.75,2.19-1,.66-1.16.59-3.32-1.12.45-.66.34-1.26-.45-1.79-.35.46-.83.61-1.22,0a6,6,0,0,1-.6-1.31c-.2-.48-.35-1-.54-1.54l-1.44.26.16-1.25-1.82-.09a2.18,2.18,0,0,0-.75-2.71c-.38-.31-.21-1.29-.29-2-1-.08-.64.88-1,1.38-1-.17-1.46-1-2-1.66s-.88-1.61-1.53-1.85c-1.87-.68-2.78-2.59-4.89-3.29l-.6.87a3.32,3.32,0,0,1-.37-.31c-.42-.52-.45-1.54-1.6-1.14-.18.06-.54-.45-.83-.67-1.16-.89-2.31-1.79-3.48-2.65a7.05,7.05,0,0,0-1.08-.58c-.79.74-.45,1.52-.19,2.31a2.28,2.28,0,0,1-2-1c-.65-.72-1.19-1.55-1.88-2.23-.9-.89-1.45-2.36-3.17-2.08-.16,0-.42-.57-.69-1l-1,1c-2.78-1.23-5.3-2.62-6-6.19l-1.64,1.57c-1.38-2.11-3.54-3.47-5.64-4.9-.92-.64-1.7-1.46-2.54-2.16a10.23,10.23,0,0,1-2.37-2.84l-1.8,1.17c-.87-.36-1.56-.66-2.25-.93a14.57,14.57,0,0,0-2.84-1.06c-2.12-.38-3.33-2-4.81-3.25-4.06-3.43-4.54-3.78-9.23-5.85.82-1.89-.17-3.26-1.44-4.55-1-.95-1.87-1.93-2.86-2.95-.61.38-.62.87-.22,1.44s.63,1,1,1.48L124,260.14l-1.1-1c-.19-.83,1-1.67-.38-2.26l-1.11,1-.21-2.28c-4.25-1.33-7.67-4.56-12.41-5.42l.77-1.4c-1.45-1.18-1.9-3.58-4.39-3.94l-.42.93a3.65,3.65,0,0,1-1.19-.42,5.91,5.91,0,0,1-1.36-1.55c-.53-.93-.92-1.95-1.39-3,.88.14,1.87.58,2.08-.87,0-.17.51-.27.61-.32L106,241.9l-1.59-.29c.61,1.93,2.36,1.61,3.61,2.38a6.1,6.1,0,0,0,.33-1.17,1.46,1.46,0,0,1,1.19-1.52,2,2,0,0,1,1.9,1.28,7.6,7.6,0,0,1,.15,1.27l.45,2.86c0,.25.19.57.09.74-.63,1,.16,1.72.58,2.45a1.43,1.43,0,0,0,1.08.37c.53-.77,1.18-.36,1.94-.14-.07-2.46-1.6-3.79-3.25-5l1-1.77c3.11,3.17,5.81,6.69,9.86,9.21l-.54-2,1.45-.55a3.6,3.6,0,0,1,.08,3.1l1.62.7v-1.27a8.69,8.69,0,0,1,4.76,1.48c1.25-1.13-1.11-2-.1-3.28a18.66,18.66,0,0,1,1.37,1.56c.82,1.21,1.55,2.47,2.38,3.68a7,7,0,0,0,3.21,2.81l.19-.92c.08,0,.19.05.22.11.4.82.79,1.66,1.19,2.48a11.69,11.69,0,0,0,.92,1.71c.61.86,1,.9,2.37.37-.41-1.47-.82-3-1.26-4.57l1.31-.49.19-1.44a1.51,1.51,0,0,1,1.23,1.73c0,.69-.25,1.38-.34,2.07s-.13,1.47-.21,2.32l1-.28a4.75,4.75,0,0,1,5.63,1.55,7.19,7.19,0,0,1,1.63,3.48c.11.6.25,1.13.93,1.38,1.22.45,1.95.06,1.93-1.24a14.34,14.34,0,0,0-.33-3.53c-.38-1.44-1.1-2.71-2.94-2.7a4,4,0,0,1-1.24-.47c.34-.9,1.12-1.1,1.55-.66,1.3,1.32,3.27,1.37,4.56,2.62l2,1.93c-.26,1.63-1.33,1.55-2.7,1.43,2.26,2.2,4.21,4.27,6.35,6.15,1.85,1.63,3.37,1.91,5.94,1.52l-1-3a4.77,4.77,0,0,1,1.87,1.28c1.17.95,1.45.92,2.49-.28l.13-.13,1.53,1.83,2.06-.84c.34.89.34.89-1.06,2l1.38,2,1.64-.9-1-2.27.1-.13a6.32,6.32,0,0,1,.68.69c.84,1.12,1.64,2.28,2.5,3.38.2.25.6.33.91.48.08-.33.16-.66.25-1a3.88,3.88,0,0,1,.26-.45c.49.78.94,1.42,1.31,2.11.91,1.66,1,1.75,2.94,1.44.58.18.37,1.34,1.38,1.08.13,0,.45.75.71,1.13.46.66,1.15.75,1.39.08a4,4,0,0,1,3-2.55,7.1,7.1,0,0,1,1.56,3,8,8,0,0,0,.8,1.94,5.45,5.45,0,0,1,.42,4.86c1.1-.29,2.1-.35,2.7-1.26.42-.62.89-.91,1.63-.57a.86.86,0,0,0,.6.08,1.27,1.27,0,0,1,1.73.52c.16.2.56.21.94.34l.28-1.34,1.57,1,.3-1.25c.12.14.3.26.29.36,0,.7-.11,1.38-.17,2.14l-1,.27c0,.14-.06.27,0,.33a3.09,3.09,0,0,1,.15,3c-.73,1.92-.58,3.2,2.15,4.43a5.86,5.86,0,0,0,.75.3c1.79.58,3,1.63,3,3.93l2.1-2.36a5.25,5.25,0,0,1-1.43-4.15,1.08,1.08,0,0,0-.74-1.28,1.89,1.89,0,0,0-1.27.42,12.34,12.34,0,0,0-1.11,1.17c-.37.36-.88.66-1.26.14a2.36,2.36,0,0,1-.51-1.57A1,1,0,0,1,206,293a5.13,5.13,0,0,1,1.09.79c.71-1,.2-2.08.09-3l5,1.37c.7.19,1.29.43,1.45,1.3a2.33,2.33,0,0,0,.73,1.41c.85.61.9,1.5,1.18,2.35.42,1.31.77,2.6-.33,3.71.73.79,1.32.38,1.86.07.75-.43,1.23-.25,1.54.57l2.36-1.38c-2.53-.89-2.24-3-3-5l3.24.53v2.25l1.11-.62c.08,1.29,1,1.56,2,1.69a17.53,17.53,0,0,1,2.39.4c1.5.41,1.81.91,1.76,2.58-1.61,0-1.61,0-2.11-1.69-1.78.76-1,2.9-2.27,3.89a6.7,6.7,0,0,0,3.07,2.41,13.84,13.84,0,0,1,5,3.48v-2.06a1.54,1.54,0,0,1,1.72.86,18.51,18.51,0,0,1,1.46,2.7c.6,1.33,1.11,2.69,1.78,4.34l.87-1.71.83.87c.71-.05,1.49-.54,2.16.35l-.26,1c1.6,1,1.43-1.19,2.53-1.21l.81,1.64c.29-.07.55-.06.68-.18,1.4-1.23,2.62-.27,3.9.26a15.87,15.87,0,0,0,3,1c1.21.24,2.47.27,3.7.4l-1.58,1.09c1.47,1,2.26,2.63,4.2,2.37l.09.1-2.44,1.83,2.33,3.47c.15-.91.28-1.44.33-2,0-.37-.1-.76-.06-1.12a1.49,1.49,0,0,1,2.43-1.06,6.09,6.09,0,0,1,2.16,3c.18.45.29.92.48,1.51,1.86-1.27,3.62-.87,5.35.11a2.38,2.38,0,0,0,2.57.15l.62.82c.14,0,.28,0,.32-.11.18-.28,0-.88.61-.76a1.36,1.36,0,0,1,.87.6,5.73,5.73,0,0,1,.26,1.57c.06.6.09,1.21.13,1.81l.43,0,.32-1.67a3.12,3.12,0,0,1,2.19,2c.44.87.8,1.78,1.26,2.63a2.43,2.43,0,0,0,2.14,1.51c.31,0,.61-.35,1.05-.61l.53,1c-.38.17-.62.28-.86.37-.47.18-.93.35-.87,1s.21,1.33,1,1.53a6.53,6.53,0,0,0,1.6.15c1.33,0,2.66,0,4,0a4.54,4.54,0,0,1-.2-.51c-.14-.41-.4-.93.28-1,.2,0,.61.53.66.87a12.54,12.54,0,0,1,0,1.94c0,.71.33,1.12,1.19,1,.25-1.13.49-2.27.76-3.5,1,.08,2.11-.17,2.45,1.23l.48-.18,3.27,1.37a5.31,5.31,0,0,1,.2.7c.17.73.7.89,1.34.89.86,0,1.72.06,2.58,0,.24,0,.45-.33.77-.58.75,1,1.35,2.42,3.15,1.73l.22-1.21,2.91,1.1,1.49-3.08,2.25,1.27-1.2-3.64c.28,0,.39-.1.46-.06a5.88,5.88,0,0,0,7.17-1.09c.48-.43,1-.81,1.53-1.19a5.48,5.48,0,0,1,4.35-1c-.16-1.26-.31-2.4-.48-3.78l1.24,1.18a3.94,3.94,0,0,0,1.47,1l-1.35-2.54a13.7,13.7,0,0,1,1.85-.57,7.31,7.31,0,0,1,1.62,0c1.14,0,2.19-.06,2.7-1.76l.85,1.6c.48-1,.82-1.76,1.14-2.47.73.29,1.46.63,2.22.85a3.06,3.06,0,0,1,1.78,1.56c.36.57.7,1.16,1.21,2,.13-1.46-.71-2.2-1.17-3.21a2.33,2.33,0,0,0,1.55-2.66c1.92-.38,3.21-2.5,5.31-1.42,1.41-1.81-.44-2.62-1.06-3.88l1.52-.65,1.75,2c.82-1.49-.15-2.69-.05-4.29.79,1.36.29,3,1.74,3.66.14-1-.54-1.81-.17-2.7.5.86.95,1.68,1.47,2.47.06.09.48-.06,1-.14l-1.92-3a18.31,18.31,0,0,1,2-.65c1.21-.24,2.46-.35,3.68-.59,1.42-.29,2.82-.66,4.45-1.05a2.5,2.5,0,0,0,2.18.81c.79-.1,1.61.92,1.66,1.9.05,1.2.76,1.73,1.82,2.05-.95-1.44-.48-3.6-2.54-4.55a6.32,6.32,0,0,0-.48-4.23,3.6,3.6,0,0,1-.21-.78c-.15-1.14.22-1.53,1.34-1.36a4.57,4.57,0,0,1,1.1.29,2.79,2.79,0,0,0,3.19-.73,1.7,1.7,0,0,1,1.63-.49,17.82,17.82,0,0,1,2.51.55c.39.13.67.6,1.14,1,0-.67,0-1.19,0-1.7s-.17-1.31.55-1.56a1.62,1.62,0,0,1,2.11.7,13,13,0,0,1-.11-1.6,8.9,8.9,0,0,1,.29-1.34c1.17.25,1.17.25,2.48-.57l1.64,2.11,1.28-3.45,1.91,1.37a20.38,20.38,0,0,1,.47-2.25c.23-.73.59-1.42,1-2.33l2.82,1.12c.44-1.15-.59-1.79-.79-2.64,1.7-1,.6-2.75,1.28-4.12,1.66.41,1.51,2.33,2.8,3.09-.52-1.18-1-2.37-1.57-3.56l.3-.19c.59.78,1.16,1.58,1.77,2.34s1.32,1.57,2,2.35a14.33,14.33,0,0,0,2.26,2.21l-.69-1.27c1.52-.2,2.18,1.25,3.69,1.51l-1.45-3a6.71,6.71,0,0,1,2-.58,8.39,8.39,0,0,1,2.19.67c.33-1-.24-1.63-.55-2.41.14-.12.27-.34.45-.38a1.89,1.89,0,0,0,1.71-2.25c-.07-.86.6-1.11,2.09-1,.28.62.55,1.23.94,2.12.45-.74-.28-1.85,1-1.67-.84-2.33-2.28-4.32-2.35-6.87l1.64,1.64,2.44-1,.75,1.21,1.94.5c-.12-.37-.22-.7-.39-1.26,1.94.51,3.56-.17,5.15-.94,1.37-.66,2.51-.23,3.63.88l.28-1.59.68.32c.09-1,.18-2,.3-3.17l2.1,2.84.26-.15c-.18-.88-.37-1.77-.62-3,.5.6.79,1,1.16,1.39l.93-.44c.08-1.52.16-3,.26-4.8.83,1.24,1.68.28,2.73.73l-1.71-3.24.23-.16,1.18,1.51c.63-1.38,1.89-.75,3.12-1,.18-.73.33-1.57.61-2.37a1.9,1.9,0,0,1,.83-1c.24-.1.75.27,1,.53.94.85,2.14.72,3.24.89.11,0,.35-.37.4-.59a.87.87,0,0,0-.2-.6c-1.15-1.45-.58-2.69.44-3.9a1.68,1.68,0,0,0,.15-.36c-.24-.53-.49-1.11-.75-1.69.42-.48.81-.91,1.19-1.36,1-1.17,1.43-1.21,2.71-.23l.25.21,2.65-.14,1.16,1.52,1.42-1.39c.63.13,1.31,1,2.22.38l0,0c.33-.42.67-.83,1-1.27s.32-.82.59-.94c1.23-.5,1.48-1.55,1.74-2.66a4.25,4.25,0,0,1,.63-1.1l2.26.58a16.06,16.06,0,0,1,1.46,2.29c.4.9,1.47.47,2,1.25.73-1.62,1.07-3.09-.45-4.45-.53-.47-.46-.55,0-1.7l2.28,1.11,1.65-1.76,1,.7c-.93,1.44-.61,2.95-.37,4.41a3.18,3.18,0,0,0,1,1.41c.58.59,1.11,1.14.76,2.19-.87-.37-1.79-.49-1.7-1.75,0-.26-.29-.57-.5-.81-.46-.54-1.06-.44-1.18.25a10,10,0,0,0-.06,2.73,13.71,13.71,0,0,0,.75,2.44,1.37,1.37,0,0,0,1,1.1c1,.34.65,1.39.86,2.42-2.2-.67-3.76,1.36-5.79.86l.46-1.78h1.31c-1.07-2.19-1.74-4.34-3.24-6.07a6.61,6.61,0,0,0-1.42-.88,15.28,15.28,0,0,0,0,1.71c.11.86.33,1.7.42,2.56.06.63.13,1.33-.74,1.68L450,268c-.74.49-.6,1.19-.59,1.77a19.87,19.87,0,0,0,1.65,6.91c.19.47.38,1,.73,1.79-1.94-1.77-4-.71-6-1.29l-.77-.92a16.18,16.18,0,0,0,2,7.24l-1.82-.12c1.09.91.73,1.95.9,3.21l-1.14-1.2-.49.41c-.64-1.63-1.31-3.16-1.87-4.74-1-2.76-3.18-4.36-5.55-5.84a138.4,138.4,0,0,0,8.13,15.37l-2.9-2.43V291L442,291l-.64-1.87-.72,1.16s-.11,0-.15,0-.06-.09-.09-.13c-1-1.62-1.27-3.61-2.68-5.08-1,1.78-.1,6,1.7,8.36.09-.79.21-1.41.22-2A1.41,1.41,0,0,1,440.39,290.12Zm-292.62-23.7,0-.2-5.64-1.91c-.55,1-.11,1.88.42,2.86l1.16-1.62c1.21.64,1.11,2.38,2.77,2.58l-.74-1.85c.49,0,.84,0,1.2,0A8.7,8.7,0,0,1,147.77,266.42Zm147.56,77.15-.19,1.45c1.74.19,2.45-.2,2.45-1.34a.87.87,0,0,0-.31-.66c-.14-.09-.45.07-.67.14Zm-29.77-12.79-1.76-1.95-.73.77,1,2.21A1.16,1.16,0,0,0,265.56,330.78Zm-95-54.41c0-2.28-.52-3-2.14-3.22C168.57,274.55,169.55,275.33,170.6,276.37Zm108.11,60.49c-.41-.58-.78-1.14-1.18-1.67s-1-.53-1.4.05C277.22,337.18,277.22,337.18,278.71,336.86Zm-60.4-22.34h1.27c-.93-.87-1.91-.13-2.75-.93a4.45,4.45,0,0,0,1.2,2.9c.07-.48.1-.74.14-1S218.26,314.86,218.31,314.52Zm-41.8-31c-1.41,1.93-1.34,3.09,0,3.47Zm65.25,44.82c0,.79-.28,1.61.73,1.75.25,0,.8-.43.85-.72C243.49,328.31,242.64,328.42,241.76,328.35Zm-9.47-10.14c-.33-2.09-.52-2.33-2.26-2.39Zm29.64,8.64c-.44-1.53-.92-1.67-2.68-.94Zm18.31,25.23c.44-2,.42-2.15-.53-2.54C279.81,351.59,279.81,351.59,280.24,352.08ZM218,304.34l2.19,2.1C220.47,305.18,220,304.69,218,304.34Zm-42.31-16,.14.29,2,.17-.47-1.52Zm70.6,42.05c-.1-1.71-.18-1.8-1.64-1.63ZM162.11,279c.9,1.33.9,1.33,2.26.94Zm139.33,73.92c.76-.63.64-1.17-.05-1.8C300.84,351.78,300.64,352.34,301.44,352.91ZM280,348.59c-.66-1-.66-1-1.61-.46ZM119.13,251v1.58l1-.84Zm127,76.72h.45v-1.33h-.36Zm79.42,22.49.18-.34-.83-.43-.12.21ZM221.26,302.11l-1,.72C220.88,303.07,221.34,303.3,221.26,302.11Zm-53.91-24.55h.39l-.05-.88h-.26Z" transform="translate(-65.18 -56.7)"/><path class="cls-1" d="M465.19,261.16c1.29,1.07,1.63,2.66,2.36,4.17h-1.09c-.23.7-.45,1.36-.74,2.21-1.32-1.79-1.19-3.75-1.79-5.67l1.2.58c0-.54.06-.93.09-1.32Z" transform="translate(-65.18 -56.7)"/><path class="cls-1" d="M463.73,255c.06-.49.12-1,.19-1.6l1.32.22c.17-.39.36-.8.58-1.29l1.49,1.43-2.47.2c.53,1.89,2.26,3.07,1.94,5.18a3.38,3.38,0,0,1-1.42-2.15c-.25-.75-.42-1.53-.64-2.33l-1,.32Z" transform="translate(-65.18 -56.7)"/><path class="cls-1" d="M92.61,232.43a13.35,13.35,0,0,1,4.54,3.42C94.11,235.64,92.52,234.5,92.61,232.43Z" transform="translate(-65.18 -56.7)"/><path class="cls-1" d="M396.65,317.3c1.24,1.43,2.22,2.56,3.3,3.79a3.78,3.78,0,0,1-3.16-2C396.56,318.74,396.7,318.14,396.65,317.3Z" transform="translate(-65.18 -56.7)"/><path class="cls-1" d="M452.47,276a1.66,1.66,0,0,1,1,2c-.1.78-.17,1.55-.27,2.53-.16-.39-.37-.66-.33-.89a1.59,1.59,0,0,0-.67-1.79C451.73,277.59,451.84,277.24,452.47,276Z" transform="translate(-65.18 -56.7)"/><path class="cls-1" d="M465.22,261.13a9.18,9.18,0,0,0-1.53-1.4,2.37,2.37,0,0,1-1.2-3c1,1.48,2.22,2.7,2.7,4.38Z" transform="translate(-65.18 -56.7)"/><path class="cls-1" d="M483.21,249.91c-1.3-.11-1,1.06-1.75,1.57l-.83-.49,1.77-3C482.67,248.66,482.89,249.18,483.21,249.91Z" transform="translate(-65.18 -56.7)"/><path class="cls-1" d="M436.24,297.15a3.49,3.49,0,0,1-1.27-3.29c.67.5,1.49.53,1.15,1.65-.12.4.29,1,.45,1.45Z" transform="translate(-65.18 -56.7)"/><path class="cls-1" d="M148.31,260.54c1.22.26,1.8,1.54,3.09,1.38.12,0,.32.57.54,1C148.82,261.83,148.82,261.83,148.31,260.54Z" transform="translate(-65.18 -56.7)"/><path class="cls-1" d="M473.29,256.75l2.53,1.62-1.28.46-1.43-1.91Z" transform="translate(-65.18 -56.7)"/><path class="cls-1" d="M464.86,249.06l-1.56-.19c-.06-.55-.12-1.11-.21-2A5,5,0,0,1,464.86,249.06Z" transform="translate(-65.18 -56.7)"/><path class="cls-1" d="M239.46,312.14c-1.3.64-2.2-.2-3.25-.69.45-.73.93-.67,1.34-.19A2.17,2.17,0,0,0,239.46,312.14Z" transform="translate(-65.18 -56.7)"/><path class="cls-1" d="M463.7,255l-2,.61c-.17-.62-.34-1.23-.57-2l2.62,1.44Z" transform="translate(-65.18 -56.7)"/><path class="cls-1" d="M461.22,262.92c-.67-.55-1.06-1.14-.51-2.05C461.8,262.09,461.8,262.09,461.22,262.92Z" transform="translate(-65.18 -56.7)"/><path class="cls-1" d="M470,257.54c.43.73,1,1.27.22,2C469.17,259.09,469.45,258.41,470,257.54Z" transform="translate(-65.18 -56.7)"/><path class="cls-1" d="M101.3,237.33l.8,1.63-1.82-.37Z" transform="translate(-65.18 -56.7)"/><path class="cls-1" d="M160.69,268.67l-.49-1.2,1.36-.76.22.11Z" transform="translate(-65.18 -56.7)"/><path class="cls-1" d="M424.62,274.41c-1.35-.08-1.28-1.25-1.89-1.75C423.67,273,423.67,273,424.62,274.41Z" transform="translate(-65.18 -56.7)"/><path class="cls-1" d="M473,246.39l-1.12-1.88C473.17,244.84,473.54,245.36,473,246.39Z" transform="translate(-65.18 -56.7)"/><path class="cls-1" d="M258,321.77c.52-1,.52-1-.42-2,.28,0,.68,0,.83.13.57.62.45,1.2-.32,2Z" transform="translate(-65.18 -56.7)"/><path class="cls-1" d="M171,271.23c-1.19-.47-1.19-.47-.71-1.74l.84,1.61Z" transform="translate(-65.18 -56.7)"/><path class="cls-1" d="M156.94,261c-.72.07-1.31-.06-1.57-1.3l1.74.9Z" transform="translate(-65.18 -56.7)"/><path class="cls-1" d="M455.23,280.15l-.21-1.77a1.34,1.34,0,0,1,.62,1.73Z" transform="translate(-65.18 -56.7)"/><path class="cls-1" d="M139.75,254.14c1.41.44,1.13,1.2.79,2Z" transform="translate(-65.18 -56.7)"/><path class="cls-1" d="M453.38,260c-1.07-.3-.71-1.13-1.08-1.69l.4-.15C452.93,258.76,453.16,259.38,453.38,260Z" transform="translate(-65.18 -56.7)"/><path class="cls-1" d="M476.3,249.15,475,247.52C476.14,247.59,476.14,247.59,476.3,249.15Z" transform="translate(-65.18 -56.7)"/><path class="cls-1" d="M451.57,271.72c.09.64.16,1.11.26,1.8C450.88,272.72,450.88,272.72,451.57,271.72Z" transform="translate(-65.18 -56.7)"/><path class="cls-1" d="M443.82,263.45l-.86,1.17c-.1-.65-.16-1-.24-1.53Z" transform="translate(-65.18 -56.7)"/><path class="cls-1" d="M445.65,265.13l-1.36-1.22c.92,0,1.57.21,1.33,1.25Z" transform="translate(-65.18 -56.7)"/><path class="cls-1" d="M105.28,239.09l1.24.54-.12.3-1.29-.46Z" transform="translate(-65.18 -56.7)"/><path class="cls-1" d="M473.61,253.53l.79,1.48-.32.17-.8-1.49Z" transform="translate(-65.18 -56.7)"/><path class="cls-1" d="M386.45,329.64l-.62-1.14C386.62,328.74,386.62,328.74,386.45,329.64Z" transform="translate(-65.18 -56.7)"/><path class="cls-1" d="M167.4,267.87l.12-1.46.34,0-.11,1.45Z" transform="translate(-65.18 -56.7)"/><path class="cls-1" d="M105.32,235.8l.8,1.07C105.16,237.11,105.16,237.11,105.32,235.8Z" transform="translate(-65.18 -56.7)"/><path class="cls-1" d="M471.65,253.31c-1.16,0-.8-.55-.8-1.25Z" transform="translate(-65.18 -56.7)"/><path class="cls-1" d="M482.54,254.39c-.35-.37-.55-.59-1-1C482.44,253.39,482.68,253.58,482.54,254.39Z" transform="translate(-65.18 -56.7)"/><path class="cls-1" d="M419,301.13v1.07C418,301.76,418.76,301.45,419,301.13Z" transform="translate(-65.18 -56.7)"/><path class="cls-1" d="M460.8,255.11l-.32-1,.17-.06c.12.31.25.61.37.92Z" transform="translate(-65.18 -56.7)"/><path class="cls-1" d="M211.85,315.47l-.16.54c-.08,0-.25-.08-.25-.1a5,5,0,0,1,.14-.52Z" transform="translate(-65.18 -56.7)"/><path class="cls-1" d="M97.25,238.32c-.63-.21-1.08-.36-.39-1Z" transform="translate(-65.18 -56.7)"/><path class="cls-1" d="M284.28,335.68l.77.76-.22.24L284,336Z" transform="translate(-65.18 -56.7)"/><path class="cls-1" d="M179,274.66l-.78-.64.17-.24.83.6Z" transform="translate(-65.18 -56.7)"/><path class="cls-1" d="M459.49,267.35q.39.06.78.15a.84.84,0,0,1,0,.27c-.26,0-.52,0-.79,0Z" transform="translate(-65.18 -56.7)"/><path class="cls-2" d="M203.08,225.78a10.23,10.23,0,0,0-1.47,1.39,11.9,11.9,0,0,0-2.35,5.07l5-4.67.17.11c-.11.2-.23.4-.34.61s-.16.36-.32.73a4.56,4.56,0,0,1,4.67.81,1.8,1.8,0,0,0,.78,2.44l1.1-.66-.17.77c1.86.46,1.86.46,3.57-1.23v1.68l2-.39-.4,1.18-3,.38-2,3.32c1.57.06,2.68-.78,3.82-1.49s2.32-1.57,3.56-2.41a7.69,7.69,0,0,1,1,3.7c.19,1.55-1.44,2-1.9,3.4a6,6,0,0,0,3-2.67l.45.74,3.63-1.67.2.23-.5,1.08c1.53.52.72,1.94,1.16,3a2.39,2.39,0,0,0,1.82-1,9.82,9.82,0,0,1,1.45-1v1.19a8.74,8.74,0,0,1,2.08-.29,6.45,6.45,0,0,1,1.79.81c1.07-.35.67-1.87,1.71-2.6,0,1.33-1.07,2.3-.7,3.7l2.09-1.64.2.19-.79,1.46,1.76,2.79,3-.91-.42,1.86c-.88.14-1.73.32-2.07,1.26a1.57,1.57,0,0,0,1.93-.1c1-.69,1.15-.6,2.09.32.22.22.62.25.93.36l.17,1.46c1.63.09,2-1.79,3.48-2.08l-.26,1.13c.09,0,.22,0,.26,0a2,2,0,0,1,2.58-.66c1.06.51,1.87,0,2.57-.95-.1.94-.07,1-.67,1.21-1.17.34-1.91,1-1.75,2.25l-1,.27c.58,1.07.58,1.07,3.34,0l-1.14,2.35c1.25.32,1.51.23,2-.73.33-.65.6-1.33.89-2l.32.1-.32,2.07c1.56-.21,2.22.81,2.68,2.16h4.73c-.1.66-.2,1.33-.32,2.09l1.27.14-1.45,2,.69.27c-.06.24-.12.49-.26,1l3.1-1.58c1.07.41,1.3.91.51,1.62-.17.15-.52.1-.79.12-.61,0-1,.23-1,1a10.75,10.75,0,0,1-.14,1.48c1.32,0,1.63-1.24,2.42-2,.44.62.91,1.15,1.73.71l-.25,1.61.25.06c-.49.52-1,1-1.54,1.67,1,.32,1.2-.41,1.58-.78s.72-1,1.53-.44l-.39,1.24a2.51,2.51,0,0,0,.45-.1c.52-.25.87-1,1.62-.48.56-.45.1-1.6,1.28-1.75.15.77.29,1.52.44,2.27l.27,0,.62-1.39c.6.54.38,1.18.23,1.81s-.37,1.47-.46,2.22c0,.24.24.52.38.78.26-.13.62-.2.76-.41.47-.72.87-1.49,1.29-2.23l.83,1.62-.58.69c.19.91,1.12,1,1.71,1.42a8,8,0,0,0,2.42.64c-.45.83-1.11.68-1.8.5-1.23-.32-1.23-.31-2,.89l.92.66c-.4.26-.71.45-1,.67s-.85.54-.45,1a1.29,1.29,0,0,0,1.13.24,13.26,13.26,0,0,0,2-1l-.86-.7c1-1.6,2.35-1,3.6-.64,1.05,2-.22,3.95-.19,5.88,1.38.36,1.74.17,2.54-1.28-1-1.34-1-1.34.06-2.64l.18,1.26a1.72,1.72,0,0,0,.5.15,5.2,5.2,0,0,1,1.28-.13,1.88,1.88,0,0,1,1,.65.92.92,0,0,1-.1,1.17,20.05,20.05,0,0,0-1.28,2.29c.71.81,1.32-1.06,1.91.14,1.14-.57,1.75-2,3.35-2l-.51,2.68a2.24,2.24,0,0,0,.83,0c.92-.41,1.41.08,1.84.79.69,1.13.68,1.1,2,.37a1.87,1.87,0,0,1,1.24-.21,21.42,21.42,0,0,1,2.89,1c.79.34,1.5.86,2.29,1.21.4.18.78.57,1.27-.24.32-.54,1.23,0,1.89.59a2.42,2.42,0,0,0-1.33,2.53l1.08.19.72-1.11c-.32,1.88.66,2.9,2.18,3.68l.7-.63.36,1,.7-1.07a1.6,1.6,0,0,0,1.94.37,9.79,9.79,0,0,1,2.22-.41v-3l2.21,1.65.21-.15-.92-1.83a4.52,4.52,0,0,1,3.15-1c1.22-.1,2.38-.31,3.06-1.61l1,.71,1.29-1.94a10.34,10.34,0,0,1,2.8.67,8.76,8.76,0,0,1,1.84,2.1c.37-1-.47-1.48-.72-2.36a2.66,2.66,0,0,0,1.76-2,.62.62,0,0,1,.23-.41c1.36-.65,2.71-1.31,4.1-1.88a4.1,4.1,0,0,1,1.45,0l.53-1.35-1.38-1.63,1.54-.73,1.58,1.33c.94-1.06.29-2.1.4-3.25.78.79-.07,2.26,1.43,2.53v-2.28c.45.74.79,1.39,1.23,2,.06.08.56-.17,1-.3l-1.46-2.16c3.26-1.64,7-1.56,10.15-3.08.7.06,1.4.17,2.1.17a1.47,1.47,0,0,1,1.63,1.41c.2,1.13.2,1.13,1.66,1.44-.75-1.24-.3-2.92-1.71-3.37-.13-1.3-.19-2.41-.36-3.5-.23-1.55.09-2,1.69-1.88a5.62,5.62,0,0,0,4.35-1.18,3.54,3.54,0,0,1,2.16-.38c1.82.05,1.82.1,2.61.75.08-.4.19-.74.23-1.08.23-1.9,1-2.33,2.86-1.51a6.15,6.15,0,0,1,.1-1.44c.12-.37.64-.95.73-.91,1,.46,1.42-.61,2.22-.72l1.33,1.4a13.91,13.91,0,0,0,.8-1.25c.91-1.84,1-1.87,2.59-.84.62-1.27,1.24-2.54,1.92-3.95l3.26.51c-.32-.82-.52-1.35-.7-1.79a14.85,14.85,0,0,0,.95-1.8,16.67,16.67,0,0,0,.49-2c.79.16.93.3,2.45,2.38.08-1.23-.78-2-1-3,.28,0,.67-.05.72,0,.91,1.92,2.8,2.89,4.24,4.64.05-1.1.53-1.18,1.19-.9l2,.86c.36-1.12-.65-1.64-.75-2.45a6.48,6.48,0,0,1,4.64-.3c-.27-.92-.44-1.51-.64-2.18a7.19,7.19,0,0,0,1.29-.59c.42-.3,1-.72,1.05-1.11.07-1.55,1.13-1.64,2.21-1.82l.78,1.53.28,0a2.71,2.71,0,0,1,.14-1c.13-.22.48-.32.81-.52-.47-1.62-1.74-3.13-1.44-5.15l1.62,1.22a4.45,4.45,0,0,1,.92-.79,8.22,8.22,0,0,1,1.5-.42c.29,1.27,1.49.65,2.45,1.09l-.24-1a28.15,28.15,0,0,0,2.76-.58,22.38,22.38,0,0,0,2.67-1.15,3,3,0,0,1,3.14.2c.7-.14.11-1.56,1.25-1.06.24-.82.47-1.63.73-2.56l1.7,1.91.3-.13-.22-2.13.24-.2.54,1.12,1.16-.64.79-3.52,2.52-.34-1.74-4.09.16-.15,1.33,1c-.86.82-.07,1.21.18,1.57a8.31,8.31,0,0,1,2.37-.85c1,0,1.3-.58,1.58-1.31a7.56,7.56,0,0,1,.68-1.47,1,1,0,0,1,1.53-.23,3.56,3.56,0,0,0,3.79-.09c-1.35-1.63-.4-2.83.92-4l-.58-1.43,1.35-1.25c1.31-1.25,1.49-1.27,3-.4l2.48-.48c.16.06.22.06.26.1.4.3.57,1.07,1.27.7s1-.67.65-1.53c-.25-.57.22-.86.94-.69l-.48,1.16c.63.11,1.18.23,1.74.29a.53.53,0,0,0,.41-.22c1.22-1.45,3-2.36,3.85-4.16.63-1.34.65-1.32,2.22-1.13a3.35,3.35,0,0,0,.76-.07l2,2.59.55-.61.5.67c.24-.44.46-.8.64-1.18a1.81,1.81,0,0,0-.4-2.47,1.07,1.07,0,0,1-.32-.92.71.71,0,0,1,1.06-.39,10.51,10.51,0,0,0,1.53.46l1.73-1.75.81.46a12.3,12.3,0,0,0-.7,2c-.39,2.1.23,3,2.33,3.65.46.13.94.23,1.37.33a1.85,1.85,0,0,0,.71-2.67l1.1.34c.46-1.16.46-1.16-2-2.65V204c1.83,2.06,3.46,3.95,4.08,6.49-1.67.36-1.6,1.85-2.15,2.85.47,1,2.15,1,1.5,2.57-.69-.12-1.55.18-1.57-1.07,0-.3-.62-.85-.84-.8a1.51,1.51,0,0,0-1,.87,2.92,2.92,0,0,0,0,2.5,2.32,2.32,0,0,1,.15,1.1c0,.84.33,1.34,1.36,1,.06.64.12,1.16.17,1.64l-6,2.26.46-1.81,1.17-.13c.06-.19.15-.32.12-.39-.5-1.07-.94-2.18-1.54-3.2-.71-1.23-.94-1.23-2.36-.56-.45,1.38.94,3.31-1.25,4.3l-.91-1.08c-1.35.15-.72,5.44.94,8.43-1.78-1.61-3.64-.22-5.46-.24a2.87,2.87,0,0,0-.65.15l-1-1-.25.11a29.44,29.44,0,0,0,.52,3c.24.93.64,1.81,1,2.82l-1.68.22c1,.79.25,1.65.3,2.54l-.91-.85-.33.62c-1.34-1.95-1.18-4.67-3.32-6.21l-.46,1.12c-.33-.76-1.06-.74-1.46-1.12s-.29-1.48-1.57-1.64a64.34,64.34,0,0,0,6.83,11.4l9.19-5.53.26.17c-.22.74-.43,1.48-.67,2.3a4.58,4.58,0,0,0-3.25.77c-1.72,1-3.41,2.1-5.14,3.1a5.66,5.66,0,0,1-4,1.1c-.07-.66-.13-1.32-.23-2.32L438.35,241l-2-4a1.27,1.27,0,0,0-1,1.29,9.54,9.54,0,0,0,1.3,5.69l1-3c.61.84.29,1.57.31,2.25s.12,1.47.2,2.35l-1.74.4c-.1-.54-.18-1-.26-1.44-.18-.1-.31-.24-.44-.25a1.67,1.67,0,0,1-1.74-1.72c-.08-.91-.31-1.81-.5-2.86l-1.55.2,1,3.34c-1.65-1-2.2-2.71-3.2-4.47a4.38,4.38,0,0,0-.32,1.16c.05.64.2,1.28.29,1.92.17,1.11.71,2.17.24,3.34-.07.18.27.53.46.86l-1.53.79L427,244.56l-.11,1.82-1.07-1.16c-.59.81.36,1.31.23,2.08l-2.06-1-.27.33,1.66,2.3-1.47,1c-.32-2.82-1.82-4.78-3.17-6.8-.06-.1-.37,0-.83-.06.5,2.17,1,4.19,1.52,6.55l-1-1.36c-.1.12-.24.21-.26.32a4.24,4.24,0,0,1-2,2.83c-.65.45-1.23.75-2,.07-.33-.3-1.07-.13-1.64-.18-.37,1.17.4,2.31-.15,3.35-.18-.78.42-1.68-.54-2.25-1.53,1.4-1.54,1.41-.63,3.92l-1.74-.93c-.2.59-.41,1.22-.68,2l-.88-.93,1.31-2.92c-.54-.93-1.23-2.13-2-3.46-1.38,2.9-.26,5.84-.45,8.47-1.37.15-2.58.34-3.79.38a14,14,0,0,1-2.29-.28v2.69l2.14.17-1.32,1.73c-.23-.71-.44-1.17-1.13-.75-.35.21-.88.28-1.06.58-.81,1.31-1.9.9-3.09.53-.19.52.12,1.24-.52,1.47-.17.07-.46-.16-.78-.28a8.38,8.38,0,0,1-.76,1.9,10.55,10.55,0,0,1-1.79,1.52c-.37,1,1.4,1.36,1.47,2.71-1.13-.76-1.53-2.06-3-2.45.13,1,.23,1.82.34,2.66l-.22.08-.87-1.24c-.65-.07-1.53-.43-1.88-.14-.66.53-1.16.3-1.92,0,.1.61-.17,1.17.69,1.25a.9.9,0,0,1,.5.28c.87.95,1.72,1.92,2.43,2.72-2,0-2.83-.61-2.66-2.41-1.06-.26-1.06-.26-1.61,1.34a1.61,1.61,0,0,1-.42-.18c-.31-.3-.6-.62-.91-.94.3-.84.68-1.67-.14-2.46a2.28,2.28,0,0,0-.82,2.12c.13.88-.56,1.57-1.12,1.43-.89-.22-.72.59-.92.68-.73-.11-1.4-.43-1.78-.22-.64.35-.16,1.06-.07,1.62a5.63,5.63,0,0,1,.11,2.11l-.92-.84a1.66,1.66,0,0,0,0,.52c.27.76.41,1.57-.3,2.09-1.15.86-1.78,1.82-1.16,3.32-1.19-.88-.15-2-.6-3.16l-1.14-.8c.15-.3.28-.56.43-.84-1.23-.18-1.42-.1-1.56.77-.1.64-.08,1.29-.13,2.3l-1.7-2.26c-1,.87-1,1.24-.37,2.18.39.57.81,1.12,1.21,1.69,0,0,0,.09-.07.35l-1.81-1.38a2.49,2.49,0,0,1-2.59,1.49c-1.27.05-1.82,1.21-2.31,2.24a19.58,19.58,0,0,0-.76,2.13c-.48-.36-.8-.6-1.13-.83l-1-.68-.61,1s-.13,0-.14,0l-1.05-2.12c-.2.16-.37.42-.54.41s-.41-.22-.85-.5a19.93,19.93,0,0,0-.08,2.84.88.88,0,0,1-.7,1.07,1.05,1.05,0,0,1-.95-.3c-.2-.3-.68-.73,0-1.19.55-.37.37-.94-.16-1.31s-.86-.55-1.4-.89c-.57,1.16.14,2.05.5,2.89l-1.81,1.34c-.51-.69-.51-.69-1.27-.72-.18-.64-.36-1.29-.53-1.93h-.35c-.08.26-.26.53-.22.76.1.47.33.91.47,1.38s0,.85-.79,1.07l-.76-1.22c-.4.91.58,1.9-.51,2.42.06.75,1.56.9.8,2l-2.17-.72-.18.27.92,1.19a2.27,2.27,0,0,1-2-.85,15.91,15.91,0,0,0-1.48-1.26c-.25-.16-.67,0-1,0a3.17,3.17,0,0,0,.1,1c.31.67.71,1.3,1.14,2.07h-1.8l-.35-.92a6.16,6.16,0,0,0-4,2.92c-.4-1.08-.38-1.14.44-1.95s.93-.91.31-2.26l-1.09.54c-.07-.69-.13-1.28-.2-1.87,0-.05,0-.09-.16-.24-.23,0-.6,0-.79.14-.58.47-.62.91-.51,3l.82-.43c1,.62.45,1.5.18,2.14s-.94,1-1.57,1.61a13.43,13.43,0,0,1-2.6-1.36,2.31,2.31,0,0,0-2.59-.5v-1.21c-.92,1.33-.92,1.41-.05,2.78a5.17,5.17,0,0,1,1.69.13c.36.15.54.71.64,1.3l-1.33-.6c-.27.54-.49,1-.72,1.49a1.32,1.32,0,0,1-1.27.85c-.69,0-.82-.46-1.08-1a16.05,16.05,0,0,0-1.64-2.28c-.08.83-.13,1.4-.19,2h-.72c.12.64.28,1.26.34,1.89s0,1.24,0,2.29l-2.4-1.87c-.13.13-.31.23-.33.36-.21,1.25-.93,1.67-2.18,1.6-1.08-.05-1.22.29-1.1,1.49a1.62,1.62,0,0,1-.3,1.17,22.62,22.62,0,0,1-2.64,2.35c-1,.74-2.07,1.35-3.08,2,.48,1.28.22,1.66-1.31,2a2.11,2.11,0,0,0-1.41-2.23l-.82.87L317,312a5.24,5.24,0,0,1-.82-.5,2.11,2.11,0,0,0-2.54-.33c-1.66.73-1.68.7-3,.57.36.88,1.62-.31,1.85.94l-.93.11L312,314c-1.17.11-2.25.16-3.32.33-.89.14-1.77.4-2.65.63-.21.05-.45.31-.58.25-1.12-.5-1.55.43-2.07,1-.83,1-.86,1-2,.62a4.4,4.4,0,0,0-.75-.31c-.53-.08-1.08-.1-1.79-.17L297,314.16c-1,.3-1.83.87-2.56.72a7.83,7.83,0,0,1-2.45-1.52,9.06,9.06,0,0,1-1.75-1.51c1.72.58,3.36,1.47,5.35,1a21.61,21.61,0,0,0-2.16-3.06c-.57-.57-.44-.84-.06-1.28s.66-.72,1-1.08l-.2-.29-2.59.46v1c-.41-.86-1.15-1-1.94-1.23a19.12,19.12,0,0,1-5.64-2.9l.68-1.19a6.62,6.62,0,0,0-1.21-1.08c-4.55-2.36-9.31-3.76-14.5-3.14a5.35,5.35,0,0,0-2,.69c-.43.24-.7.75-1.13,1.24h-.67c0-.16,0-.3-.06-.44a5.29,5.29,0,0,0-2.2-3.45q-7.42-5.5-15-10.82c-1.08-.75-1-1.69-1-2.77a14.56,14.56,0,0,0-8.49-.28,8.09,8.09,0,0,0-1.87,1.25l-6-4.58-.3.25c.22.4.43.81.8,1.51a11.57,11.57,0,0,0-1.66-.94,4.58,4.58,0,0,0-2-.37,2.12,2.12,0,0,1-2-1c-.18-.19-.06-.7,0-1,.15-.71-.17-1-.83-1.06s-1.5,0-2.3,0c-.28-.83.29-1.21.87-1.47s1.43-.48,2.13-.75a9.73,9.73,0,0,0,1.77-.79,1.27,1.27,0,0,0,.52-1.83c-1.13-1.86-2.11-3.85-4.08-5-.13-.08-.16-.33-.26-.48-.49-.73-1-1.45-1.63-2.37l-2.14,3.76c.12-1.32.21-2.24.31-3.32-1.31.1-2.35.32-3,1.41-1.58,2.69-2.82,5.49-2.62,8.72a2.39,2.39,0,0,1-.09.51c-.88-.05-1.12-.77-1.5-1.32-.83-1.19-1.63-2.41-2.48-3.59a7.24,7.24,0,0,0-4.41-2.83c-1.26-.3-2.53-.56-3.76-.95a4.18,4.18,0,0,1-1.84-1.26l2.48.28a16.34,16.34,0,0,0-6.73-3.26l1.57-.93a12.61,12.61,0,0,0,1.65-1c1-.82,1-1.45-.09-2.13a19.33,19.33,0,0,0-11.74-3,4,4,0,0,0-3.27,1.5L195.12,261l-.07.42a7.44,7.44,0,0,1-1.63,0c-1.53-.33-3-.73-4.56-1.12a2.79,2.79,0,0,0-2.79.44l-7.41-5.29.06-.16,2.76.57c.35-.82-.13-1-.49-1.18a6.16,6.16,0,0,1-3.05-3.61,104.12,104.12,0,0,0,20.89-1.08c-1-.87-2.07-1.31-3.5-.23l.24-1c-.94-.57-.94-.57-2.12,0l.17-1.69-2,.35L192,246c-1.5-.21-2.92.13-4.36-.16a13.09,13.09,0,0,0-4.5.34c-1.44.22-2.86.58-4.27.94s-2.9.83-4.34,1.25c-2.3-1.72-2.05-3.16,1.06-6a10.31,10.31,0,0,0-6.92-1.68l-2.59.21a10.55,10.55,0,0,1-6.05-1.44c.19.41.24.56.32.69s.25.34.51.68a2.59,2.59,0,0,1-.66-.12c-2-1.23-4.06-2.46-6.06-3.74a1.57,1.57,0,0,1-.5-.94,4.51,4.51,0,0,1,.62-3.53l-6.71-.36,2.26-3.45c-2-1-3.88-.46-5.44,1.75l-5.23-7.64c-1.16.58-1.22.77-1.05,4.06a14,14,0,0,1-6.23-3.73c.46,0,.69,0,.92.07a3.48,3.48,0,0,0,3.9-2c.83-1.63,1.49-3.34,2.24-5.05a4.13,4.13,0,0,0-2.58-.38c-4.35.5-8.7.95-13.44,1.45l2.8-2.56a18.43,18.43,0,0,1-7.52-2.12,98.2,98.2,0,0,1-12.56-7.09c-.39-.26-1-.39-.7-1.19.09-.23-.37-.75-.68-1-.74-.64-1.54-1.2-2.3-1.8s-1.42-1.12-2.1-1.72a4.65,4.65,0,0,0-2.63-1.12c-1.56-.16-3.12-.32-4.67-.6A7.56,7.56,0,0,1,87.35,195c.47.27.93.57,1.42.8,1.31.61,2.64,1.22,4,1.76a1.59,1.59,0,0,0,2-.58c-4.17-2.09-8.24-4.19-12.36-6.17a4.75,4.75,0,0,0-4.45-.14c-1.06-.87-2.17-1.72-3.22-2.65-.68-.61-.65-.68.13-1.57l-9.66-4.37,2.43-2.3h3l-2.68,2.18c3.54,2.25,7.89,2.8,10.73,6.27,2.08-.57,4.12-2,6.58-1.39l.09-.34c-.67-.32-1.33-.7-2-1s-1.29-.86-2.2-.47c-1.53-1.78-4.16-1.74-6.24-3.07,1.78-3.62,3.57-7.23,6.27-10.3a4.18,4.18,0,0,1,1.36-.85q5.3-2.46,10.6-4.88c.73-.34,1.63-.49,1.24-1.84l3,1.18,1.12-1.95,1.09.5c.16-.19.36-.35.33-.42-.36-1,.25-1.42,1-1.55a2.81,2.81,0,0,0,2.62-2.42c1.36.91,1.59.87,2.26-.17.44.06,1.12.33,1.26.15a18.24,18.24,0,0,1,2.15-1.81c.29-.26.33-.86.4-1.31a7,7,0,0,0,0-1.23c2.18.1,3-1.72,4.23-2.92s2.86-2.23,3-4.36l1,.72c.79,1.27-1.46,1.63-.37,2.93l1.63-1.86-1-1.94c.55.35.89.6,1.25.78a2.61,2.61,0,0,0,.74.2c.75.16.93-1,1.9-.7.7.25,1.37-.4,1.91-1a4.71,4.71,0,0,1,1-.59L123.66,143l1.24-.19-.3-2.66,1.12,1,.42-.61c.66,1.6,1.3,3.11,2,4.7l2.68-.9-5-7.65,2.85,1.65.34-2.35.25-.06.49,1.43,1-1.2,1.82,3.71a1.2,1.2,0,0,0,1.16-1.44,10.53,10.53,0,0,0-1.53-5.17l-.77,2.8H131c-.12-1.44-.24-2.87-.37-4.44l1.75-.41c0,.94-.07,1.88,1.31,1.91.49,0,.93.62,1,1.32.1.9.34,1.79.55,2.85l.86-.54.35.71.29-.1-1-3.45.3-.16,2.39,3.37a.69.69,0,0,0,.64-.91c-.27-1.41-.94-2.77-.57-4.28,0-.15-.28-.4-.49-.67l1.51-.75,2,2.41-.21-2.36,1.64,2.47.28-.12L142,130l2.54,1.5.2-.16-2-2.84,1.09-.92,1.5,3.77,1-.78h0c.39-.11.72-.26.59-.77s-.19-.82-.36-1.56l.77.85c.62-.92,1.25-1.83,1.86-2.74a4.44,4.44,0,0,0,.38-.67,1.63,1.63,0,0,1,2.38-1c.53.24,1.25-.26,1.58.49,1.48-1.21,1.49-1.26.48-3.77l1.72,1,.55-2c.32.34.8.65.76.84-.22,1-.58,1.89-1,3a.75.75,0,0,0,1,.48,1.77,1.77,0,0,0,1.39-1.76c0-1-.18-1.94-.28-2.91,0-.31,0-.63-.06-1a23.15,23.15,0,0,1,2.78,0c.42,0,.79.45,1.22.71l.52-.92,1.26.32V117l-1.54-.31c.53-.9,2.07-.19,1.81-1.91l1,1.18c1.26-1,2.16.4,3.3.49.52-1.25-.38-2.23-.58-3.33l-1.14-.31c.82-.29,1.46-.48,2.08-.75a3.46,3.46,0,0,0,.87-.62c.52-.47,1-1,1.76-1.68-.12-.22-.37-.7-.67-1.16s-.87-.65-.79-1.46c1.1.71,1.47,2.11,2.94,2.42l-.44-2.47.21-.11.88,1.15c.71.08,1.6.4,1.81.15.57-.67,1.09-.17,1.52-.18l.69-3.13,1.44,1.23c-.29.84-.62,1.68.19,2.47a2.9,2.9,0,0,0,.72-2.2c-.12-.74.55-1.38.93-1.25.91.32.72-.62,1.08-.73l1.51.57c.63-1.43-.48-2.53-.31-4l1,.73a1.16,1.16,0,0,0,0-.44,1.91,1.91,0,0,1,.3-2.11c1.22-1.34,1.19-1.36,1-3.06.59.24.63.64.58,1.14-.18,1.79-.17,1.79,1.24,2.72l-.4.63c.88.49,1.18.46,1.36-.28a18.42,18.42,0,0,0,.24-2.36l1.62,2.12a1.25,1.25,0,0,0,.42-1.86,14.11,14.11,0,0,0-.89-1.15,1.72,1.72,0,0,1-.38-1.17l1.71,1.37c.36-1.23,1.24-1.5,2.36-1.44.76,0,1.85-1.15,2.18-2.21.19-.64.39-1.29.64-2.09l2,1.52.64-1.14L200,94.28c.59-.18.18-1.36,1.15-1,.11-.49.44-1.08.27-1.44-.29-.62-.08-1,.38-1.14a1.2,1.2,0,0,1,1,.14.82.82,0,0,1,.07,1.26c-.23.26-.1.83-.13,1.15l2,.61L204,91.36l1.55-1.18,1.78,1.08.25-1.9,1.32,1.18.15-2.15c.18-.73-1.28-.89-.57-2l2.06.72.17-.28-.85-1.11c1.3-.33,1.77,1.09,3,1.38l-.67-1.35c.12-.51.09-1,.3-1.19s.78-.31,1-.59c.76-.8,1.54-1.19,2.56-.49.09.06.23.16.28.13,1.08-.65,2.33-.43,3.46-.73.52-.14.86-.92,1.4-1.55,2.11.09,5.19-3,5-5.51.71.16,1.35.33,2,.47s1.21.22,2.08.38a7.63,7.63,0,0,0,.66.83,10.82,10.82,0,0,0,1.08.81l1.82-2.24-1.28-1.36.46-1,2.22.42c.77-.55,1.06-1.46,2-1.85a18.21,18.21,0,0,0,2.44-1.48c0-.57,0-1-.07-1.62l1.2.51a5,5,0,0,1,.44-1.45.73.73,0,0,1,1.32-.06c.05.06.32,0,.4,0,.69-.71,1.7-.6,2.51-1,.25-.13.72.25,1.07.22.76-.09,1.52-.3,2.32-.46l-.53-1.09a9.45,9.45,0,0,1,1.74-.21,4,4,0,0,0,2.79-1A71.86,71.86,0,0,1,265,57.06c.24-.12.49-.21.84-.36a7.69,7.69,0,0,1,.4,1c.79,3,1.57,6.07,2.32,9.11a9.59,9.59,0,0,0,2.21,3.79l1.15-1.37,1.24,2.87-.28.21-1.94-1.6c-.64,1.2.56,1.93.54,3a10.88,10.88,0,0,0,1,3.17,2.65,2.65,0,0,1,3,.58l-2.44.59c.4.91.8,1.8,1.22,2.78l2.73-1c-.08,1.08-.14,1.9-.21,2.79H275l1.15,1.9h3.27l-2.09,2.81a33,33,0,0,0,3.87-.75c1-.32,1.5.69,2.4.42-1.5,1.25-3.42.93-5,1.73,0,.92.52.9,1.19.69,1.75-.55,3.51-1.07,5.27-1.6l.89-.28-.9,1,1.48.18-1.3.36c1.51.78,2.88.41,4.36.28,0,.46,0,.77-.6.88a12.42,12.42,0,0,0-1.61.58,19,19,0,0,1-2.31.66c-1.54.27-3.1.43-4.65.68a6.18,6.18,0,0,0-1.21.47l.13.4L285.25,92l.05.2-4.11,1.3,0,.18,6-.69c-.15,1.08-1.08.86-1.58,1.26.1.27.33.6.28.86s-.4.46-.62.68l0,.31L281.1,97.5l0,.27c1-.15,2-.25,3-.47,1.47-.34,2.13-.11,3.2,1.34l-.6.42-.63.45c.44,1.35,1.45,1.28,2.38,1.13l.76.9a.29.29,0,0,1-.14.11c-.25.07-.56.22-.77.14-1.82-.74-3.43.12-5.43.68,2.54.44,4.72-.17,7.32-.18-.7.61-1.13,1-1.54,1.34s-1,.44-.88,1.14l-2.71.09,0,.32,2.67-.42a5.44,5.44,0,0,0,.93.27c.53,0,1.06,0,1.95,0l-1.86,2a4.71,4.71,0,0,0,.83.06c.53-.06,1.06-.17,1.58-.26,0,.78.65.53,1,.72a1.63,1.63,0,0,1,1,1.45l1.46-.23a2.87,2.87,0,0,0-1.91,2.08l1.73.26c-.72,1.21-2,.3-3.22,1.09l2.23.21-.42,1.55c1.48.15,3.27-1,4.55.84l-3,1c.22.75,1,.17,1.41.58l-1.41.66.1.28c.51-.1,1-.17,1.52-.3s.91-.28,1.66-.53l-.83.64-.17,1.69c1.36.93,2.75.5,3.55-1.24.33-.09.69-.2,1.06-.29l1.16-.25-.92-1,.61-.74-.55-.79.85-.92,1.48.35-.77-1.48,1.08-.21-1.48-2,1.56-.33-3.19-3a11.55,11.55,0,0,1,2.55,0,9.52,9.52,0,0,0,5.53.29l-1.46-.79c-.07-1.1.94-.71,1.69-1l-1.39-.92a3.15,3.15,0,0,0,0-1.1c-.11-.32-.47-.55-.73-.82.64-.55.64-.55,1.54-.31.13-.5-.07-.75-.54-1-1.13-.49-2.23-1-3.38-1.57l1.36-.78c.18-.1.36-.27.55-.27a13.31,13.31,0,0,1,1.41.07c-.16-.45.14-.58.47-.8a3,3,0,0,0,1-1.05c.44-.85,1.18-.82,2.14-.74-.36-.68-.65-1.21-1-1.86l1.43.22-.59-.77.77-.22-2.09-1.89.75-.81-1.48-.87-.05,0,1.7-.87-1.28-1.84,2.9-.29,0-.35a6.07,6.07,0,0,1-.9-.5c-.49-.39-1-.81-1.41-1.24-.26-.24-.43-.67-.72-.77-.93-.3-1.08-.94-1-1.85.62-.14,1.26-.32,1.9-.43s1.21-.16,1.53-.2l1.67-1.1c-.34-1-.75-2.15-1.16-3.32l1.63-.74.09,0c-.07,1,.81.79,1.33,1a4.92,4.92,0,0,0,1.36,0c-.61-1.56-2.09-1.41-3.3-2.19l1.63-.42.06-1.21L318,75.28a31.83,31.83,0,0,1,2.72-10.36l.64,2.72a10.23,10.23,0,0,1,1.69,0c.18,0,.3.39.45.62.92-1.48-.87-2.09-1-3.35l1.32.33c.19-2.39-.33-4.72-.43-7.08,1.09-.37,1.2.79,2.13,1.14l2.37-.7A2.32,2.32,0,0,1,329,58.4a2.28,2.28,0,0,0,2-.67c-.09.31-.17.62-.26.93,2.1,1.28,3.71,1.89,4.79,1.75a9.22,9.22,0,0,0,2,3.57,9.73,9.73,0,0,0,2.85,2.08,7.38,7.38,0,0,1,4.2,3.66l2.63-1.4-.36,2,.24.17,1.07-1c.83.21,1.25.91,1.69,1.58.67,1,1.11,2.28,2.62,2.4.08,0,.23.1.23.15,0,1.57,1.27.88,2.12,1.23-.31,1.24.51,2,1.47,2.52,1.56.93,3.15,1.8,4.78,2.71l.45-1c1.28.57,2.57,1.1,3.81,1.72,7.9,3.94,15.1,9,22.61,13.62,1.7,1,3.44,2,5.42,3.2l-.58-1.32c3,1.56,5.93,2.78,8.1,5.27l-1.84-.71c-.2,1.5.89,3.68,2.1,4a5.4,5.4,0,0,0,1.84-.17,4.22,4.22,0,0,0,.58,1.35,5.38,5.38,0,0,0,1.39.83c.2-.55.33-.94.49-1.38a2.07,2.07,0,0,1,1.82,1.07c.54.75.7,1.7,1.37,2.33a21,21,0,0,0,2.19,1.93c3.13,2.22,6.3,4.39,9.43,6.56.44-.26.84-.66,1.26-.7s.64.55.91.93a30,30,0,0,0,2.35,2.59c.17-.77.27-1.24.43-2l15.44,12.29c.36-.45.68-.84,1.2-1.5-.13.83-.21,1.36-.32,2a10.51,10.51,0,0,0,.91.78c2.34,1.63,4.67,3.28,7.05,4.85a6.23,6.23,0,0,0,1.74.51l1.06-1.15a10.93,10.93,0,0,1,2.61,1.07c.43.31.45,1.19.46,1.86.47.56,1,1.11,1.37,1.71.12.17,0,.52-.07.85a2.56,2.56,0,0,0,.53.22c2.2.31,3.75,1.72,5.32,3.09.61.53,1.1,1.15,2.05,1.1a1.34,1.34,0,0,1,.93.72,14.63,14.63,0,0,1,.68,2.09l1.44-.84c-.38.71-.59,1.09-.91,1.67l1,1c.63-.53.62-1.67,1.72-.88l.4,1.95,2.13.65c0,.23,0,.74-.13.81-1.08.49-.75,1.38-.64,2.15a5.43,5.43,0,0,0,.81,2.11c0-.4.08-.79.14-1.3l1.27-.71a1.42,1.42,0,0,1,.06.45,2.74,2.74,0,0,1-.33.74,4.49,4.49,0,0,0-.67,4,2,2,0,0,1-1.39,2.69l2.39,1.31c-.69,0-1,.17-1.31.06a17.13,17.13,0,0,1-2.35-1.07c-1.23-.68-2.39-1.48-3.63-2.15a5.52,5.52,0,0,0-2.38-.91,3.43,3.43,0,0,1-2.69-1.49c-1.71-1.87-3.46-3.71-5.3-5.68l-1.66,1.44-2.87.47c-.11-.38-.11-.86-.34-1.09-1.33-1.34-2.72-2.63-4.35-4.18l-.78,1.58-.76-1.28-1.94,1.24a2.77,2.77,0,0,1,1.28-3.26l-1.67-1.44-3.33,5.52.35-3.19-2.22.68-.11-.21,1.17-1-1.22-.25c.32-.52.64-1.05,1-1.55.48-.69,1-1.35,1.52-2.08-1.72-.5-4.29,1.22-5.6,3.59.62-.14,1.14-.22,1.64-.38a1.34,1.34,0,0,1,1.46.42,7,7,0,0,0-4.1,2.13l-1.07-1.45,1.33-.89c-.55-1.45.15-2.33,1.29-3.08.89-.59,1.68-1.32,2.66-2.1l-1.45-1-2.46,3c-.19-1.56.89-2.41,1.42-3.55-.27-.61-.66-.59-1.13-.21a8.85,8.85,0,0,1-3.32,2.23c-.13,0-.19.34-.34.65l-1.21-.91,1.35-2.75-1.5.88-.16-.16c.44-.7.88-1.41,1.33-2.11l-.24-.21-2.21,2.46c.16-1.19.26-2,.37-2.82l-.22-.12c-.4.71-.77,1.43-1.22,2.1-.22.31-.61.73-.91.72-.63,0-.62-.61-.63-1.11l-.05,0c1.67-.43,2.12-2,3.21-3.22l-1.3-.83-2.36,2-.15-.12.71-1.21a4,4,0,0,1-4.41-.93,1.62,1.62,0,0,0-.52-2.32c-.19-.18-.44.54-.95,0-.76-.85-1.66-.62-2.51.23-.22.22-.41.48-.82,1v-1.79l-1.87.33.51-1.15,2.9-.33.65-1-1.74-1.09-4.06,2.57a6.1,6.1,0,0,1-.25-5.16c-.86-.63-.84.54-1.45.59l-.32-.5-3.75,1.59-.12-.22.77-1.13c-1.48-.56-.66-1.86-.94-2.93a2.21,2.21,0,0,0-1.61.82,4.89,4.89,0,0,1-.65.71c-.49.39-.7.25-1-.68-1.13,0-2.45.8-3.32-.72l-1.15.91-.05,0c.08-.52.16-1,.28-1.88L396.36,125l-.16-.17.79-1.28c-.18-.58-.21-1.48-.55-1.62a1.11,1.11,0,0,1-.72-1.22l-2.73.71c0-1.38,0-1.37,1.26-1.92a6.4,6.4,0,0,0,1.19-.93l-.17-.35a9.91,9.91,0,0,0-1.75.4c-1,.46-1,.5-1.85-.53a.42.42,0,0,0-.27-.14,4.64,4.64,0,0,0-.64.07c0-.53-.05-1.07-.08-1.73-1.46.3-2,1.55-3.2,2.11l-.28-.78c-1,.92-2.11.28-3.2.15h0c0-.11-.12-.24-.08-.3.38-.66.77-1.31,1.26-2.11l.62-.17c.07-1-.44-1-3.1,0,.28-.47.49-.81.68-1.17l.67-1.27c-2.33-.32-2.08,1.94-3.39,3,.21-1,.35-1.58.48-2.19a5.38,5.38,0,0,1-1.53-.7,4.33,4.33,0,0,1-.71-1.34c-1.47-.87-2.94-.28-4.54-.1.2-.87.37-1.57.55-2.36h-1.32l1.47-1.8-.38-1.22a.23.23,0,0,0-.17,0,8.48,8.48,0,0,0-2,1c-.39.3-.68.35-1,.13s-.45-.59-.37-.78a2,2,0,0,1,.8-.93c.26-.15.68,0,1-.06a.48.48,0,0,0,.32-.33c.07-.51.09-1,.14-1.68-1.24,0-1.5,1.15-2.12,1.63l-1.49-.84a4.24,4.24,0,0,1,0-1.47c.17-.43.65-.72,1-1.07l-.27-.31-2.05,1.57-.14-1.51-1.65.57c-.56.26-.27,1.31-1.38,1.37l-.21-2.08-.24,0-.72,1.29a1.86,1.86,0,0,1-.08-1.71c.19-.62.47-1.22.6-1.85.07-.36,0-1-.17-1.12-.5-.35-.71.17-.94.55-.33.55-.72,1.06-1.16,1.68l-.8-1.2c.71-1,.72-1-.37-1.79-.4-.28-.47-1-1.27-.77-.38.11-.87-.16-1.41-.28a1.16,1.16,0,0,1,1.7-.53c.55.22,1.11.51,1.6-.29-.61-.56-1.19-1-2.09-.57s-1.69-.07-2.59-.4A2.21,2.21,0,0,0,356,91.78l-.69.38L355.1,91c-.32,0-.63,0-.94,0-1.61,0-1.84-.27-1.4-2l-1.63-.87-2,.75.24-1.75-2.7-1c-.1,0-.29,0-.31,0-.72-1.36-2.22-.76-3.25-1.31S341,83.5,339.9,82.94c-.4-.2-.85-.85-1.46,0-.31.46-1.19.19-1.48-.38l1.41-2.34c-1-.71-1.51-.14-2,.56a2.71,2.71,0,0,0-1.7-3.54l-.64.44-.38-.71-.77,1-1.41-2.14c-.26,1-.52,1.65-.65,2.38a87,87,0,0,1-2.9,13c-.28.85-.59,1.7-.93,2.67l1.83,1.25c-.38.6-.75.47-1.21.15s-.9-.72-1.45.06l.9,1.1a12.12,12.12,0,0,0-.44,1.75,19.06,19.06,0,0,0,0,2.18l2.59-2-1.08,4.63c-.2.84-.43,1.67-.56,2.53a2.51,2.51,0,0,1-1.57,2.38,3.22,3.22,0,0,0-1.29,1.93,9.71,9.71,0,0,0,.25,7,5,5,0,0,1,0,3.58c-.75-1.3-.2-2.86-1.22-3.91a2.85,2.85,0,0,0-1.23,3.43A25.07,25.07,0,0,1,323,124a2.62,2.62,0,0,1-.6,1.61c0-.82-.08-1.64-.12-2.44a1.26,1.26,0,0,0-1.71,1c-.39,1.24-.73,2.49-1.07,3.74-.1.36-.15.73-.27,1.29l2.8-.91a9.57,9.57,0,0,1-.24,1.37c-1.76,5.51-3.4,11.06-5.37,16.49a27.14,27.14,0,0,1-3.72,7,17.65,17.65,0,0,1-27.23.87,29.17,29.17,0,0,1-3.46-5.84.68.68,0,0,1-.12-.46c.42-1.67-.53-3-1-4.51-.57-1.92-1.29-3.79-1.89-5.7a6.77,6.77,0,0,1-.22-1.75,1.06,1.06,0,0,1,.88-1.16c.58,1.34.58,1.34,1.5,1.82a9,9,0,0,0-.52-5.63c-1.46.76-2.28-.87-3.63-.9-.61,1,.14,2,0,3.28-1.1-1.6-2-2.91-2.92-4.25a3,3,0,0,0-1.71-1.36,5.93,5.93,0,0,1-3.32-3.17,28,28,0,0,1-2.33-7.06c-.77-3.32-1.46-6.65-2.31-10-.4-1.56-1.21-3-1.61-4.58-1-3.78-3.1-7.16-3.75-11-.19-1.17-.3-2.36-.43-3.54a13.23,13.23,0,0,0-.16-1.78c-.36-1.52-.69-3,.52-4.55l-2-.83a26.92,26.92,0,0,1-2.9,2.49A25,25,0,0,1,250.82,85l-.68-1.1a4.65,4.65,0,0,0-.41.67,8.46,8.46,0,0,1-5.83,5.68c-2.94,1-5.1,3-7.72,4.41-.52.28-1,.63-1.47.92-1.59-1-2.07-1-3.6,0A38.08,38.08,0,0,0,227.88,98a61.64,61.64,0,0,0-5.46,4.59c-1.1,1.11-2.65,1.12-3.77,2.07-.33.28-1.09,0-1.86,0l.36,4.41-1.53.41-.4-1.43-2.09-.72-1.36,1.14c1.3.46.39,1.7,1.3,2.48-1.42,0-1.49-1-2-1.79-.9.74-1.78,1.51-2.71,2.22s-1.51,1.92-3,1.57a7.89,7.89,0,0,1-4.49,3.84c-2.06.82-4.16,1.52-6.25,2.26-.55.19-1.12.33-.57,1.25l-1.73-.31-.46,1.24c-.42.22-1,.32-1,.54-.2.87.64.81,1.28,1.13a9.36,9.36,0,0,0-1.21.56,55.64,55.64,0,0,0-4.66,3.2,53.11,53.11,0,0,0-3.93,3.87c-1.32,1.36-2.58,2.79-4.63,3.32l.75,1.26-.17.17-3-2.3.58,2.73-.23.09-1-1.37-1.16.41a3.92,3.92,0,0,1,.36,1.15c0,.33-.29.65-.5,1.08l1.92,1.61-.1.27a6.88,6.88,0,0,1-2.15-.7,2,2,0,0,0-2.42-.35L169,136.6c-.8.48-.95,1.68-2.08,1.36-.07,0-.29.51-.43.77l-1.55-.52c-.64,1.47.64,2.57.47,4l-1-.77c0,.07-.15.17-.14.22a2.1,2.1,0,0,1-.69,2.86c-.94.65-.48,1.6-.38,2.48h-.39a7.07,7.07,0,0,1-.14-1.43c.1-1.05-.15-1.82-1.37-2.09l.32-.86c-1-.36-1.23-.29-1.33.53a23.41,23.41,0,0,0,0,2.43l-1.78-2.14c-.89,1-.91,1.25-.15,2.19.45.56.94,1.1,1.41,1.66l-.24.26-1.73-1.24a4.78,4.78,0,0,1-1,1.19,3.71,3.71,0,0,1-1.4.26,3.27,3.27,0,0,0-2.16,2.45c-.12.47-.21.95-.34,1.42a2.44,2.44,0,0,1-.34.49l-1.92-1.28L150,152l-1.11-2-1.43.07a9.84,9.84,0,0,0,.06,2.42c.11.46.11.77-.21.92a1.57,1.57,0,0,1-1.16.08c-.24-.11-.49-.82-.38-.94,1.09-1.19.06-1.52-.73-2a5.62,5.62,0,0,1-.69-.63c-.59,1.31.33,2.13.63,3l-1.58,1.37a3.37,3.37,0,0,1-2-2.94c-.84,1-.33,1.47-.14,2a1.31,1.31,0,0,1-.14,1.63L140,154c-.42.67.72,1.57-.34,2.13.11.75,1.52.83,1,2l-2.23-.69-.15.26,1.05,1.21c-.86.25-1.37-.26-1.9-.66a15.7,15.7,0,0,0-1.65-1.3c-.24-.15-.67,0-1,0a2.86,2.86,0,0,0,.15.86c.4.69.86,1.34,1.33,2.05l-1.73.11-.46-.91a5.81,5.81,0,0,0-3.68,3.08,1.63,1.63,0,0,1,.38-2c.88-.95.86-1,.07-2.22l-.86.55-.41-.95c-1.06.26-1.57.8-1.24,1.94a1.22,1.22,0,0,0,.37-.05,3.37,3.37,0,0,0,.38-.28c1,1.19,1,1.28-1,3.67a19.48,19.48,0,0,1-2.66-1.26c-1.46-.94-1.42-1-2.92,0,0,.1-.06.22,0,.3.13.29.3.56.42.79a8.06,8.06,0,0,1,1.92.24c.3.11.46.64.85,1.23l-1.55-.55a2.58,2.58,0,0,0-.25.42,4.38,4.38,0,0,1-.49,1.19,1.89,1.89,0,0,1-1.15.66c-.28,0-.7-.41-.87-.74a3.12,3.12,0,0,0-1.55-1.59c-.64,1-1.18,1.94-.59,3.17a6.76,6.76,0,0,1,.16,2.19l-2.42-1.81c-.12.16-.3.28-.31.41-.11,1.18-.71,1.67-1.92,1.68s-1.2.21-1,1.5a1.43,1.43,0,0,1-.19,1,22,22,0,0,1-2.06,2.25,18.86,18.86,0,0,1-1.9,1.34,25.3,25.3,0,0,1,2.9,1.77,29.6,29.6,0,0,1,2.49,2.51l2.52-1.34-.48,2.72.23.12,1.24-1.65a4.35,4.35,0,0,1,2.16,2.09c.72,1.1,1.4,2.23,3,2.21l-.21,1.15,2.43.27a2.33,2.33,0,0,0,.07.74,3.61,3.61,0,0,1-.92,4.65c1.27-.47,1.27-.47,1.95-1.51l3.46.62c1,1.1,3.36,1.48,3.92,3.76l1.52-.13.85-2,1.3,1-.4,2.24,1.66-.33,0,0-.36,1.42c.91-.18,1.36-1.13,2.32-.88-1.52,1.22-1.59,1.47-.59,2.44l1.28-2.18c2.91,2.17,4.57,5.46,7.27,7.2a11.39,11.39,0,0,0,.73,2.1,1.7,1.7,0,0,1,.15,1.82,4.69,4.69,0,0,0-.14,1.41c1-.61,1.47-1.14,1.17-2.17a6.51,6.51,0,0,0,3.17-1.72c1-1,1.77-.81,2.25.44a5.74,5.74,0,0,0,3.22,3.56c.47.19.76.88,1.05,1.39s.48,1,.83,1.8c.31-.49.72-.91.64-1-.79-1.28.53-1.18.94-1.69.81.74,1.53,1.44,2.29,2.1s1.69,1,2.06,2l-1.24.3c.67.36,1.5.27,1.61,1.32,0,.2.9.33,1.4.42a2.12,2.12,0,0,0,.78-.17c0,1.12-1.58,1.27-1.21,2.52,1.19,0,1.86-.91,2.62-1.59a24.91,24.91,0,0,0,1.93-2c.73,1.11,1.41,2.23,2.18,3.28.5.69,1,1.31.72,2.33a11.38,11.38,0,0,0,4.16-4l.84,1,2-1.33.13,1.91L180.3,220c1.08.39,2.15-1,3,.48l3.7-7v3.23l2.18-.76.15.16-1,1.14,1.51.16c-.88,1.29-1.73,2.54-2.64,3.86,2,.39,4.28-1.21,5.74-3.83l-2.79.55c.41-1,1.24-1,1.85-1.41s1.11-.82,1.77-1.31l1.24,1.46c-.87.4-1.54.66-1.1,1.8.25.67-.26,1.36-.91,1.91-2.8,2.37-5.54,4.81-8.33,7.26l1.43,1.05c3-2.14,5.36-5.1,8.14-8a4.55,4.55,0,0,1-.93,2.68c-.45.77-1,1.5-1.64,2.55,1.62-.39,2.33-1.46,3.28-2.19s1.8-1.3,2.82-2l1.13.77c-.31.83-.62,1.66-1,2.76l1.85-1.1-1.58,2.76.26.21,2.23-2.69-.23,3.39a10,10,0,0,0,1.47-2.69c.36-.74.87-.88,1.35-.39s.16.78-.15,1.11Zm230.36-.12.54,1.45.39-.21-1-1.21.85-1.83-2.33-1.32A6.24,6.24,0,0,0,433.44,225.66Zm-30.6,28.26.94.63c-.11-1.23-.11-1.23-2.15-3.75l-.66,1.51c.56.38,1,.68,1.5,1a2.64,2.64,0,0,1,.41.6c-.71,1.46,0,2.73.45,4.07.75-.27.68-.71.5-1.2ZM106.57,190.69l-.42,0c.86-1.69-.05-2.65-1.24-3.47-.16-.12-.56-.17-.66-.06-.67.68-.52-.47-.91-.38l-.84,1c-.68-1.19-1.19-2.27-1.86-3.23s-1.53-1.87-2.39-2.9c-1.26-.27-2.18-.32-2.46.3s-.76.52-1.22.57c-.26,0-.51.08-.75.12.41.44.94.78,1.13,1.25.49,1.31.43,1.33,1.71.93l.7-.22c2.31,2.76,8.3,7,10.48,7.37l.64-2-1.18-.26Zm7.48,4.56c-.49.93.11,1.21.61,1.53a52.57,52.57,0,0,1,4.84,3.4c.94.77,1.85,1.57,2.74,2.32.64-.95,1-2.19,1.82-2.55,1.22-.56,1.17-1.58,1.78-2.38-.86-.37-1.44,1-2.1,0-1.14.57-1.84,1.94-3.37,1.71l.7-2.82c-1.45.45-2.38.26-2.84-1.15-.28-.86-.81-.84-1.6-.28a2.21,2.21,0,0,1-1.13.4A7.5,7.5,0,0,1,114.05,195.25Zm10.41,7.68-1.07-.87c-.22.28-.58.54-.62.85-.15,1.23,2.21,2.86,3.25,2.17.88-.58,1.13-.48,1.22.51,0,.13.27.24.37.33l1.38-1.64c.19-.95.38-1.95.59-2.94a8.73,8.73,0,0,0,.33-1.41,1.14,1.14,0,0,0-.39-.74,5.72,5.72,0,0,0-1.72.68c-.4.27-.47.72-.17,1.27.56,1.05.5,1.08-.53,2.13l-.21-1.64ZM445.72,215.1a4.66,4.66,0,0,0-.52,3.8l1.3-.26-.8-.94.18-.22,1.51.75c.51-.62.94-1.49,1.64-1.87a3.69,3.69,0,0,0,1.72-2.12,19.88,19.88,0,0,0-1.82-2.42c-.58-.59-1.26-.23-1.3.61s.08,1.51.09,2.27-.1,1.37-.93,1.64ZM304.81,123.68c-1.9-1.21-4-2-5.85-3.23-.09-.06-.21-.15-.29-.13a6.12,6.12,0,0,0-.83.28c.17.63-.34.5-.64.61l-1.26.47.05.38,2.38.16c-.48.68-1,1-1.58.77-1-.41-1.5.16-2.48.84l2.48-.42c.77,1-.56.93-.62,1.46a1.35,1.35,0,0,0,1.75-.2c.46-.45,1-.79,1.46-1.28a1.79,1.79,0,0,1,1.18-.57,4.05,4.05,0,0,1,3.37.62A2.43,2.43,0,0,0,304.81,123.68Zm151.25,87.44-.95-1.85c-1.2.19-1.16,1-1.33,1.74a2.84,2.84,0,0,0,.37,1.94,11.75,11.75,0,0,0,1.19,1.83c.47.71,1.42-.26,1.68.65C458.66,212.91,458.52,212.36,456.06,211.12Zm-181.8,76.45-.32-.22a5.65,5.65,0,0,1-.95,1,2.41,2.41,0,0,1-1.4.54,14.54,14.54,0,0,1-2.5-.79,15.35,15.35,0,0,0,6.25,4.8C273.71,291.34,272.81,289.69,274.26,287.57Zm20.8,15c-2.82-1.4-5.75-2.25-7.57-4.75l-1.76.52c.48.34.75.56,1,.74a7.36,7.36,0,0,1,1.92,1.17c1,1.23,2.49,1.61,3.83,2.2A2.51,2.51,0,0,0,295.06,302.53ZM426.5,230.68c1.25-.43,1.65-1,1.48-2-.22-1.14-.51-2.28-.75-3.34l-1.61.63C425.9,227.48,426.18,229,426.5,230.68Zm5.45,7a6.74,6.74,0,0,0-.5-6.22C430.39,233.1,430.53,235.14,432,237.7Zm-301-30c.1-.53.08-.93.2-1a2.8,2.8,0,0,1,1.08-.15,1.33,1.33,0,0,0,1.46-.87c-.4-.61-.72-.34-1.12-.11a2,2,0,0,1-1.86.3c-1.07-.49-1.36-.27-1.32.94a6.64,6.64,0,0,1-.14,1Zm150.27,88.66c-1.63-2.42-3.09-3.13-4.63-2.31Zm159.16-57.7c-.09,1.15-.15,1.86-.22,2.82l2.82-1.3ZM286.83,90.22a6.24,6.24,0,0,0-5.11.61A9.75,9.75,0,0,0,286.83,90.22ZM112.9,194.88c-1.76-1.63-2.86-2.19-4-2a10.91,10.91,0,0,0,3.45,2.3C112.46,195.2,112.7,195,112.9,194.88Zm102.89-87.47c.11-1.09.65-2,.28-3.15C214.5,105.5,214.46,105.92,215.79,107.41Zm-83.47,96.73.14.46,2.95-.42c0-.81-.42-1.13-1.12-.89A20.16,20.16,0,0,0,132.32,204.14Zm164.58-74c-.79-.28-2.73.28-3.8,1C294.63,131.7,295.71,130.73,296.9,130.16ZM262.46,284.27a10.07,10.07,0,0,0,3.47,2l-1.73-2.11ZM399,245.65l.36-.25-.78-2.26-.32,0-.59,1.5ZM316.73,90.5l0,.36c1,.37,1.73,1.25,3.19,1.2a7.23,7.23,0,0,0-2.65-1.72C317.12,90.28,316.9,90.44,316.73,90.5Zm99.56,147.68c.81-1.48.74-1.8-.83-3.55C415.77,235.94,416,237,416.29,238.18ZM319.82,88.71l.34-.17c-.1-.31-.11-.78-.32-.89a1.8,1.8,0,0,0-2.24.12Zm103.46,30.74-.17.19c.28.55.58,1.09.85,1.64.19.38.45.69.83.32a.83.83,0,0,0,0-.81A19.41,19.41,0,0,0,423.28,119.45ZM399.45,249.11h.39c.51-1-.14-1.83-.59-2.7C399.32,247.3,399.39,248.21,399.45,249.11Zm-105-115.78c1.45.38,1.55.34,2.5-1.1Zm-67.8-55.22-1.51,1.64C226.47,79.87,226.5,79,226.62,78.11ZM136.41,210l1,.32c.23-.53.43-1.05-.29-1.21C136.57,209,136.39,209.41,136.41,210Zm148.51,86.27c-.7.2-.95.62-.84,1.21,0,.14.38.22.72.4Zm50.66-13.59c-.72.59-1,1-.6,1.78C335.85,284.18,335.75,283.6,335.58,282.7ZM216.27,239.46,215,241.1C216.3,241.2,216.5,240.66,216.27,239.46ZM332.89,287l-1-1.43C331.45,287,331.47,287,332.89,287ZM164.77,211.43l.36,1.95C166.05,212.64,166.05,212.64,164.77,211.43Zm232.87,49.82.12,1.2,1.56-.14v-.23ZM215.77,243.1l.1-1.44-.3-.09-.76,1.17Zm81.36,64.48c-.69-1.11-.69-1.11-1.63-.64Zm59.1-218.64c-.48.24-.76.56-.54,1.08a.55.55,0,0,0,.51.13A.71.71,0,0,0,356.23,88.94ZM91.74,170.16l-.19-.36-1.56,1,.18.28ZM281,105.77l.13.44,1.5-.64-.12-.3Zm-3.38,186.55-1.13.24C276.94,293.28,277.26,293.48,277.59,292.32Zm75.59-14-.34.09a9.1,9.1,0,0,0,.29,1c0,.07.26.06.56.12Zm-129-197.2.24.15.53-.85-.21-.13Zm93.36-1.61c0-.9-.36-.93-1.09-.74Zm88.23,164.7.32-.18c-.17-.25-.34-.5-.52-.73a1.93,1.93,0,0,0-.25.14Z" transform="translate(-65.18 -56.7)"/><path class="cls-2" d="M265.93,303.42v-1.24l3.78,1.34-.77-1.78c3.42.68,5.92,2.22,6.6,4.22C272.26,305.31,269.43,303.33,265.93,303.42Z" transform="translate(-65.18 -56.7)"/><path class="cls-2" d="M126,220.51l6.07-2.72c-.22,1.72-.41,3.2-.62,4.86a17,17,0,0,0-2.41-1.47A20.3,20.3,0,0,0,126,220.51Z" transform="translate(-65.18 -56.7)"/><path class="cls-2" d="M170.75,248.54a1.45,1.45,0,0,1-.52-.23,2.27,2.27,0,0,0-2.75-.59c-1.15.49-2.82-.92-2.69-2,.09-.79.41-1.12,1.18-.9,1.25.34,2.64.45,3.43,1.8A10.85,10.85,0,0,0,171,248.3Z" transform="translate(-65.18 -56.7)"/><path class="cls-2" d="M467.4,211.5c.27.19.64.31.8.57.52.86,1,1.77,1.56,2.9-1.86-.32-1.39,1.51-2.55,2a19,19,0,0,1-.61-2c-.13-.73-.13-1.48-.19-2.23l1.13-.06c0-.4-.07-.79-.1-1.19Z" transform="translate(-65.18 -56.7)"/><path class="cls-2" d="M274.78,308.57c1.53.4,3.43-.19,4.64,1.87C277.56,310.09,275.86,310.14,274.78,308.57Z" transform="translate(-65.18 -56.7)"/><path class="cls-2" d="M460.87,202.82a6.73,6.73,0,0,1,.68-1.4c.15-.19.63-.11.95-.16h0c-.14.91.45,1.54.86,2.22a1.88,1.88,0,0,1,.27,2c-.84-.66-.84-.66-1.52-3.32l-1.2.67Z" transform="translate(-65.18 -56.7)"/><path class="cls-2" d="M276.47,302l4.09,1.91C279.24,304.75,277,303.82,276.47,302Z" transform="translate(-65.18 -56.7)"/><path class="cls-2" d="M176.45,106.83l-3.1-2.83a3.77,3.77,0,0,1,2.48.75C176.79,105.37,175.9,106.33,176.45,106.83Z" transform="translate(-65.18 -56.7)"/><path class="cls-2" d="M238,239.57a3.55,3.55,0,0,1,.52,2.55c-.1,1.07-1.37.82-1.71,1.6Z" transform="translate(-65.18 -56.7)"/><path class="cls-2" d="M478.44,197l2.2-2.76.43,1.2c0,.14,0,.21,0,.24a23.4,23.4,0,0,1-1.78,1.52C479.14,197.29,478.8,197.09,478.44,197Z" transform="translate(-65.18 -56.7)"/><path class="cls-2" d="M473.33,169.25c.24-.91.4-1.5.59-2.23l2.17,1.46Z" transform="translate(-65.18 -56.7)"/><path class="cls-2" d="M468.17,206.13c.71,1.09,2,2,1.41,3.83a4.43,4.43,0,0,1-1.37-3.87Z" transform="translate(-65.18 -56.7)"/><path class="cls-2" d="M394.58,122.54l-1.05,3.13a2.71,2.71,0,0,1-.17-2.73c.16-.32.64-.49,1-.73Z" transform="translate(-65.18 -56.7)"/><path class="cls-2" d="M234.61,72.33l-.13-1-.71.56,2-1.45c.92.86.91,1.06,0,1.35C235.24,71.9,234.59,71.8,234.61,72.33Z" transform="translate(-65.18 -56.7)"/><path class="cls-2" d="M487.69,198.62c-.56.68-1,1.14-1.33,1.63s-.83.6-1.25.09l2.14-2.69Z" transform="translate(-65.18 -56.7)"/><path class="cls-2" d="M287.82,315.43l1.09-1.87,1.37,2.37Z" transform="translate(-65.18 -56.7)"/><path class="cls-2" d="M423.48,249.2l-.69,1.2c-.49-1.27-.94-2.45-1.4-3.63l.26-.13Z" transform="translate(-65.18 -56.7)"/><path class="cls-2" d="M467.44,211.46l-2.17-1.21v-1.9c1,1.15,2,1.77,2.13,3.15Z" transform="translate(-65.18 -56.7)"/><path class="cls-2" d="M468.21,206.09l-1.42,1c.24-.86.66-1.48-.13-1.95-.13-.08.11-.77.23-1.43.7.78.67,1.73,1.47,2l-.19.42Z" transform="translate(-65.18 -56.7)"/><path class="cls-2" d="M285.35,96.12l0-.31,2.91-.73c-.36.61-.49,1.15-.79,1.27a5.84,5.84,0,0,1-1.83.29C285.54,96.64,285.44,96.3,285.35,96.12Z" transform="translate(-65.18 -56.7)"/><path class="cls-2" d="M453.09,229.1c-.24-.25-.41-.45-.61-.62a4.54,4.54,0,0,0-.57-.4c.08-.3.07-.66.25-.87s.66-.52.84-.43a1.11,1.11,0,0,1,.5.86A5.91,5.91,0,0,1,453.09,229.1Z" transform="translate(-65.18 -56.7)"/><path class="cls-2" d="M432.19,244.83l1,.42c.05.73.11,1.42.17,2.19C432,246.64,431.86,246.24,432.19,244.83Z" transform="translate(-65.18 -56.7)"/><path class="cls-2" d="M490.16,168.3l-.83,1c-.81-.32-1.55-.6-2.27-.92-.05,0,0-.29,0-.55Z" transform="translate(-65.18 -56.7)"/><path class="cls-2" d="M135.43,129.87a2.44,2.44,0,0,1,1,2.5l-1.11-.33-.22-2Z" transform="translate(-65.18 -56.7)"/><path class="cls-2" d="M476.2,156.44a2.83,2.83,0,0,1-2.37,2.93c.32-1.47,1.57-2,2.43-2.88Z" transform="translate(-65.18 -56.7)"/><path class="cls-2" d="M203,225.82l1.52-.08-2.37,3-.18-.1,1.08-2.84Z" transform="translate(-65.18 -56.7)"/><path class="cls-2" d="M146.33,130.54l-2-2.32.73-1a11.11,11.11,0,0,1,1.25,3.31Z" transform="translate(-65.18 -56.7)"/><path class="cls-2" d="M439.43,244.21l3.33-1.1c-.81,1.7-2.1,1.4-3.26,1.47Z" transform="translate(-65.18 -56.7)"/><path class="cls-2" d="M173.09,210.87l-.14,1.68-1.45.16c-.33-.82-.1-1.24.57-1.47l1-.34Z" transform="translate(-65.18 -56.7)"/><path class="cls-2" d="M318.23,70.46a22.54,22.54,0,0,1-1.72,2.17c-.13.13-.64-.12-1-.5l1.24-.14C316.91,71.34,316.79,70.49,318.23,70.46Z" transform="translate(-65.18 -56.7)"/><path class="cls-2" d="M431.62,145c.66,1.58-1.22,1.23-1.42,2.13C430,145.86,430.31,145.48,431.62,145Z" transform="translate(-65.18 -56.7)"/><path class="cls-2" d="M197.6,218.73c-.36.81-.51,1.78-1.81,1.91l-.13-1.06,1.67-1.11Z" transform="translate(-65.18 -56.7)"/><path class="cls-2" d="M424.89,140l-.88-.32,2-2.32a4.4,4.4,0,0,1-1.18,2.67Z" transform="translate(-65.18 -56.7)"/><path class="cls-2" d="M467.81,200l1.17,1.56-1.7.15.1-1.54Z" transform="translate(-65.18 -56.7)"/><path class="cls-2" d="M470.46,202.65l2.26,1.14-.11.23c-.48,0-1.06.25-1.41,0s-.66-.83-1-1.27Z" transform="translate(-65.18 -56.7)"/><path class="cls-2" d="M243.44,64.86l-1.5.1V63.11Z" transform="translate(-65.18 -56.7)"/><path class="cls-2" d="M476.67,206.58l2.44.93-1.38.64-1.27-1.44Z" transform="translate(-65.18 -56.7)"/><path class="cls-2" d="M223.13,268.65c-.63,2.14-.79,2.3-1.91,1.89A6.61,6.61,0,0,1,223.13,268.65Z" transform="translate(-65.18 -56.7)"/><path class="cls-2" d="M463,197.39h-1.56v-1.46C462.32,196.15,462.52,196.78,463,197.39Z" transform="translate(-65.18 -56.7)"/><path class="cls-2" d="M482.9,215.9c.6,1.23.6,1.23-.36,1.88C481.88,216.86,481.88,216.86,482.9,215.9Z" transform="translate(-65.18 -56.7)"/><path class="cls-2" d="M464.64,207.71c0-.67-.06-1.16-.1-1.86l1.94,1.18Z" transform="translate(-65.18 -56.7)"/><path class="cls-2" d="M460.87,202.82l-1.91.36c-.08-.43-.16-.9-.33-1.78l2.24,1.42Z" transform="translate(-65.18 -56.7)"/><path class="cls-2" d="M475.2,155.61l-1.14-1.28,1.15-.89.3.15c-.12.69-.24,1.38-.35,2.06Z" transform="translate(-65.18 -56.7)"/><path class="cls-2" d="M477.3,156.5l1.29.16c-.1.47-.19,1-.36,1.8-.37-.84-.62-1.43-.88-2Z" transform="translate(-65.18 -56.7)"/><path class="cls-2" d="M462.5,201.26l1.12-1.12,1.43,1-2.58.11Z" transform="translate(-65.18 -56.7)"/><path class="cls-2" d="M479.89,153.64l1.69-.76-.83,2Z" transform="translate(-65.18 -56.7)"/><path class="cls-2" d="M480.81,199.61l-1.6-.49c.28-.6.58-1,1.2-.77S481,199,480.81,199.61Z" transform="translate(-65.18 -56.7)"/><path class="cls-2" d="M479.22,165.94l-1.11-.47c.23-.59.44-1.15.65-1.7l.23,0a7.66,7.66,0,0,0,0,.83C479,165,479.11,165.32,479.22,165.94Z" transform="translate(-65.18 -56.7)"/><path class="cls-2" d="M463.18,212.38c.13.08.33.13.37.25a10.08,10.08,0,0,1,.22,1.12c-.22,0-.53.15-.66.05a.79.79,0,0,1-.19-1.23A1.46,1.46,0,0,1,463.18,212.38Z" transform="translate(-65.18 -56.7)"/><path class="cls-2" d="M279.4,84.6l-.89-1.08,1.56-.35.18.29-.89,1.12Z" transform="translate(-65.18 -56.7)"/><path class="cls-2" d="M250.92,59.43c.79.22,1.44.36,1,1.35C251.26,60.63,250.94,60.28,250.92,59.43Z" transform="translate(-65.18 -56.7)"/><path class="cls-2" d="M472.32,209.18l.83-1.27c.55.46.73.93.21,1.37C473.2,209.42,472.78,209.24,472.32,209.18Z" transform="translate(-65.18 -56.7)"/><path class="cls-2" d="M477.35,156.45H476.2l.06.05-1.05-.88,0,0c.85-.07,1.83-.45,2.14.86Z" transform="translate(-65.18 -56.7)"/><path class="cls-2" d="M468.8,205.58c.3-.62.48-1,.68-1.42l1.22,1Z" transform="translate(-65.18 -56.7)"/><path class="cls-2" d="M477.93,198.22l-1.12-1.64C478.22,196.75,478.22,196.75,477.93,198.22Z" transform="translate(-65.18 -56.7)"/><path class="cls-2" d="M457.63,209.41c-.67-.42-.7-.92-.3-1.56C458.3,208.69,458.3,208.69,457.63,209.41Z" transform="translate(-65.18 -56.7)"/><path class="cls-2" d="M475.6,162.47c.11-1.05.11-1.05,1.4-.85Z" transform="translate(-65.18 -56.7)"/><path class="cls-2" d="M486.52,160.75l.93-1.54C487.8,160.3,487.8,160.3,486.52,160.75Z" transform="translate(-65.18 -56.7)"/><path class="cls-2" d="M294.77,110.23l2.35-1C296.08,110.33,296.08,110.33,294.77,110.23Z" transform="translate(-65.18 -56.7)"/><path class="cls-2" d="M449.74,206.62l.53,1.69c-1.06-.49-.81-1.14-.92-1.66Z" transform="translate(-65.18 -56.7)"/><path class="cls-2" d="M471.59,194.43l-1-1.62C471.86,193.06,471.86,193.06,471.59,194.43Z" transform="translate(-65.18 -56.7)"/><path class="cls-2" d="M468.61,167.2l-1.55-1.48C468.45,165.5,468.46,166.41,468.61,167.2Z" transform="translate(-65.18 -56.7)"/><path class="cls-2" d="M474.47,195.9l-1-1.07C474.28,194.7,474.28,194.7,474.47,195.9Z" transform="translate(-65.18 -56.7)"/><path class="cls-2" d="M254.74,62.48l-1.14-1C254.64,61.14,254.64,61.14,254.74,62.48Z" transform="translate(-65.18 -56.7)"/><path class="cls-2" d="M287.2,91.81l1.75-.24.06.27-1.73.46Z" transform="translate(-65.18 -56.7)"/><path class="cls-2" d="M454.93,229.49l.06-1.42h.38v1.44Z" transform="translate(-65.18 -56.7)"/><path class="cls-2" d="M486.94,162.2c.6,1.08,0,1.38-.64,1.63Z" transform="translate(-65.18 -56.7)"/><path class="cls-2" d="M231,76.62l-.34-1.46C231.2,75.54,231.63,76,231,76.62Z" transform="translate(-65.18 -56.7)"/><path class="cls-2" d="M115.12,147.22v1.38C114.61,148.06,114.61,148.06,115.12,147.22Z" transform="translate(-65.18 -56.7)"/><path class="cls-2" d="M477.49,203.88l.75,1.3C477.42,204.85,477.42,204.85,477.49,203.88Z" transform="translate(-65.18 -56.7)"/><path class="cls-2" d="M453.77,156.3l-1.15.73-.22-.26a4,4,0,0,1,.55-.54,3.21,3.21,0,0,1,.66-.24Z" transform="translate(-65.18 -56.7)"/><path class="cls-2" d="M452.27,223.12c0,.63-.09,1-.14,1.69C451.53,224,451.53,224,452.27,223.12Z" transform="translate(-65.18 -56.7)"/><path class="cls-2" d="M172.85,209.12l-1.26.75-.24-.4,1.27-.75Z" transform="translate(-65.18 -56.7)"/><path class="cls-2" d="M384,117.76l-1.84.81c.31-1,1-1.13,1.84-.8Z" transform="translate(-65.18 -56.7)"/><path class="cls-2" d="M474.72,203c.57.77.57.77-.12,1.09Z" transform="translate(-65.18 -56.7)"/><path class="cls-2" d="M309.82,89.88l-1.75-.62.13-.26,1.57.92Z" transform="translate(-65.18 -56.7)"/><path class="cls-2" d="M314.33,69c-.86.61-1.1.08-1.68-.44Z" transform="translate(-65.18 -56.7)"/><path class="cls-2" d="M460.94,231.54l-.84,1-.23-.22.86-.93Z" transform="translate(-65.18 -56.7)"/><path class="cls-2" d="M139.19,194.21a1.21,1.21,0,0,1,1.52-.71l-1.55.67Z" transform="translate(-65.18 -56.7)"/><path class="cls-2" d="M398.37,125.37a2.9,2.9,0,0,1-.56,1.62l-.41-.21.92-1.45Z" transform="translate(-65.18 -56.7)"/><path class="cls-2" d="M471.41,201.4c-.19-.41-.37-.83-.56-1.25l.31-.15.65,1.18Z" transform="translate(-65.18 -56.7)"/><path class="cls-2" d="M418.2,134.71l-.67.27-.15-.38.71-.16Z" transform="translate(-65.18 -56.7)"/><path class="cls-2" d="M461.93,218.31a2.65,2.65,0,0,1-.7.12c-.06,0-.1-.23-.15-.36a1.18,1.18,0,0,1,.43-.13C461.61,218,461.7,218.11,461.93,218.31Z" transform="translate(-65.18 -56.7)"/><path class="cls-2" d="M481.51,163.24l-.73,1-.25-.16.65-1.08Z" transform="translate(-65.18 -56.7)"/><path class="cls-2" d="M441,212.29l.88.44-.15.31-.89-.41Z" transform="translate(-65.18 -56.7)"/><path class="cls-2" d="M480.42,160.8h.66l-.09.41-.61-.19Z" transform="translate(-65.18 -56.7)"/><path class="cls-2" d="M173.11,210.9l1.21-.39c-.38.58-.38.58-1.22.37Z" transform="translate(-65.18 -56.7)"/><path class="cls-2" d="M205.41,114.44l.72-1.08.29.17-.66,1.14Z" transform="translate(-65.18 -56.7)"/><path class="cls-2" d="M483.88,158.69l-.28.65-.23-.08.16-.67Z" transform="translate(-65.18 -56.7)"/><path class="cls-2" d="M376.82,282.78l.69.35-.24.35-.59-.48Z" transform="translate(-65.18 -56.7)"/><path class="cls-2" d="M153.38,123.25l-.54.35c-.06-.12-.2-.26-.17-.37a.47.47,0,0,1,.3-.3C153.08,122.93,153.2,123.1,153.38,123.25Z" transform="translate(-65.18 -56.7)"/><path class="cls-2" d="M161.14,147.75c.21.15.43.3.63.46a1.16,1.16,0,0,1-.14.24l-.69-.37Z" transform="translate(-65.18 -56.7)"/><path class="cls-2" d="M474.23,199.86a7.05,7.05,0,0,1,.61.47,2,2,0,0,1-.16.23l-.62-.51Z" transform="translate(-65.18 -56.7)"/><path class="cls-2" d="M455,211.21l1,2.32C455,213.61,454.75,213.15,455,211.21Z" transform="translate(-65.18 -56.7)"/></svg>